Georama-MediumItalic.ufo
<glyph name="exclam" format="2">
  <advance width="228.84600000000003"/>
  <unicode hex="0021"/>
  <outline>
    <contour>
      <point x="68.048" y="261.85" type="line"/>
      <point x="154.504" y="261.85" type="line"/>
      <point x="238.276" y="740.0" type="line"/>
      <point x="138.48999999999998" y="740.0" type="line"/>
    </contour>
    <contour>
      <point x="20.786" y="36.574" type="curve" smooth="yes"/>
      <point x="20.216" y="8.479999999999999"/>
      <point x="33.940000000000005" y="-4.3"/>
      <point x="69.39399999999999" y="-4.3" type="curve" smooth="yes"/>
      <point x="118.27199999999999" y="-4.3"/>
      <point x="136.818" y="26.971999999999994"/>
      <point x="138.52800000000002" y="74.22399999999999" type="curve" smooth="yes"/>
      <point x="139.098" y="102.66"/>
      <point x="124.69" y="115.098"/>
      <point x="89.75000000000001" y="115.098" type="curve" smooth="yes"/>
      <point x="41.212" y="115.098"/>
      <point x="22.496000000000002" y="83.482"/>
    </contour>
  </outline>
</glyph>
<glyph name="numbersign" format="2">
  <advance width="610.212"/>
  <unicode hex="0023"/>
  <outline>
    <contour>
      <point x="125.556" y="446.656" type="line"/>
      <point x="205.48399999999998" y="446.656" type="line"/>
      <point x="143.36400000000003" y="248.832" type="line"/>
      <point x="67.25200000000001" y="248.832" type="line"/>
      <point x="54.333999999999996" y="169.91400000000002" type="line"/>
      <point x="121.826" y="169.91400000000002" type="line"/>
      <point x="70.494" y="0.0" type="line"/>
      <point x="159.722" y="0.0" type="line"/>
      <point x="210.484" y="169.91400000000002" type="line"/>
      <point x="318.3860000000001" y="169.91400000000002" type="line"/>
      <point x="267.624" y="0.0" type="line"/>
      <point x="356.252" y="0.0" type="line"/>
      <point x="407.014" y="169.91400000000002" type="line"/>
      <point x="495.824" y="169.91400000000002" type="line"/>
      <point x="508.228" y="248.832" type="line"/>
      <point x="429.124" y="248.832" type="line"/>
      <point x="490.672" y="446.656" type="line"/>
      <point x="566.532" y="446.656" type="line"/>
      <point x="579.5939999999999" y="525.746" type="line"/>
      <point x="512.438" y="525.746" type="line"/>
      <point x="565.454" y="700.0" type="line"/>
      <point x="476.568" y="700.0" type="line"/>
      <point x="423.552" y="525.746" type="line"/>
      <point x="315.65000000000003" y="525.746" type="line"/>
      <point x="368.66599999999994" y="700.0" type="line"/>
      <point x="280.038" y="700.0" type="line"/>
      <point x="227.02200000000002" y="525.746" type="line"/>
      <point x="138.44599999999997" y="525.746" type="line"/>
    </contour>
    <contour>
      <point x="294.112" y="446.656" type="line"/>
      <point x="402.01399999999995" y="446.656" type="line"/>
      <point x="340.152" y="248.832" type="line"/>
      <point x="232.25" y="248.832" type="line"/>
    </contour>
  </outline>
</glyph>
<glyph name="dollar" format="2">
  <advance width="610.212"/>
  <unicode hex="0024"/>
  <outline>
    <contour>
      <point x="570.3760000000001" y="677.356" type="line"/>
      <point x="540.64" y="688.992"/>
      <point x="488.95599999999996" y="704.988"/>
      <point x="421.08000000000004" y="708.7959999999999" type="curve"/>
      <point x="436.48" y="804.484" type="line"/>
      <point x="356.56000000000006" y="804.484" type="line"/>
      <point x="340.272" y="704.756" type="line"/>
      <point x="217.93200000000002" y="692.072"/>
      <point x="113.38400000000001" y="618.932"/>
      <point x="113.38400000000001" y="498.792" type="curve" smooth="yes"/>
      <point x="113.38400000000001" y="303.936"/>
      <point x="423.08" y="310.40400000000005"/>
      <point x="423.08" y="189.896" type="curve" smooth="yes"/>
      <point x="423.08" y="115.12800000000001"/>
      <point x="340.372" y="77.024"/>
      <point x="263.03200000000004" y="77.024" type="curve" smooth="yes"/>
      <point x="187.348" y="77.024"/>
      <point x="103.72800000000001" y="97.156"/>
      <point x="56.608" y="116.97999999999999" type="curve"/>
      <point x="23.072" y="31.960000000000004" type="line"/>
      <point x="66.78800000000001" y="15.031999999999998"/>
      <point x="140.036" y="-5.504"/>
      <point x="216.872" y="-8.28" type="curve"/>
      <point x="201.872" y="-105.0" type="line"/>
      <point x="281.61999999999995" y="-105.0" type="line"/>
      <point x="296.61999999999995" y="-6.304000000000001" type="line"/>
      <point x="421.84000000000003" y="7.584"/>
      <point x="529.596" y="78.556"/>
      <point x="529.596" y="201.836" type="curve" smooth="yes"/>
      <point x="529.596" y="394.83599999999996"/>
      <point x="220.876" y="384.872"/>
      <point x="220.876" y="507.956" type="curve" smooth="yes"/>
      <point x="220.876" y="579.5840000000001"/>
      <point x="300.852" y="620.908"/>
      <point x="373.68" y="620.908" type="curve" smooth="yes"/>
      <point x="439.14" y="620.908"/>
      <point x="492.456" y="610.1759999999999"/>
      <point x="538.472" y="592.504" type="curve"/>
    </contour>
  </outline>
</glyph>
<glyph name="ampersand" format="2">
  <advance width="668.9560000000001"/>
  <unicode hex="0026"/>
  <outline>
    <contour>
      <point x="264.414" y="-10.0" type="curve" smooth="yes"/>
      <point x="433.708" y="-10.0"/>
      <point x="561.8420000000001" y="121.224"/>
      <point x="568.95" y="296.17" type="curve"/>
      <point x="486.96599999999995" y="294.92" type="line"/>
      <point x="491.69" y="169.064"/>
      <point x="382.94200000000006" y="72.298"/>
      <point x="276.88" y="72.298" type="curve" smooth="yes"/>
      <point x="179.294" y="72.298"/>
      <point x="128.344" y="116.69599999999998"/>
      <point x="128.344" y="184.224" type="curve" smooth="yes"/>
      <point x="128.344" y="293.534"/>
      <point x="221.27800000000002" y="359.01599999999996"/>
      <point x="327.7" y="359.01599999999996" type="curve" smooth="yes"/>
      <point x="352.61199999999997" y="359.01599999999996" type="line"/>
      <point x="366.624" y="422.106" type="line"/>
      <point x="352.514" y="423.8260000000001" type="line" smooth="yes"/>
      <point x="278.502" y="429.502"/>
      <point x="234.544" y="463.01800000000003"/>
      <point x="234.544" y="525.492" type="curve" smooth="yes"/>
      <point x="234.544" y="582.934"/>
      <point x="278.73400000000004" y="631.796"/>
      <point x="349.84000000000003" y="631.796" type="curve" smooth="yes"/>
      <point x="392.69" y="631.796"/>
      <point x="433.22200000000004" y="617.014"/>
      <point x="466.904" y="589.0340000000001" type="curve"/>
      <point x="517.494" y="654.4580000000001" type="line"/>
      <point x="470.936" y="690.1500000000001"/>
      <point x="409.73" y="710.0"/>
      <point x="340.57599999999996" y="710.0" type="curve" smooth="yes"/>
      <point x="211.782" y="710.0"/>
      <point x="134.648" y="630.058"/>
      <point x="134.648" y="538.3960000000001" type="curve" smooth="yes"/>
      <point x="134.648" y="471.58200000000005"/>
      <point x="173.894" y="420.56399999999996"/>
      <point x="237.90200000000004" y="399.74" type="curve"/>
      <point x="114.18200000000002" y="380.82"/>
      <point x="26.384" y="301.034"/>
      <point x="26.384" y="171.154" type="curve" smooth="yes"/>
      <point x="26.384" y="63.956"/>
      <point x="104.758" y="-10.0"/>
    </contour>
    <contour>
      <point x="388.62000000000006" y="233.46" type="line"/>
      <point x="393.25" y="268.93800000000005"/>
      <point x="415.146" y="283.69599999999997"/>
      <point x="444.96999999999997" y="283.69599999999997" type="curve" smooth="yes"/>
      <point x="496.7779999999999" y="283.69599999999997"/>
      <point x="532.624" y="268.37600000000003"/>
      <point x="583.266" y="268.37600000000003" type="curve" smooth="yes"/>
      <point x="645.89" y="268.37600000000003"/>
      <point x="687.212" y="322.02600000000007"/>
      <point x="684.356" y="388.308" type="curve"/>
      <point x="622.006" y="391.386" type="line"/>
      <point x="619.096" y="348.616"/>
      <point x="594.812" y="333.562"/>
      <point x="552.712" y="333.562" type="curve" smooth="yes"/>
      <point x="510.12000000000006" y="333.562"/>
      <point x="479.956" y="350.946"/>
      <point x="434.968" y="350.946" type="curve" smooth="yes"/>
      <point x="371.88800000000003" y="350.946"/>
      <point x="334.84600000000006" y="307.366"/>
      <point x="328.848" y="249.114" type="curve"/>
    </contour>
  </outline>
</glyph>
<glyph name="quotesingle" format="2">
  <advance width="177.356"/>
  <unicode hex="0027"/>
  <outline>
    <contour>
      <point x="71.864" y="427.0" type="line"/>
      <point x="151.858" y="427.0" type="line"/>
      <point x="201.43800000000002" y="700.0" type="line"/>
      <point x="109.918" y="700.0" type="line"/>
    </contour>
  </outline>
</glyph>
<glyph name="parenleft" format="2">
  <advance width="307.946"/>
  <unicode hex="0028"/>
  <outline>
    <contour>
      <point x="52.196" y="59.56" type="curve" smooth="yes"/>
      <point x="52.196" y="-86.41199999999999"/>
      <point x="97.26599999999999" y="-196.412"/>
      <point x="204.978" y="-220.0" type="curve"/>
      <point x="221.546" y="-142.14" type="line"/>
      <point x="164.442" y="-120.848"/>
      <point x="133.80599999999998" y="-48.83599999999999"/>
      <point x="133.80599999999998" y="61.834" type="curve" smooth="yes"/>
      <point x="133.80599999999998" y="247.97800000000004"/>
      <point x="216.04999999999998" y="631.712"/>
      <point x="349.028" y="669.396" type="curve"/>
      <point x="358.24" y="749.6579999999999" type="line"/>
      <point x="142.07799999999997" y="709.988"/>
      <point x="52.196" y="300.98800000000006"/>
    </contour>
  </outline>
</glyph>
<glyph name="parenright" format="2">
  <advance width="307.946"/>
  <unicode hex="0029"/>
  <outline>
    <contour>
      <point x="252.92" y="469.98400000000004" type="curve" smooth="yes"/>
      <point x="252.92" y="618.1840000000001"/>
      <point x="207.736" y="726.412"/>
      <point x="99.796" y="750.0" type="curve"/>
      <point x="83.912" y="669.798" type="line"/>
      <point x="143.98" y="645.9979999999999"/>
      <point x="171.31" y="574.784"/>
      <point x="171.31" y="471.29600000000005" type="curve" smooth="yes"/>
      <point x="171.31" y="286.748"/>
      <point x="90.32" y="-100.914"/>
      <point x="-44.71" y="-139.624" type="curve"/>
      <point x="-53.58" y="-220.0" type="line"/>
      <point x="153.462" y="-178.498"/>
      <point x="252.92" y="219.78799999999995"/>
    </contour>
  </outline>
</glyph>
<glyph name="asterisk" format="2">
  <advance width="331.91200000000003"/>
  <unicode hex="002A"/>
  <outline>
    <contour>
      <point x="110.44800000000001" y="365.61" type="line"/>
      <point x="196.17399999999998" y="467.40200000000004" type="line"/>
      <point x="248.264" y="365.95199999999994" type="line"/>
      <point x="291.274" y="394.416" type="line"/>
      <point x="248.44400000000002" y="506.138" type="line"/>
      <point x="359.34599999999995" y="554.788" type="line"/>
      <point x="351.876" y="602.122" type="line"/>
      <point x="241.48" y="567.422" type="line"/>
      <point x="257.11" y="698.038" type="line"/>
      <point x="208.83399999999997" y="698.038" type="line"/>
      <point x="182.71200000000002" y="567.764" type="line"/>
      <point x="83.39200000000001" y="602.4639999999999" type="line"/>
      <point x="61.31399999999999" y="555.472" type="line"/>
      <point x="155.15800000000002" y="506.822" type="line"/>
      <point x="76.262" y="394.87199999999996" type="line"/>
    </contour>
  </outline>
</glyph>
<glyph name="plus" format="2">
  <advance width="460.486"/>
  <unicode hex="002B"/>
  <outline>
    <contour>
      <point x="158.726" y="98.05799999999999" type="line"/>
      <point x="246.21200000000002" y="98.05799999999999" type="line"/>
      <point x="271.846" y="261.16799999999995" type="line"/>
      <point x="409.274" y="261.16799999999995" type="line"/>
      <point x="423.28200000000004" y="348.31" type="line"/>
      <point x="285.854" y="348.31" type="line"/>
      <point x="311.88800000000003" y="511.59000000000003" type="line"/>
      <point x="224.746" y="511.59000000000003" type="line"/>
      <point x="198.368" y="348.31" type="line"/>
      <point x="61.114000000000004" y="348.31" type="line"/>
      <point x="47.106" y="261.16799999999995" type="line"/>
      <point x="184.704" y="261.16799999999995" type="line"/>
    </contour>
  </outline>
</glyph>
<glyph name="comma" format="2">
  <advance width="192.632"/>
  <unicode hex="002C"/>
  <outline>
    <contour>
      <point x="17.468" y="65.74199999999999" type="line"/>
      <point x="18.291999999999998" y="45.8"/>
      <point x="17.028000000000002" y="26.406"/>
      <point x="15.566000000000003" y="11.911999999999999" type="curve" smooth="yes"/>
      <point x="10.836" y="-50.596"/>
      <point x="-25.182" y="-131.782"/>
      <point x="-73.528" y="-172.84199999999998" type="curve"/>
      <point x="-4.059999999999999" y="-195.092" type="line"/>
      <point x="70.16000000000001" y="-136.326"/>
      <point x="112.68" y="-40.242000000000004"/>
      <point x="112.68" y="34.142" type="curve" smooth="yes"/>
      <point x="112.68" y="46.768"/>
      <point x="111.566" y="58.565999999999995"/>
      <point x="109.226" y="70.61800000000001" type="curve"/>
    </contour>
  </outline>
</glyph>
<glyph name="hyphen" format="2">
  <advance width="320.988"/>
  <unicode hex="002D"/>
  <outline>
    <contour>
      <point x="35.62" y="241.84600000000003" type="line"/>
      <point x="274.382" y="241.84600000000003" type="line"/>
      <point x="289.764" y="333.34400000000005" type="line"/>
      <point x="51.001999999999995" y="333.34400000000005" type="line"/>
    </contour>
  </outline>
</glyph>
<glyph name="period" format="2">
  <advance width="194.868"/>
  <unicode hex="002E"/>
  <outline>
    <contour>
      <point x="3.797999999999999" y="37.348" type="curve" smooth="yes"/>
      <point x="3.227999999999999" y="8.995999999999999"/>
      <point x="16.694000000000003" y="-3.526"/>
      <point x="52.406000000000006" y="-3.526" type="curve" smooth="yes"/>
      <point x="101.28399999999999" y="-3.526"/>
      <point x="119.572" y="27.745999999999995"/>
      <point x="121.282" y="75.514" type="curve" smooth="yes"/>
      <point x="121.85199999999999" y="103.692"/>
      <point x="107.702" y="115.872"/>
      <point x="72.762" y="115.872" type="curve" smooth="yes"/>
      <point x="23.966" y="115.872"/>
      <point x="5.508" y="84.256"/>
    </contour>
  </outline>
</glyph>
<glyph name="slash" format="2">
  <advance width="363.28"/>
  <unicode hex="002F"/>
  <outline>
    <contour>
      <point x="-71.81800000000001" y="-210.0" type="line"/>
      <point x="12.282" y="-210.0" type="line"/>
      <point x="432.098" y="740.0" type="line"/>
      <point x="347.31" y="740.0" type="line"/>
    </contour>
  </outline>
</glyph>
<glyph name="zero" format="2">
  <advance width="611.2439999999999"/>
  <unicode hex="0030"/>
  <outline>
    <contour>
      <point x="274.24799999999993" y="-11.72" type="curve" smooth="yes"/>
      <point x="482.588" y="-11.72"/>
      <point x="590.14" y="222.30400000000003"/>
      <point x="590.14" y="454.02" type="curve" smooth="yes"/>
      <point x="590.14" y="618.8919999999999"/>
      <point x="522.992" y="710.86"/>
      <point x="360.772" y="710.86" type="curve" smooth="yes"/>
      <point x="144.636" y="710.86"/>
      <point x="44.076" y="472.64799999999997"/>
      <point x="44.076" y="246.092" type="curve" smooth="yes"/>
      <point x="44.076" y="82.08000000000001"/>
      <point x="112.14" y="-11.72"/>
    </contour>
    <contour>
      <point x="281.128" y="76.94" type="curve" smooth="yes"/>
      <point x="183.452" y="76.94"/>
      <point x="149.852" y="144.1"/>
      <point x="149.936" y="247.728" type="curve" smooth="yes"/>
      <point x="150.10399999999998" y="414.58799999999997"/>
      <point x="209.768" y="623.06"/>
      <point x="353.892" y="623.06" type="curve" smooth="yes"/>
      <point x="451.67999999999995" y="623.06"/>
      <point x="484.36400000000003" y="557.732"/>
      <point x="484.28000000000003" y="454.104" type="curve" smooth="yes"/>
      <point x="484.112" y="289.02"/>
      <point x="423.476" y="76.94"/>
    </contour>
  </outline>
</glyph>
<glyph name="one" format="2">
  <advance width="610.212"/>
  <unicode hex="0031"/>
  <outline>
    <contour>
      <point x="52.104000000000006" y="0.0" type="line"/>
      <point x="513.288" y="0.0" type="line"/>
      <point x="527.3820000000001" y="86.85199999999999" type="line"/>
      <point x="359.956" y="86.85199999999999" type="line"/>
      <point x="458.522" y="702.28" type="line"/>
      <point x="407.01599999999996" y="702.28" type="line"/>
      <point x="123.952" y="572.884" type="line"/>
      <point x="135.164" y="481.34600000000006" type="line"/>
      <point x="335.22" y="578.228" type="line"/>
      <point x="257.162" y="86.85199999999999" type="line"/>
      <point x="65.94" y="86.85199999999999" type="line"/>
    </contour>
  </outline>
</glyph>
<glyph name="two" format="2">
  <advance width="611.2439999999999"/>
  <unicode hex="0032"/>
  <outline>
    <contour>
      <point x="47.272" y="69.46" type="curve"/>
      <point x="37.980000000000004" y="0.0" type="line"/>
      <point x="504.756" y="0.0" type="line"/>
      <point x="518.768" y="85.21999999999998" type="line"/>
      <point x="203.16800000000003" y="85.21999999999998" type="line"/>
      <point x="376.352" y="232.45200000000006"/>
      <point x="523.096" y="373.612"/>
      <point x="523.096" y="549.604" type="curve" smooth="yes"/>
      <point x="523.096" y="650.876"/>
      <point x="447.32800000000003" y="710.0"/>
      <point x="343.75600000000003" y="710.0" type="curve" smooth="yes"/>
      <point x="269.16400000000004" y="710.0"/>
      <point x="187.07600000000002" y="685.644"/>
      <point x="127.756" y="646.0079999999999" type="curve"/>
      <point x="153.816" y="567.3680000000002" type="line"/>
      <point x="206.50799999999998" y="598.208"/>
      <point x="261.676" y="617.152"/>
      <point x="311.572" y="617.152" type="curve" smooth="yes"/>
      <point x="374.90399999999994" y="617.152"/>
      <point x="417.236" y="579.3399999999999"/>
      <point x="417.236" y="522.9919999999998" type="curve" smooth="yes"/>
      <point x="417.152" y="382.948"/>
      <point x="246.05599999999995" y="212.07999999999998"/>
    </contour>
  </outline>
</glyph>
<glyph name="three" format="2">
  <advance width="611.3000000000001"/>
  <unicode hex="0033"/>
  <outline>
    <contour>
      <point x="10.32" y="48.12" type="line"/>
      <point x="69.04" y="9.419999999999998"/>
      <point x="144.76000000000002" y="-10.0"/>
      <point x="237.46" y="-10.0" type="curve" smooth="yes"/>
      <point x="386.44" y="-10.0"/>
      <point x="528.58" y="66.24"/>
      <point x="528.58" y="224.16" type="curve" smooth="yes"/>
      <point x="528.58" y="312.14"/>
      <point x="485.74" y="355.56"/>
      <point x="422.62" y="371.86" type="curve"/>
      <point x="493.78000000000003" y="397.32"/>
      <point x="550.1800000000001" y="456.73999999999995"/>
      <point x="550.1800000000001" y="551.7199999999999" type="curve" smooth="yes"/>
      <point x="550.1800000000001" y="649.3"/>
      <point x="477.6" y="710.0"/>
      <point x="336.4" y="710.0" type="curve" smooth="yes"/>
      <point x="266.76000000000005" y="710.0"/>
      <point x="185.85999999999999" y="698.4200000000001"/>
      <point x="129.28" y="662.82" type="curve"/>
      <point x="152.04" y="584.9000000000001" type="line"/>
      <point x="200.16" y="610.1800000000001"/>
      <point x="256.58000000000004" y="622.1999999999999"/>
      <point x="313.9" y="622.1999999999999" type="curve" smooth="yes"/>
      <point x="398.4" y="622.1999999999999"/>
      <point x="447.76" y="584.82"/>
      <point x="447.76" y="521.9" type="curve" smooth="yes"/>
      <point x="447.76" y="448.76"/>
      <point x="393.44" y="399.5"/>
      <point x="298.26" y="399.5" type="curve" smooth="yes"/>
      <point x="195.46000000000004" y="399.5" type="line"/>
      <point x="182.14" y="323.02" type="line"/>
      <point x="296.68" y="323.02" type="line" smooth="yes"/>
      <point x="384.64" y="323.02"/>
      <point x="425.87999999999994" y="288.76"/>
      <point x="425.87999999999994" y="221.16000000000003" type="curve" smooth="yes"/>
      <point x="425.87999999999994" y="130.0"/>
      <point x="353.81999999999994" y="78.66000000000001"/>
      <point x="243.04" y="78.66000000000001" type="curve" smooth="yes"/>
      <point x="165.24" y="78.66000000000001"/>
      <point x="101.24000000000001" y="94.35999999999999"/>
      <point x="51.839999999999996" y="124.03999999999999" type="curve"/>
    </contour>
  </outline>
</glyph>
<glyph name="four" format="2">
  <advance width="611.3000000000001"/>
  <unicode hex="0034"/>
  <outline>
    <contour>
      <point x="17.640000000000004" y="147.98" type="line"/>
      <point x="340.46" y="147.98" type="line"/>
      <point x="317.06" y="-1.28" type="line"/>
      <point x="422.91999999999996" y="-1.28" type="line"/>
      <point x="446.18" y="147.98" type="line"/>
      <point x="556.3" y="147.98" type="line"/>
      <point x="568.76" y="229.04" type="line"/>
      <point x="459.5" y="229.04" type="line"/>
      <point x="534.6400000000001" y="698.7199999999999" type="line"/>
      <point x="446.96000000000004" y="702.28" type="line"/>
      <point x="26.819999999999997" y="220.01999999999998" type="line"/>
    </contour>
    <contour>
      <point x="130.22" y="229.04" type="line"/>
      <point x="408.58" y="551.6200000000001" type="line"/>
      <point x="355.5" y="229.04" type="line"/>
    </contour>
  </outline>
</glyph>
<glyph name="five" format="2">
  <advance width="611.244"/>
  <unicode hex="0035"/>
  <outline>
    <contour>
      <point x="24.468" y="47.624" type="line"/>
      <point x="79.23599999999999" y="8.98"/>
      <point x="145.31199999999998" y="-10.0"/>
      <point x="237.536" y="-10.0" type="curve" smooth="yes"/>
      <point x="455.176" y="-10.0"/>
      <point x="536.2439999999999" y="122.96"/>
      <point x="536.2439999999999" y="253.908" type="curve" smooth="yes"/>
      <point x="536.2439999999999" y="358.1720000000001"/>
      <point x="479.776" y="412.724"/>
      <point x="356.56800000000004" y="412.72400000000005" type="curve" smooth="yes"/>
      <point x="214.72" y="412.724" type="line"/>
      <point x="263.5" y="609.5360000000001" type="line"/>
      <point x="558.4200000000002" y="609.5360000000001" type="line"/>
      <point x="572.6560000000002" y="700.0" type="line"/>
      <point x="203.03199999999998" y="700.0" type="line"/>
      <point x="107.60799999999999" y="340.944" type="line"/>
      <point x="114.776" y="330.0" type="line"/>
      <point x="313.36400000000003" y="330.0" type="line" smooth="yes"/>
      <point x="398.948" y="330.0"/>
      <point x="432.85200000000003" y="298.92800000000005"/>
      <point x="432.85200000000003" y="236.12" type="curve" smooth="yes"/>
      <point x="432.85200000000003" y="165.968"/>
      <point x="381.26" y="77.8"/>
      <point x="241.53600000000003" y="77.8" type="curve" smooth="yes"/>
      <point x="161.66" y="77.8"/>
      <point x="103.164" y="102.248"/>
      <point x="60.912" y="128.76" type="curve"/>
    </contour>
  </outline>
</glyph>
<glyph name="six" format="2">
  <advance width="611.3000000000001"/>
  <unicode hex="0036"/>
  <note>
14
</note>
  <outline>
    <contour>
      <point x="304.62" y="-10.0" type="curve" smooth="yes"/>
      <point x="447.34000000000003" y="-10.0"/>
      <point x="563.72" y="75.82"/>
      <point x="563.72" y="245.33999999999997" type="curve" smooth="yes"/>
      <point x="563.72" y="369.32000000000005"/>
      <point x="485.84" y="437.22"/>
      <point x="359.7" y="437.22" type="curve" smooth="yes"/>
      <point x="285.02" y="437.22"/>
      <point x="204.52" y="413.96"/>
      <point x="148.82" y="355.72" type="curve"/>
      <point x="144.82" y="275.7" type="line"/>
      <point x="189.05999999999997" y="326.76"/>
      <point x="260.98" y="353.72"/>
      <point x="331.32000000000005" y="353.72" type="curve" smooth="yes"/>
      <point x="425.8" y="353.72"/>
      <point x="464.74" y="310.62"/>
      <point x="464.74" y="232.16" type="curve" smooth="yes"/>
      <point x="464.74" y="137.42"/>
      <point x="402.24" y="76.08"/>
      <point x="310.64" y="76.08" type="curve" smooth="yes"/>
      <point x="208.33999999999997" y="76.08"/>
      <point x="151.54" y="132.44"/>
      <point x="151.54" y="251.32000000000002" type="curve" smooth="yes"/>
      <point x="151.54" y="368.76"/>
      <point x="183.22" y="473.70000000000005"/>
      <point x="244.9" y="538.66" type="curve" smooth="yes"/>
      <point x="293.16" y="590.1999999999999"/>
      <point x="356.84" y="620.48"/>
      <point x="436.82" y="620.48" type="curve" smooth="yes"/>
      <point x="480.64000000000004" y="620.48"/>
      <point x="530.08" y="610.48"/>
      <point x="570.64" y="591.7800000000001" type="curve"/>
      <point x="606.44" y="672.4200000000001" type="line"/>
      <point x="565.74" y="693.84"/>
      <point x="502.56" y="710.0"/>
      <point x="429.22" y="710.0" type="curve" smooth="yes"/>
      <point x="195.57999999999998" y="710.0"/>
      <point x="53.42" y="524.54"/>
      <point x="53.42" y="249.76000000000002" type="curve" smooth="yes"/>
      <point x="53.42" y="73.28"/>
      <point x="145.45999999999998" y="-10.0"/>
    </contour>
  </outline>
</glyph>
<glyph name="seven" format="2">
  <advance width="610.212"/>
  <unicode hex="0037"/>
  <note>
9
</note>
  <outline>
    <contour>
      <point x="140.026" y="0.0" type="curve"/>
      <point x="248.174" y="0.0" type="line"/>
      <point x="270.062" y="124.80600000000001"/>
      <point x="316.02400000000006" y="219.154"/>
      <point x="433.56200000000007" y="396.522" type="curve" smooth="yes"/>
      <point x="586.578" y="627.13" type="line"/>
      <point x="598.436" y="700.0" type="line"/>
      <point x="123.618" y="700.0" type="line"/>
      <point x="109.26599999999999" y="607.846" type="line"/>
      <point x="465.65399999999994" y="607.846" type="line"/>
      <point x="327.16400000000004" y="407.87" type="line" smooth="yes"/>
      <point x="215.488" y="247.15400000000002"/>
      <point x="163.05" y="143.19"/>
    </contour>
  </outline>
</glyph>
<glyph name="eight" format="2">
  <advance width="611.3000000000001"/>
  <unicode hex="0038"/>
  <outline>
    <contour>
      <point x="279.08000000000004" y="-10.0" type="curve" smooth="yes"/>
      <point x="438.82" y="-10.0"/>
      <point x="552.14" y="60.279999999999994"/>
      <point x="552.14" y="205.46" type="curve" smooth="yes"/>
      <point x="552.14" y="431.84"/>
      <point x="207.7" y="364.56"/>
      <point x="207.7" y="527.54" type="curve" smooth="yes"/>
      <point x="207.7" y="590.8599999999999"/>
      <point x="265.14" y="626.5"/>
      <point x="353.46000000000004" y="626.5" type="curve" smooth="yes"/>
      <point x="443.05999999999995" y="626.5"/>
      <point x="476.4" y="587.12"/>
      <point x="476.4" y="532.7600000000001" type="curve" smooth="yes"/>
      <point x="476.4" y="460.72"/>
      <point x="432.73999999999995" y="419.64"/>
      <point x="362.7" y="383.4" type="curve"/>
      <point x="429.86" y="351.18" type="line"/>
      <point x="513.54" y="393.3"/>
      <point x="574.52" y="449.56"/>
      <point x="574.52" y="549.1" type="curve" smooth="yes"/>
      <point x="574.52" y="637.6800000000001"/>
      <point x="515.4" y="710.0"/>
      <point x="359.47999999999996" y="710.0" type="curve" smooth="yes"/>
      <point x="214.3" y="710.0"/>
      <point x="107.0" y="646.14"/>
      <point x="107.0" y="514.8" type="curve" smooth="yes"/>
      <point x="107.0" y="281.46"/>
      <point x="446.28000000000003" y="367.68"/>
      <point x="446.28000000000003" y="191.56" type="curve" smooth="yes"/>
      <point x="446.28000000000003" y="109.12"/>
      <point x="382.1" y="69.19999999999999"/>
      <point x="288.68" y="69.19999999999999" type="curve" smooth="yes"/>
      <point x="182.50000000000003" y="69.19999999999999"/>
      <point x="133.32" y="115.0"/>
      <point x="133.32" y="183.92" type="curve" smooth="yes"/>
      <point x="133.32" y="266.42"/>
      <point x="190.66" y="316.02"/>
      <point x="275.28" y="342.68" type="curve"/>
      <point x="205.4" y="380.06" type="line"/>
      <point x="103.0" y="351.12"/>
      <point x="29.18" y="270.12"/>
      <point x="29.18" y="169.46" type="curve" smooth="yes"/>
      <point x="29.18" y="64.88000000000001"/>
      <point x="104.0" y="-10.0"/>
    </contour>
  </outline>
</glyph>
<glyph name="nine" format="2">
  <advance width="611.3000000000001"/>
  <unicode hex="0039"/>
  <outline>
    <contour>
      <point x="331.68" y="710.0" type="curve" smooth="yes"/>
      <point x="188.96" y="710.0"/>
      <point x="72.58" y="624.18"/>
      <point x="72.58" y="454.66" type="curve" smooth="yes"/>
      <point x="72.58" y="330.67999999999995"/>
      <point x="150.45999999999998" y="262.78"/>
      <point x="276.6" y="262.78" type="curve" smooth="yes"/>
      <point x="351.28000000000003" y="262.78"/>
      <point x="431.78" y="286.03999999999996"/>
      <point x="487.48" y="344.28" type="curve"/>
      <point x="491.47999999999996" y="424.3" type="line"/>
      <point x="447.24" y="373.23999999999995"/>
      <point x="375.32" y="346.28"/>
      <point x="304.98" y="346.28" type="curve" smooth="yes"/>
      <point x="210.5" y="346.28"/>
      <point x="171.56" y="389.38"/>
      <point x="171.56" y="467.84" type="curve" smooth="yes"/>
      <point x="171.56" y="562.58"/>
      <point x="234.06" y="623.92"/>
      <point x="325.65999999999997" y="623.92" type="curve" smooth="yes"/>
      <point x="427.96" y="623.92"/>
      <point x="484.76000000000005" y="567.56"/>
      <point x="484.76000000000005" y="448.68" type="curve" smooth="yes"/>
      <point x="484.76000000000005" y="331.23999999999995"/>
      <point x="455.66" y="223.72"/>
      <point x="393.97999999999996" y="158.76" type="curve" smooth="yes"/>
      <point x="345.71999999999997" y="107.22"/>
      <point x="282.04" y="76.94"/>
      <point x="202.06" y="76.94" type="curve" smooth="yes"/>
      <point x="158.23999999999998" y="76.94"/>
      <point x="106.22" y="89.52"/>
      <point x="65.66" y="108.21999999999998" type="curve"/>
      <point x="29.86" y="27.58" type="line"/>
      <point x="70.56" y="6.16"/>
      <point x="133.74" y="-10.0"/>
      <point x="207.07999999999998" y="-10.0" type="curve" smooth="yes"/>
      <point x="440.71999999999997" y="-10.0"/>
      <point x="582.8800000000001" y="175.46000000000004"/>
      <point x="582.8800000000001" y="450.24" type="curve" smooth="yes"/>
      <point x="582.8800000000001" y="626.72"/>
      <point x="490.84000000000003" y="710.0"/>
    </contour>
  </outline>
</glyph>
<glyph name="less" format="2">
  <advance width="459.766"/>
  <unicode hex="003C"/>
  <outline>
    <contour>
      <point x="384.438" y="77.646" type="line"/>
      <point x="397.67199999999997" y="163.23" type="line"/>
      <point x="135.28" y="299.92199999999997" type="line"/>
      <point x="441.678" y="437.042" type="line"/>
      <point x="454.912" y="523.624" type="line"/>
      <point x="55.348" y="347.32399999999996" type="line"/>
      <point x="40.826" y="255.95200000000003" type="line"/>
    </contour>
  </outline>
</glyph>
<glyph name="equal" format="2">
  <advance width="450.164"/>
  <unicode hex="003D"/>
  <outline>
    <contour>
      <point x="394.21" y="235.528" type="line"/>
      <point x="43.910000000000004" y="235.528" type="line"/>
      <point x="30.418000000000003" y="148.04400000000004" type="line"/>
      <point x="380.718" y="148.04400000000004" type="line"/>
    </contour>
    <contour>
      <point x="427.5" y="453.94" type="line"/>
      <point x="77.28600000000002" y="453.94" type="line"/>
      <point x="63.70800000000001" y="366.456" type="line"/>
      <point x="414.008" y="366.456" type="line"/>
    </contour>
  </outline>
</glyph>
<glyph name="greater" format="2">
  <advance width="459.766"/>
  <unicode hex="003E"/>
  <outline>
    <contour>
      <point x="412.8" y="254.926" type="line"/>
      <point x="426.978" y="343.718" type="line"/>
      <point x="83.626" y="521.22" type="line"/>
      <point x="70.048" y="437.27" type="line"/>
      <point x="333.212" y="300.264" type="line"/>
      <point x="26.728" y="163.8" type="line"/>
      <point x="12.98" y="76.962" type="line"/>
    </contour>
  </outline>
</glyph>
<glyph name="question" format="2">
  <advance width="434.82000000000005"/>
  <unicode hex="003F"/>
  <outline>
    <contour>
      <point x="151.12" y="261.596" type="line"/>
      <point x="237.404" y="261.596" type="line"/>
      <point x="248.83200000000002" y="329.292" type="line"/>
      <point x="372.75600000000003" y="392.36400000000003"/>
      <point x="459.296" y="457.624"/>
      <point x="459.296" y="593.196" type="curve" smooth="yes"/>
      <point x="459.296" y="698.38"/>
      <point x="379.73199999999997" y="750.0"/>
      <point x="282.22" y="750.0" type="curve" smooth="yes"/>
      <point x="214.808" y="750.0"/>
      <point x="134.46" y="726.144"/>
      <point x="75.028" y="685.0" type="curve"/>
      <point x="93.72" y="602.056" type="line"/>
      <point x="148.048" y="635.264"/>
      <point x="202.46800000000002" y="654.0559999999999"/>
      <point x="257.204" y="654.0559999999999" type="curve" smooth="yes"/>
      <point x="309.032" y="654.0559999999999"/>
      <point x="353.84" y="636.492"/>
      <point x="353.84" y="570.132" type="curve" smooth="yes"/>
      <point x="353.84" y="488.028"/>
      <point x="309.528" y="435.256"/>
      <point x="167.472" y="379.276" type="curve"/>
    </contour>
    <contour>
      <point x="104.992" y="35.803999999999995" type="curve" smooth="yes"/>
      <point x="105.08" y="7.792"/>
      <point x="118.11600000000001" y="-4.3"/>
      <point x="153.084" y="-4.3" type="curve" smooth="yes"/>
      <point x="201.936" y="-4.3"/>
      <point x="222.912" y="25.939999999999998"/>
      <point x="222.64800000000002" y="73.992" type="curve" smooth="yes"/>
      <point x="222.55999999999997" y="102.66"/>
      <point x="208.668" y="114.668"/>
      <point x="174.64399999999998" y="114.668" type="curve" smooth="yes"/>
      <point x="125.788" y="114.668"/>
      <point x="104.72800000000001" y="83.912"/>
    </contour>
  </outline>
</glyph>
<glyph name="at" format="2">
  <advance width="749.58"/>
  <unicode hex="0040"/>
  <outline>
    <contour>
      <point x="307.3" y="-121.86" type="curve" smooth="yes"/>
      <point x="372.7" y="-121.86"/>
      <point x="444.42" y="-101.88"/>
      <point x="500.41999999999996" y="-63.78" type="curve"/>
      <point x="487.56" y="-23.68" type="line"/>
      <point x="432.98" y="-56.78"/>
      <point x="371.56" y="-73.9"/>
      <point x="311.15999999999997" y="-73.9" type="curve" smooth="yes"/>
      <point x="169.42000000000002" y="-73.9"/>
      <point x="79.38" y="8.94"/>
      <point x="79.38" y="172.4" type="curve" smooth="yes"/>
      <point x="79.38" y="430.66"/>
      <point x="230.5" y="670.88"/>
      <point x="450.24" y="670.88" type="curve" smooth="yes"/>
      <point x="600.6" y="670.88"/>
      <point x="684.76" y="595.14"/>
      <point x="684.76" y="439.82" type="curve" smooth="yes"/>
      <point x="684.76" y="296.12"/>
      <point x="628.42" y="121.82000000000001"/>
      <point x="553.8399999999999" y="121.82000000000001" type="curve" smooth="yes"/>
      <point x="508.41999999999996" y="121.82000000000001"/>
      <point x="508.53999999999996" y="176.04"/>
      <point x="521.4" y="230.60000000000002" type="curve" smooth="yes"/>
      <point x="586.26" y="515.6999999999999" type="line"/>
      <point x="537.24" y="535.7199999999999"/>
      <point x="486.4599999999999" y="546.74"/>
      <point x="439.12" y="546.74" type="curve" smooth="yes"/>
      <point x="283.29999999999995" y="546.74"/>
      <point x="177.88" y="351.71999999999997"/>
      <point x="177.88" y="187.46" type="curve" smooth="yes"/>
      <point x="177.88" y="105.7"/>
      <point x="218.76" y="64.68"/>
      <point x="289.22" y="64.68" type="curve" smooth="yes"/>
      <point x="350.24" y="64.68"/>
      <point x="409.65999999999997" y="98.8"/>
      <point x="448.38" y="156.32" type="curve"/>
      <point x="453.55999999999995" y="100.9"/>
      <point x="477.48" y="61.1"/>
      <point x="537.7800000000001" y="61.1" type="curve" smooth="yes"/>
      <point x="658.46" y="61.1"/>
      <point x="736.3000000000001" y="265.3"/>
      <point x="736.3000000000001" y="447.12" type="curve" smooth="yes"/>
      <point x="736.3000000000001" y="621.92"/>
      <point x="628.08" y="719.12"/>
      <point x="459.7" y="719.12" type="curve" smooth="yes"/>
      <point x="201.0" y="719.12"/>
      <point x="27.119999999999997" y="463.86"/>
      <point x="27.119999999999997" y="162.10000000000002" type="curve" smooth="yes"/>
      <point x="27.119999999999997" y="-17.1"/>
      <point x="131.62" y="-121.86"/>
    </contour>
    <contour>
      <point x="329.34" y="142.88" type="curve" smooth="yes"/>
      <point x="289.24" y="142.88"/>
      <point x="268.26" y="166.14000000000001"/>
      <point x="268.26" y="210.52" type="curve" smooth="yes"/>
      <point x="268.26" y="322.64000000000004"/>
      <point x="347.32" y="479.0"/>
      <point x="427.24" y="479.0" type="curve" smooth="yes"/>
      <point x="452.08" y="479.0"/>
      <point x="471.34" y="475.0"/>
      <point x="494.74" y="466.58000000000004" type="curve"/>
      <point x="442.9" y="241.56" type="line" smooth="yes"/>
      <point x="420.36" y="182.23999999999998"/>
      <point x="372.0" y="142.88"/>
    </contour>
  </outline>
</glyph>
<glyph name="A" format="2">
  <advance width="583.36"/>
  <unicode hex="0041"/>
  <anchor x="247.54" y="0.0" name="bottom"/>
  <anchor x="528.24" y="0.0" name="ogonek"/>
  <anchor x="356.68" y="700.0" name="top"/>
  <outline>
    <contour>
      <point x="-32.879999999999995" y="0.0" type="line"/>
      <point x="80.99999999999999" y="0.0" type="line"/>
      <point x="157.18" y="167.67999999999998" type="line"/>
      <point x="391.11999999999995" y="167.67999999999998" type="line"/>
      <point x="414.50000000000006" y="0.0" type="line"/>
      <point x="528.24" y="0.0" type="line"/>
      <point x="422.44" y="707.4200000000001" type="line"/>
      <point x="292.2" y="707.4200000000001" type="line"/>
    </contour>
    <contour>
      <point x="190.25999999999996" y="252.9" type="line"/>
      <point x="343.21999999999997" y="611.5200000000001" type="line"/>
      <point x="385.5400000000001" y="252.9" type="line"/>
    </contour>
  </outline>
</glyph>
<glyph name="B" format="2">
  <advance width="589.9300000000001"/>
  <unicode hex="0042"/>
  <outline>
    <contour>
      <point x="21.062000000000005" y="1.2379999999999998" type="line"/>
      <point x="130.308" y="-6.97"/>
      <point x="173.574" y="-10.0"/>
      <point x="253.89600000000004" y="-10.0" type="curve" smooth="yes"/>
      <point x="417.058" y="-10.0"/>
      <point x="552.558" y="75.93"/>
      <point x="552.558" y="237.976" type="curve" smooth="yes"/>
      <point x="552.558" y="310.76000000000005"/>
      <point x="511.38800000000003" y="359.278"/>
      <point x="453.54400000000004" y="373.464" type="curve"/>
      <point x="521.7379999999999" y="404.028"/>
      <point x="574.2080000000001" y="481.198"/>
      <point x="574.2080000000001" y="569.3000000000002" type="curve" smooth="yes"/>
      <point x="574.2080000000001" y="662.042"/>
      <point x="508.992" y="710.0"/>
      <point x="356.59400000000005" y="710.0" type="curve" smooth="yes"/>
      <point x="306.23" y="710.0"/>
      <point x="239.198" y="706.9420000000001"/>
      <point x="131.862" y="698.078" type="curve"/>
    </contour>
    <contour>
      <point x="188.072" y="394.768" type="line"/>
      <point x="222.938" y="618.1540000000001" type="line"/>
      <point x="268.27" y="621.808"/>
      <point x="302.058" y="624.8340000000001"/>
      <point x="344.10200000000003" y="624.8340000000001" type="curve" smooth="yes"/>
      <point x="431.81800000000004" y="624.8340000000001"/>
      <point x="470.356" y="602.624"/>
      <point x="470.356" y="540.8800000000001" type="curve" smooth="yes"/>
      <point x="470.356" y="459.75"/>
      <point x="405.4" y="394.768"/>
      <point x="344.366" y="394.768" type="curve" smooth="yes"/>
    </contour>
    <contour>
      <point x="175.096" y="317.0" type="line"/>
      <point x="337.2220000000001" y="317.0" type="line" smooth="yes"/>
      <point x="394.11199999999997" y="317.0"/>
      <point x="445.9240000000001" y="292.374"/>
      <point x="445.9240000000001" y="229.472" type="curve" smooth="yes"/>
      <point x="445.9240000000001" y="127.98599999999999"/>
      <point x="369.012" y="74.532"/>
      <point x="263.17400000000004" y="74.532" type="curve" smooth="yes"/>
      <point x="219.97000000000003" y="74.532"/>
      <point x="184.35999999999999" y="77.04199999999999"/>
      <point x="137.576" y="80.268" type="curve"/>
    </contour>
  </outline>
</glyph>
<glyph name="C" format="2">
  <advance width="568.108"/>
  <unicode hex="0043"/>
  <anchor x="305.4680000000001" y="0.0" name="bottom"/>
  <anchor x="405.516" y="700.0" name="top"/>
  <outline>
    <contour>
      <point x="327.864" y="-10.0" type="curve" smooth="yes"/>
      <point x="396.0040000000001" y="-10.0"/>
      <point x="453.89200000000005" y="-1.916"/>
      <point x="507.26800000000003" y="14.168000000000003" type="curve"/>
      <point x="499.63200000000006" y="99.96799999999999" type="line"/>
      <point x="454.0520000000001" y="88.37999999999998"/>
      <point x="403.268" y="80.38"/>
      <point x="347.03599999999994" y="80.38" type="curve" smooth="yes"/>
      <point x="221.64000000000001" y="80.38"/>
      <point x="151.98" y="129.076"/>
      <point x="151.98" y="248.968" type="curve" smooth="yes"/>
      <point x="151.98" y="461.18000000000006"/>
      <point x="247.88" y="619.62"/>
      <point x="404.956" y="619.62" type="curve" smooth="yes"/>
      <point x="461.34800000000007" y="619.62"/>
      <point x="514.3399999999999" y="610.9"/>
      <point x="565.46" y="595.704" type="curve"/>
      <point x="592.1840000000002" y="679.0640000000001" type="line"/>
      <point x="531.0800000000002" y="701.28"/>
      <point x="469.152" y="710.0"/>
      <point x="400.27200000000005" y="710.0" type="curve" smooth="yes"/>
      <point x="179.83999999999997" y="710.0"/>
      <point x="43.540000000000006" y="521.4599999999999"/>
      <point x="43.540000000000006" y="235.984" type="curve" smooth="yes"/>
      <point x="43.540000000000006" y="67.832"/>
      <point x="142.168" y="-10.0"/>
    </contour>
  </outline>
</glyph>
<glyph name="D" format="2">
  <advance width="636.924"/>
  <unicode hex="0044"/>
  <anchor x="259.1640000000001" y="0.0" name="bottom"/>
  <anchor x="322.192" y="350.0" name="center"/>
  <anchor x="347.984" y="700.0" name="top"/>
  <outline>
    <contour>
      <point x="239.07200000000003" y="-10.0" type="curve" smooth="yes"/>
      <point x="468.816" y="-10.0"/>
      <point x="613.3560000000001" y="152.37199999999999"/>
      <point x="613.3560000000001" y="432.47599999999994" type="curve" smooth="yes"/>
      <point x="613.3560000000001" y="625.088"/>
      <point x="501.396" y="710.0"/>
      <point x="324.9680000000001" y="710.0" type="curve" smooth="yes"/>
      <point x="262.20000000000005" y="710.0"/>
      <point x="202.524" y="707.1680000000001"/>
      <point x="131.60399999999998" y="701.4480000000001" type="curve"/>
      <point x="19.66" y="-0.5040000000000004" type="line"/>
      <point x="90.23199999999999" y="-6.42"/>
      <point x="148.404" y="-10.0"/>
    </contour>
    <contour>
      <point x="247.44799999999998" y="73.332" type="curve" smooth="yes"/>
      <point x="203.34799999999998" y="73.332"/>
      <point x="175.96800000000002" y="75.24799999999999"/>
      <point x="137.03599999999997" y="77.52799999999999" type="curve"/>
      <point x="223.368" y="619.7800000000001" type="line"/>
      <point x="248.45999999999998" y="621.92"/>
      <point x="288.14799999999997" y="623.92"/>
      <point x="326.68800000000005" y="623.92" type="curve" smooth="yes"/>
      <point x="426.33599999999996" y="623.92"/>
      <point x="507.44" y="567.592"/>
      <point x="507.44" y="429.61600000000004" type="curve" smooth="yes"/>
      <point x="507.44" y="198.968"/>
      <point x="400.944" y="73.332"/>
    </contour>
  </outline>
</glyph>
<glyph name="E" format="2">
  <advance width="536.3359999999999"/>
  <unicode hex="0045"/>
  <anchor x="243.928" y="0.0" name="bottom"/>
  <anchor x="464.8879999999999" y="0.0" name="ogonek"/>
  <anchor x="345.9" y="700.0" name="top"/>
  <anchor x="92.81199999999998" y="700.0" name="topleft"/>
  <outline>
    <contour>
      <point x="19.743999999999996" y="0.0" type="line"/>
      <point x="464.8879999999999" y="0.0" type="line"/>
      <point x="479.928" y="91.24" type="line"/>
      <point x="138.064" y="91.24" type="line"/>
      <point x="172.368" y="313.84000000000003" type="line"/>
      <point x="475.568" y="313.84000000000003" type="line"/>
      <point x="491.468" y="405.08" type="line"/>
      <point x="187.352" y="405.08" type="line"/>
      <point x="220.62" y="608.76" type="line"/>
      <point x="545.596" y="608.76" type="line"/>
      <point x="560.72" y="700.0" type="line"/>
      <point x="130.66000000000003" y="700.0" type="line"/>
    </contour>
  </outline>
</glyph>
<glyph name="F" format="2">
  <advance width="509.84999999999997"/>
  <unicode hex="0046"/>
  <outline>
    <contour>
      <point x="20.174" y="0.0" type="line"/>
      <point x="123.886" y="0.0" type="line"/>
      <point x="168.228" y="273.808" type="line"/>
      <point x="446.86000000000007" y="273.808" type="line"/>
      <point x="461.24199999999996" y="366.42400000000004" type="line"/>
      <point x="182.696" y="366.42400000000004" type="line"/>
      <point x="220.448" y="607.384" type="line"/>
      <point x="543.1859999999999" y="607.384" type="line"/>
      <point x="558.57" y="700.0" type="line"/>
      <point x="131.52" y="700.0" type="line"/>
    </contour>
  </outline>
</glyph>
<glyph name="G" format="2">
  <advance width="596.4300000000001"/>
  <unicode hex="0047"/>
  <anchor x="297.81" y="0.0" name="bottom"/>
  <anchor x="404.72799999999995" y="700.0" name="top"/>
  <outline>
    <contour>
      <point x="308.06800000000004" y="-10.0" type="curve" smooth="yes"/>
      <point x="393.096" y="-10.0"/>
      <point x="464.332" y="6.238"/>
      <point x="511.388" y="28.546" type="curve"/>
      <point x="565.6060000000001" y="367.076" type="line"/>
      <point x="330.60200000000003" y="367.076" type="line"/>
      <point x="318.056" y="288.22" type="line"/>
      <point x="460.272" y="288.22" type="line"/>
      <point x="428.85600000000005" y="91.25" type="line"/>
      <point x="403.29" y="80.578"/>
      <point x="364.276" y="73.414"/>
      <point x="319.208" y="73.414" type="curve" smooth="yes"/>
      <point x="214.44" y="73.414"/>
      <point x="145.47400000000002" y="122.38400000000001"/>
      <point x="145.47400000000002" y="241.57199999999997" type="curve" smooth="yes"/>
      <point x="145.47400000000002" y="456.442"/>
      <point x="245.60600000000002" y="621.3399999999999"/>
      <point x="406.366" y="621.3399999999999" type="curve" smooth="yes"/>
      <point x="466.52000000000004" y="621.3399999999999"/>
      <point x="512.932" y="612.018"/>
      <point x="565.402" y="597.5400000000001" type="curve"/>
      <point x="597.028" y="681.102" type="line"/>
      <point x="539.528" y="700.6300000000001"/>
      <point x="474.788" y="710.0"/>
      <point x="404.434" y="710.0" type="curve" smooth="yes"/>
      <point x="168.02200000000002" y="710.0"/>
      <point x="41.50600000000001" y="498.374"/>
      <point x="41.50600000000001" y="233.64" type="curve" smooth="yes"/>
      <point x="41.50600000000001" y="70.11"/>
      <point x="145.546" y="-10.0"/>
    </contour>
  </outline>
</glyph>
<glyph name="H" format="2">
  <advance width="643.794"/>
  <unicode hex="0048"/>
  <anchor x="278.474152" y="0.0" name="bottom"/>
  <anchor x="334.102382" y="350.0" name="center"/>
  <anchor x="389.38795400000004" y="700.0" name="top"/>
  <anchor x="86.52195400000001" y="700.0" name="topleft"/>
  <outline>
    <contour>
      <point x="20.002" y="0.0" type="line"/>
      <point x="124.57000000000001" y="0.0" type="line"/>
      <point x="166.442" y="265.54400000000004" type="line"/>
      <point x="474.98400000000004" y="265.54400000000004" type="line"/>
      <point x="433.02600000000007" y="0.0" type="line"/>
      <point x="535.446" y="0.0" type="line"/>
      <point x="647.134" y="700.0" type="line"/>
      <point x="544.6279999999999" y="700.0" type="line"/>
      <point x="489.5080000000001" y="356.096" type="line"/>
      <point x="180.624" y="356.096" type="line"/>
      <point x="235.916" y="700.0" type="line"/>
      <point x="131.348" y="700.0" type="line"/>
    </contour>
  </outline>
</glyph>
<glyph name="I" format="2">
  <advance width="232.57600000000005"/>
  <unicode hex="0049"/>
  <anchor x="72.61778400000001" y="0.0" name="bottom"/>
  <anchor x="125.00922400000002" y="2.5799999999999996" name="ogonek"/>
  <anchor x="183.55411800000002" y="700.0" name="top"/>
  <anchor x="93.236754" y="700.0" name="topleft"/>
  <outline>
    <contour>
      <point x="20.002" y="0.0" type="line"/>
      <point x="124.22800000000001" y="0.0" type="line"/>
      <point x="235.916" y="700.0" type="line"/>
      <point x="131.348" y="700.0" type="line"/>
    </contour>
  </outline>
</glyph>
<glyph name="J" format="2">
  <advance width="456.296"/>
  <unicode hex="004A"/>
  <anchor x="166.632552" y="0.0" name="bottom"/>
  <anchor x="295.324" y="700.0" name="top"/>
  <outline>
    <contour>
      <point x="-27.636" y="21.05" type="line"/>
      <point x="21.560000000000002" y="3.66"/>
      <point x="77.016" y="-10.0"/>
      <point x="149.978" y="-10.0" type="curve" smooth="yes"/>
      <point x="286.72400000000005" y="-10.0"/>
      <point x="364.314" y="61.454"/>
      <point x="387.526" y="202.57799999999997" type="curve" smooth="yes"/>
      <point x="467.11400000000003" y="700.0" type="line"/>
      <point x="120.354" y="700.0" type="line"/>
      <point x="105.744" y="610.394" type="line"/>
      <point x="348.278" y="610.394" type="line"/>
      <point x="286.944" y="226.062" type="line" smooth="yes"/>
      <point x="270.32200000000006" y="121.332"/>
      <point x="216.16000000000003" y="84.766"/>
      <point x="137.24200000000002" y="84.766" type="curve" smooth="yes"/>
      <point x="85.66000000000001" y="84.766"/>
      <point x="43.534000000000006" y="96.674"/>
      <point x="0.49800000000000066" y="109.678" type="curve"/>
    </contour>
  </outline>
</glyph>
<glyph name="K" format="2">
  <advance width="588.384"/>
  <unicode hex="004B"/>
  <anchor x="266.96" y="0.0" name="bottom"/>
  <anchor x="359.53999999999996" y="700.0" name="top"/>
  <outline>
    <contour>
      <point x="19.316" y="0.0" type="line"/>
      <point x="124.62800000000001" y="0.0" type="line"/>
      <point x="235.316" y="700.0" type="line"/>
      <point x="131.864" y="700.0" type="line"/>
    </contour>
    <contour>
      <point x="504.8639999999999" y="-9.516" type="curve" smooth="yes"/>
      <point x="514.368" y="-9.516"/>
      <point x="532.58" y="-7.108"/>
      <point x="539.128" y="-4.248" type="curve"/>
      <point x="550.028" y="98.376" type="line"/>
      <point x="545.136" y="98.892"/>
      <point x="540.5880000000001" y="97.892"/>
      <point x="535.556" y="97.892" type="curve" smooth="yes"/>
      <point x="500.38399999999996" y="97.892"/>
      <point x="470.3" y="113.516"/>
      <point x="420.256" y="173.164" type="curve" smooth="yes"/>
      <point x="180.736" y="459.62800000000004" type="line"/>
      <point x="158.988" y="335.276" type="line"/>
      <point x="370.46799999999996" y="73.036" type="line" smooth="yes"/>
      <point x="420.38399999999996" y="12.72"/>
      <point x="455.392" y="-9.516"/>
    </contour>
    <contour>
      <point x="283.06399999999996" y="292.144" type="line"/>
      <point x="393.54400000000004" y="365.636"/>
      <point x="545.088" y="501.96000000000004"/>
      <point x="624.1039999999999" y="666.052" type="curve"/>
      <point x="548.592" y="709.1400000000001" type="line"/>
      <point x="457.69599999999997" y="548.692"/>
      <point x="325.472" y="422.808"/>
      <point x="230.688" y="359.916" type="curve"/>
    </contour>
  </outline>
</glyph>
<glyph name="L" format="2">
  <advance width="488.67800000000005"/>
  <unicode hex="004C"/>
  <anchor x="228.458" y="0.0" name="bottom"/>
  <anchor x="252.440382" y="350.0" name="center"/>
  <anchor x="183.17600000000002" y="700.0" name="top"/>
  <anchor x="380.592" y="700.0" name="topright"/>
  <outline>
    <contour>
      <point x="19.659999999999997" y="0.0" type="line"/>
      <point x="429.978" y="0.0" type="line"/>
      <point x="445.01800000000003" y="90.294" type="line"/>
      <point x="138.582" y="90.294" type="line"/>
      <point x="235.57399999999998" y="700.0" type="line"/>
      <point x="131.348" y="700.0" type="line"/>
    </contour>
  </outline>
</glyph>
<glyph name="M" format="2">
  <advance width="723.422"/>
  <unicode hex="004D"/>
  <outline>
    <contour>
      <point x="19.401999999999997" y="0.0" type="line"/>
      <point x="116.888" y="0.0" type="line"/>
      <point x="200.85" y="545.1279999999999" type="line"/>
      <point x="325.49800000000005" y="210.158" type="line"/>
      <point x="374.64" y="210.158" type="line"/>
      <point x="607.3240000000001" y="545.644" type="line"/>
      <point x="518.674" y="0.0" type="line"/>
      <point x="615.0740000000001" y="0.0" type="line"/>
      <point x="726.7620000000001" y="700.0" type="line"/>
      <point x="614.6659999999999" y="700.0" type="line"/>
      <point x="369.35" y="341.17400000000004" type="line"/>
      <point x="235.338" y="700.0" type="line"/>
      <point x="131.348" y="700.0" type="line"/>
    </contour>
  </outline>
</glyph>
<glyph name="N" format="2">
  <advance width="634.91"/>
  <unicode hex="004E"/>
  <anchor x="276.03000000000003" y="0.0" name="bottom"/>
  <anchor x="385.74" y="700.0" name="top"/>
  <outline>
    <contour>
      <point x="20.229999999999997" y="0.0" type="line"/>
      <point x="114.19" y="0.0" type="line"/>
      <point x="197.69" y="525.8" type="line"/>
      <point x="429.7" y="-2.2800000000000002" type="line"/>
      <point x="526.3900000000001" y="-2.2800000000000002" type="line"/>
      <point x="638.2500000000001" y="700.0" type="line"/>
      <point x="544.43" y="700.0" type="line"/>
      <point x="459.21000000000004" y="164.88" type="line"/>
      <point x="229.92000000000002" y="702.28" type="line"/>
      <point x="132.09" y="702.28" type="line"/>
    </contour>
  </outline>
</glyph>
<glyph name="O" format="2">
  <advance width="654.0799999999999"/>
  <unicode hex="004F"/>
  <note>
8
</note>
  <anchor x="286.59999999999997" y="0.0" name="bottom"/>
  <anchor x="342.6" y="350.0" name="center"/>
  <anchor x="361.66" y="0.86" name="ogonek"/>
  <anchor x="392.59999999999997" y="700.0" name="top"/>
  <anchor x="91.7" y="700.0" name="topleft"/>
  <anchor x="517.9399999999999" y="687.02" name="topright"/>
  <outline>
    <contour>
      <point x="301.62" y="-7.42" type="curve" smooth="yes"/>
      <point x="515.5600000000001" y="-7.42"/>
      <point x="628.26" y="176.92"/>
      <point x="628.26" y="419.82000000000005" type="curve" smooth="yes"/>
      <point x="628.26" y="607.7"/>
      <point x="538.8" y="707.42"/>
      <point x="376.46000000000004" y="707.42" type="curve" smooth="yes"/>
      <point x="162.52" y="707.42"/>
      <point x="49.82" y="523.08"/>
      <point x="49.82" y="280.18" type="curve" smooth="yes"/>
      <point x="49.82" y="92.30000000000001"/>
      <point x="139.28" y="-7.42"/>
    </contour>
    <contour>
      <point x="310.08000000000004" y="81.1" type="curve" smooth="yes"/>
      <point x="216.92" y="81.1"/>
      <point x="156.54" y="136.82"/>
      <point x="156.54" y="274.58" type="curve" smooth="yes"/>
      <point x="156.54" y="452.46000000000004"/>
      <point x="221.23999999999998" y="618.9"/>
      <point x="368.86" y="618.9" type="curve" smooth="yes"/>
      <point x="461.15999999999997" y="618.9"/>
      <point x="521.54" y="563.1800000000001"/>
      <point x="521.54" y="425.41999999999996" type="curve" smooth="yes"/>
      <point x="521.54" y="247.54"/>
      <point x="456.84000000000003" y="81.1"/>
    </contour>
  </outline>
</glyph>
<glyph name="P" format="2">
  <advance width="594.1899999999999"/>
  <unicode hex="0050"/>
  <outline>
    <contour>
      <point x="20.229999999999997" y="0.0" type="line"/>
      <point x="123.94" y="0.0" type="line"/>
      <point x="160.63" y="227.12" type="line"/>
      <point x="215.48" y="224.26"/>
      <point x="242.59" y="223.69"/>
      <point x="295.09999999999997" y="223.69" type="curve" smooth="yes"/>
      <point x="499.19000000000005" y="223.69"/>
      <point x="599.5" y="322.3"/>
      <point x="600.07" y="511.94" type="curve" smooth="yes"/>
      <point x="600.07" y="645.6999999999999"/>
      <point x="524.6199999999999" y="710.0"/>
      <point x="340.27000000000004" y="710.0" type="curve" smooth="yes"/>
      <point x="302.23999999999995" y="710.0"/>
      <point x="240.43" y="707.57"/>
      <point x="132.09" y="701.5699999999999" type="curve"/>
    </contour>
    <contour>
      <point x="222.91000000000003" y="619.21" type="line"/>
      <point x="279.31" y="622.35"/>
      <point x="303.84000000000003" y="623.92"/>
      <point x="336.84000000000003" y="623.92" type="curve" smooth="yes"/>
      <point x="452.13" y="623.92"/>
      <point x="494.64000000000004" y="584.6700000000001"/>
      <point x="494.64000000000004" y="495.90000000000003" type="curve" smooth="yes"/>
      <point x="494.64000000000004" y="383.31"/>
      <point x="434.99" y="310.20000000000005"/>
      <point x="292.08" y="310.20000000000005" type="curve" smooth="yes"/>
      <point x="254.28" y="310.20000000000005"/>
      <point x="224.33" y="311.77000000000004"/>
      <point x="174.38" y="313.77000000000004" type="curve"/>
    </contour>
  </outline>
</glyph>
<glyph name="Q" format="2">
  <advance width="654.9540000000001"/>
  <unicode hex="0051"/>
  <note>
14
</note>
  <outline>
    <contour>
      <point x="458.334" y="-189.722" type="curve" smooth="yes"/>
      <point x="489.49800000000005" y="-189.722"/>
      <point x="518.6700000000001" y="-184.012"/>
      <point x="546.6179999999999" y="-172.42" type="curve"/>
      <point x="548.586" y="-88.94200000000001" type="line"/>
      <point x="528.58" y="-98.32799999999999"/>
      <point x="507.17" y="-102.60799999999999"/>
      <point x="484.07399999999996" y="-102.60799999999999" type="curve" smooth="yes"/>
      <point x="426.096" y="-102.60799999999999"/>
      <point x="376.708" y="-68.11399999999999"/>
      <point x="364.456" y="12.362" type="curve"/>
      <point x="273.244" y="4.6819999999999995" type="line"/>
      <point x="291.04400000000004" y="-137.096"/>
      <point x="370.5640000000001" y="-189.722"/>
    </contour>
    <component base="O"/>
  </outline>
</glyph>
<glyph name="R" format="2">
  <advance width="614.46"/>
  <unicode hex="0052"/>
  <anchor x="283.52" y="0.0" name="bottom"/>
  <anchor x="341.65999999999997" y="700.0" name="top"/>
  <outline>
    <contour>
      <point x="19.799999999999997" y="0.0" type="line"/>
      <point x="124.80000000000001" y="0.0" type="line"/>
      <point x="166.92" y="262.42" type="line"/>
      <point x="216.6" y="261.28"/>
      <point x="264.14000000000004" y="261.14"/>
      <point x="322.08000000000004" y="260.28" type="curve"/>
      <point x="340.56000000000006" y="268.02" type="line"/>
      <point x="495.74" y="269.02"/>
      <point x="596.22" y="357.9"/>
      <point x="596.22" y="515.5" type="curve" smooth="yes"/>
      <point x="596.22" y="640.0799999999999"/>
      <point x="529.8800000000001" y="710.0"/>
      <point x="345.26" y="710.0" type="curve" smooth="yes"/>
      <point x="283.4" y="710.0"/>
      <point x="220.18" y="707.14"/>
      <point x="131.66" y="701.28" type="curve"/>
    </contour>
    <contour>
      <point x="533.78" y="-10.0" type="curve" smooth="yes"/>
      <point x="542.36" y="-10.0"/>
      <point x="560.26" y="-7.14"/>
      <point x="566.8399999999999" y="-4.42" type="curve"/>
      <point x="576.74" y="92.69999999999999" type="line"/>
      <point x="571.74" y="91.55999999999999"/>
      <point x="565.88" y="91.55999999999999"/>
      <point x="562.16" y="91.55999999999999" type="curve" smooth="yes"/>
      <point x="515.1600000000001" y="91.69999999999999"/>
      <point x="454.73999999999995" y="145.22"/>
      <point x="393.79999999999995" y="303.52" type="curve"/>
      <point x="290.52" y="279.88" type="line"/>
      <point x="380.26000000000005" y="56.4"/>
      <point x="450.14" y="-10.0"/>
    </contour>
    <contour>
      <point x="317.9" y="344.64" type="curve" smooth="yes"/>
      <point x="258.0" y="344.64"/>
      <point x="218.76" y="345.5"/>
      <point x="180.38" y="348.5" type="curve"/>
      <point x="223.48000000000002" y="621.5" type="line"/>
      <point x="275.32" y="624.64"/>
      <point x="294.72" y="625.78"/>
      <point x="341.54" y="625.78" type="curve" smooth="yes"/>
      <point x="455.1" y="625.78"/>
      <point x="486.92" y="585.5"/>
      <point x="486.92" y="508.90000000000003" type="curve" smooth="yes"/>
      <point x="486.92" y="398.56"/>
      <point x="425.82" y="344.64"/>
    </contour>
  </outline>
</glyph>
<glyph name="S" format="2">
  <advance width="551.18"/>
  <unicode hex="0053"/>
  <anchor x="237.99999999999997" y="0.0" name="bottom"/>
  <anchor x="348.65999999999997" y="700.0" name="top"/>
  <outline>
    <contour>
      <point x="549.36" y="677.6999999999999" type="line"/>
      <point x="486.47999999999996" y="698.42"/>
      <point x="425.41999999999996" y="710.0"/>
      <point x="357.24" y="710.0" type="curve" smooth="yes"/>
      <point x="175.14" y="710.0"/>
      <point x="75.08" y="630.3999999999999"/>
      <point x="75.08" y="507.92" type="curve" smooth="yes"/>
      <point x="75.08" y="285.46000000000004"/>
      <point x="400.8" y="330.74"/>
      <point x="400.66" y="183.48000000000002" type="curve" smooth="yes"/>
      <point x="400.66" y="120.44000000000001"/>
      <point x="346.14000000000004" y="77.94"/>
      <point x="242.7" y="77.94" type="curve" smooth="yes"/>
      <point x="166.09999999999997" y="77.94"/>
      <point x="87.24" y="92.80000000000001"/>
      <point x="18.619999999999997" y="118.24" type="curve"/>
      <point x="-15.459999999999997" y="32.160000000000004" type="line"/>
      <point x="53.7" y="4.72"/>
      <point x="139.88000000000002" y="-10.0"/>
      <point x="227.51999999999998" y="-10.0" type="curve" smooth="yes"/>
      <point x="415.32" y="-10.0"/>
      <point x="508.38" y="71.46000000000001"/>
      <point x="508.38" y="195.8" type="curve" smooth="yes"/>
      <point x="509.38" y="408.38"/>
      <point x="182.66000000000003" y="373.7"/>
      <point x="182.66000000000003" y="514.36" type="curve" smooth="yes"/>
      <point x="182.66000000000003" y="577.26"/>
      <point x="244.01999999999998" y="619.7599999999999"/>
      <point x="342.2" y="619.7599999999999" type="curve" smooth="yes"/>
      <point x="406.66" y="619.7599999999999"/>
      <point x="462.97999999999996" y="609.9"/>
      <point x="515.42" y="590.04" type="curve"/>
    </contour>
  </outline>
</glyph>
<glyph name="T" format="2">
  <advance width="517.9639999999999"/>
  <unicode hex="0054"/>
  <anchor x="215.096552" y="0.0" name="bottom"/>
  <anchor x="270.92319399999997" y="350.0" name="center"/>
  <anchor x="326.134118" y="700.0" name="top"/>
  <outline>
    <contour>
      <point x="560.628" y="613.834" type="line"/>
      <point x="575.4960000000001" y="700.0" type="line"/>
      <point x="77.93" y="700.0" type="line"/>
      <point x="62.89" y="613.834" type="line"/>
      <point x="259.89000000000004" y="613.834" type="line"/>
      <point x="162.64" y="0.0" type="line"/>
      <point x="266.866" y="0.0" type="line"/>
      <point x="363.94399999999996" y="613.834" type="line"/>
    </contour>
  </outline>
</glyph>
<glyph name="U" format="2">
  <advance width="627.748"/>
  <unicode hex="0055"/>
  <anchor x="270.26492" y="0.0" name="bottom"/>
  <anchor x="337.524" y="0.0" name="ogonek"/>
  <anchor x="379.61259" y="700.0" name="top"/>
  <anchor x="630.482" y="700.0" name="topright"/>
  <outline>
    <contour>
      <point x="267.042" y="-10.0" type="curve" smooth="yes"/>
      <point x="441.796" y="-10.0"/>
      <point x="536.252" y="61.53"/>
      <point x="560.832" y="213.66400000000002" type="curve" smooth="yes"/>
      <point x="638.566" y="700.0" type="line"/>
      <point x="535.202" y="700.0" type="line"/>
      <point x="456.81" y="209.364" type="line" smooth="yes"/>
      <point x="443.172" y="121.51000000000002"/>
      <point x="385.414" y="77.628"/>
      <point x="282.93800000000005" y="77.628" type="curve" smooth="yes"/>
      <point x="184.594" y="77.628"/>
      <point x="135.17000000000002" y="122.53999999999999"/>
      <point x="148.326" y="203.20800000000003" type="curve" smooth="yes"/>
      <point x="227.206" y="700.0" type="line"/>
      <point x="124.18400000000001" y="700.0" type="line"/>
      <point x="45.99400000000001" y="207.394" type="line" smooth="yes"/>
      <point x="42.42" y="184.03399999999996"/>
      <point x="41.504000000000005" y="172.50400000000002"/>
      <point x="41.504000000000005" y="157.44400000000002" type="curve" smooth="yes"/>
      <point x="41.504000000000005" y="47.00600000000001"/>
      <point x="118.77599999999998" y="-10.0"/>
    </contour>
  </outline>
</glyph>
<glyph name="V" format="2">
  <advance width="560.362"/>
  <unicode hex="0056"/>
  <outline>
    <contour>
      <point x="290.72200000000004" y="0.0" type="line"/>
      <point x="541.44" y="443.522"/>
      <point x="595.04" y="561.0"/>
      <point x="606.65" y="671.8699999999999" type="curve" smooth="yes"/>
      <point x="607.08" y="681.7520000000001"/>
      <point x="606.94" y="690.462"/>
      <point x="605.832" y="700.0" type="curve"/>
      <point x="496.67199999999997" y="700.0" type="line"/>
      <point x="497.64" y="691.44"/>
      <point x="498.8119999999999" y="683.7620000000001"/>
      <point x="498.8119999999999" y="675.59" type="curve" smooth="yes"/>
      <point x="498.812" y="578.33"/>
      <point x="434.226" y="458.016"/>
      <point x="249.634" y="101.67999999999999" type="curve"/>
      <point x="182.57999999999998" y="702.452" type="line"/>
      <point x="70.27" y="700.57" type="line"/>
      <point x="169.392" y="0.0" type="line"/>
    </contour>
  </outline>
</glyph>
<glyph name="W" format="2">
  <advance width="815.64"/>
  <unicode hex="0057"/>
  <anchor x="358.46" y="0.0" name="bottom"/>
  <anchor x="476.32" y="700.0" name="top"/>
  <outline>
    <contour>
      <point x="600.9" y="-0.14" type="line"/>
      <point x="806.06" y="447.65999999999997"/>
      <point x="858.94" y="594.36"/>
      <point x="860.66" y="676.3000000000001" type="curve" smooth="yes"/>
      <point x="860.66" y="684.5799999999999"/>
      <point x="860.52" y="692.58"/>
      <point x="859.38" y="700.0" type="curve"/>
      <point x="754.2400000000001" y="700.0" type="line"/>
      <point x="755.38" y="691.86"/>
      <point x="755.6600000000001" y="684.86"/>
      <point x="755.6600000000001" y="675.58" type="curve" smooth="yes"/>
      <point x="750.5" y="575.0"/>
      <point x="713.9399999999999" y="479.28"/>
      <point x="553.1800000000001" y="111.53999999999999" type="curve"/>
      <point x="526.2" y="646.74" type="line"/>
      <point x="408.46000000000004" y="646.74" type="line"/>
      <point x="347.26" y="471.1"/>
      <point x="279.9" y="283.3"/>
      <point x="211.82" y="121.28" type="curve"/>
      <point x="181.14" y="700.0" type="line"/>
      <point x="71.7" y="700.0" type="line"/>
      <point x="124.58000000000001" y="-0.14" type="line"/>
      <point x="246.64000000000001" y="-0.14" type="line"/>
      <point x="318.44" y="173.76"/>
      <point x="387.66" y="347.38"/>
      <point x="446.56" y="508.38" type="curve"/>
      <point x="477.84000000000003" y="-0.14" type="line"/>
    </contour>
  </outline>
</glyph>
<glyph name="X" format="2">
  <advance width="568.58"/>
  <unicode hex="0058"/>
  <outline>
    <contour>
      <point x="410.1" y="-3.56" type="line"/>
      <point x="526.72" y="1.0" type="line"/>
      <point x="353.21999999999997" y="352.26" type="line"/>
      <point x="480.42" y="474.96"/>
      <point x="575.5999999999999" y="583.74"/>
      <point x="600.4799999999999" y="700.28" type="curve"/>
      <point x="482.86" y="702.42" type="line"/>
      <point x="471.8999999999999" y="612.68"/>
      <point x="410.2" y="520.32"/>
      <point x="317.7" y="428.46" type="curve"/>
      <point x="195.32" y="704.42" type="line"/>
      <point x="79.56" y="699.72" type="line"/>
      <point x="239.06" y="369.29999999999995" type="line"/>
      <point x="118.9" y="255.6"/>
      <point x="-6.399999999999999" y="109.83999999999999"/>
      <point x="-9.339999999999998" y="0.0" type="curve"/>
      <point x="108.55999999999999" y="0.0" type="line"/>
      <point x="111.5" y="90.82000000000002"/>
      <point x="188.95999999999998" y="197.04000000000002"/>
      <point x="278.15999999999997" y="289.65999999999997" type="curve"/>
    </contour>
  </outline>
</glyph>
<glyph name="Y" format="2">
  <advance width="536.328"/>
  <unicode hex="0059"/>
  <anchor x="222.54" y="0.0" name="bottom"/>
  <anchor x="338.11" y="700.0" name="top"/>
  <anchor x="86.08599999999998" y="700.0" name="topleft"/>
  <outline>
    <contour>
      <point x="175.992" y="0.0" type="line"/>
      <point x="278.58400000000006" y="0.0" type="line"/>
      <point x="323.134" y="268.666" type="line"/>
      <point x="479.078" y="435.496"/>
      <point x="545.606" y="539.538"/>
      <point x="583.422" y="663.418" type="curve" smooth="yes"/>
      <point x="586.734" y="675.44"/>
      <point x="591.562" y="688.72"/>
      <point x="595.4760000000001" y="701.7420000000001" type="curve"/>
      <point x="479.9839999999999" y="704.3340000000001" type="line"/>
      <point x="476.93" y="691.6560000000001"/>
      <point x="473.962" y="679.72"/>
      <point x="471.252" y="667.042" type="curve" smooth="yes"/>
      <point x="443.52000000000004" y="561.7080000000001"/>
      <point x="399.85" y="475.44800000000004"/>
      <point x="283.196" y="351.596" type="curve"/>
      <point x="183.686" y="703.2479999999999" type="line"/>
      <point x="68.044" y="699.4300000000001" type="line"/>
      <point x="219.71399999999997" y="268.666" type="line"/>
    </contour>
  </outline>
</glyph>
<glyph name="Z" format="2">
  <advance width="537.1800000000001"/>
  <unicode hex="005A"/>
  <anchor x="227.07999999999998" y="0.0" name="bottom"/>
  <anchor x="278.38000000000005" y="350.0" name="center"/>
  <anchor x="332.94" y="700.0" name="top"/>
  <outline>
    <contour>
      <point x="-21.72" y="0.0" type="line"/>
      <point x="475.02" y="0.0" type="line"/>
      <point x="489.2" y="86.93999999999998" type="line"/>
      <point x="113.06" y="86.93999999999998" type="line"/>
      <point x="554.58" y="616.2" type="line"/>
      <point x="567.7600000000001" y="700.0" type="line"/>
      <point x="110.12" y="700.0" type="line"/>
      <point x="95.94" y="613.06" type="line"/>
      <point x="432.26" y="613.06" type="line"/>
      <point x="-8.399999999999999" y="82.08" type="line"/>
    </contour>
  </outline>
</glyph>
<glyph name="bracketleft" format="2">
  <advance width="307.946"/>
  <unicode hex="005B"/>
  <outline>
    <contour>
      <point x="89.924" y="-134.38" type="line"/>
      <point x="217.55200000000002" y="664.608" type="line"/>
      <point x="353.192" y="664.608" type="line"/>
      <point x="365.65200000000004" y="740.0" type="line"/>
      <point x="148.922" y="740.0" type="line"/>
      <point x="-3.1120000000000037" y="-210.0" type="line"/>
      <point x="212.846" y="-210.0" type="line"/>
      <point x="225.56400000000002" y="-134.38" type="line"/>
    </contour>
  </outline>
</glyph>
<glyph name="backslash" format="2">
  <advance width="369.832"/>
  <unicode hex="005C"/>
  <outline>
    <contour>
      <point x="158.722" y="740.0" type="line"/>
      <point x="79.37799999999999" y="740.0" type="line"/>
      <point x="243.766" y="-210.0" type="line"/>
      <point x="322.85200000000003" y="-210.0" type="line"/>
    </contour>
  </outline>
</glyph>
<glyph name="bracketright" format="2">
  <advance width="307.946"/>
  <unicode hex="005D"/>
  <outline>
    <contour>
      <point x="-47.675999999999995" y="-134.38" type="line"/>
      <point x="-59.964000000000006" y="-210.0" type="line"/>
      <point x="155.42399999999998" y="-210.0" type="line"/>
      <point x="308.22999999999996" y="740.0" type="line"/>
      <point x="91.842" y="740.0" type="line"/>
      <point x="79.124" y="664.38" type="line"/>
      <point x="214.764" y="664.38" type="line"/>
      <point x="86.878" y="-134.38" type="line"/>
    </contour>
  </outline>
</glyph>
<glyph name="asciicircum" format="2">
  <advance width="459.486"/>
  <unicode hex="005E"/>
  <outline>
    <contour>
      <point x="42.108" y="255.52599999999998" type="line"/>
      <point x="119.958" y="255.52599999999998" type="line"/>
      <point x="280.668" y="603.5519999999999" type="line"/>
      <point x="334.218" y="255.52599999999998" type="line"/>
      <point x="411.354" y="255.52599999999998" type="line"/>
      <point x="340.654" y="705.7" type="line"/>
      <point x="252.22400000000002" y="705.7" type="line"/>
    </contour>
  </outline>
</glyph>
<glyph name="underscore" format="2">
  <advance width="728.5360000000001"/>
  <unicode hex="005F"/>
  <outline>
    <contour>
      <point x="-61.47599999999999" y="-167.56199999999998" type="line"/>
      <point x="649.176" y="-167.56199999999998" type="line"/>
      <point x="663.012" y="-84.378" type="line"/>
      <point x="-47.64" y="-84.378" type="line"/>
    </contour>
  </outline>
</glyph>
<glyph name="a" format="2">
  <advance width="524.648"/>
  <unicode hex="0061"/>
  <note>
15
</note>
  <anchor x="219.68" y="0.0" name="bottom"/>
  <anchor x="484.9" y="4.299999999999999" name="ogonek"/>
  <anchor x="307.968" y="538.6" name="top"/>
  <outline>
    <contour>
      <point x="418.184" y="-10.0" type="curve" smooth="yes"/>
      <point x="442.56000000000006" y="-10.0"/>
      <point x="468.6" y="-4.3919999999999995"/>
      <point x="484.956" y="4.132" type="curve"/>
      <point x="488.72400000000005" y="82.80000000000001" type="line"/>
      <point x="480.276" y="79.57600000000001"/>
      <point x="471.9680000000001" y="78.35199999999999"/>
      <point x="463.464" y="78.35199999999999" type="curve" smooth="yes"/>
      <point x="444.428" y="78.35199999999999"/>
      <point x="436.78400000000005" y="89.02400000000002"/>
      <point x="436.78400000000005" y="110.47999999999999" type="curve" smooth="yes"/>
      <point x="436.78400000000005" y="118.42399999999999"/>
      <point x="449.512" y="194.052"/>
      <point x="501.07199999999995" y="516.4119999999999" type="curve"/>
      <point x="456.032" y="535.16"/>
      <point x="384.428" y="548.6"/>
      <point x="321.592" y="548.6" type="curve" smooth="yes"/>
      <point x="140.196" y="548.6"/>
      <point x="25.092" y="409.884"/>
      <point x="25.092" y="176.34799999999998" type="curve" smooth="yes"/>
      <point x="25.092" y="53.663999999999994"/>
      <point x="85.13999999999999" y="-10.0"/>
      <point x="182.19600000000003" y="-10.0" type="curve" smooth="yes"/>
      <point x="239.776" y="-10.0"/>
      <point x="293.644" y="10.112000000000002"/>
      <point x="335.504" y="42.636" type="curve"/>
      <point x="348.74" y="9.084"/>
      <point x="379.724" y="-10.0"/>
    </contour>
    <contour>
      <point x="333.41999999999996" y="111.32000000000001" type="line"/>
      <point x="302.684" y="91.696"/>
      <point x="260.08000000000004" y="77.71600000000001"/>
      <point x="223.672" y="77.71600000000001" type="curve" smooth="yes"/>
      <point x="165.304" y="77.71600000000001"/>
      <point x="129.28799999999998" y="117.488"/>
      <point x="129.28799999999998" y="193.024" type="curve" smooth="yes"/>
      <point x="129.28799999999998" y="349.32"/>
      <point x="206.132" y="467.04400000000004"/>
      <point x="309.71200000000005" y="467.04400000000004" type="curve" smooth="yes"/>
      <point x="339.728" y="467.04400000000004"/>
      <point x="366.21200000000005" y="462.6240000000001"/>
      <point x="387.0799999999999" y="452.11999999999995" type="curve"/>
    </contour>
  </outline>
</glyph>
<glyph name="b" format="2">
  <advance width="520.082"/>
  <unicode hex="0062"/>
  <note>
12
</note>
  <outline>
    <contour>
      <point x="234.95600000000002" y="740.0" type="line"/>
      <point x="133.39600000000002" y="740.0" type="line"/>
      <point x="18.712" y="15.186" type="line"/>
      <point x="66.048" y="2.098"/>
      <point x="127.258" y="-10.0"/>
      <point x="199.768" y="-10.0" type="curve" smooth="yes"/>
      <point x="384.614" y="-10.0"/>
      <point x="496.42800000000005" y="156.302"/>
      <point x="495.99800000000005" y="367.228" type="curve" smooth="yes"/>
      <point x="495.99799999999993" y="485.47600000000006"/>
      <point x="447.19" y="548.6"/>
      <point x="349.548" y="548.6" type="curve" smooth="yes"/>
      <point x="294.31399999999996" y="548.6"/>
      <point x="246.842" y="528.076"/>
      <point x="195.65" y="495.112" type="curve"/>
    </contour>
    <contour>
      <point x="302.144" y="459.85200000000003" type="curve" smooth="yes"/>
      <point x="366.038" y="459.85200000000003"/>
      <point x="393.148" y="415.49199999999996"/>
      <point x="393.148" y="342.72799999999995" type="curve" smooth="yes"/>
      <point x="393.148" y="205.872"/>
      <point x="319.46999999999997" y="69.718"/>
      <point x="208.99999999999997" y="69.718" type="curve" smooth="yes"/>
      <point x="178.67200000000003" y="69.718"/>
      <point x="151.08" y="75.252"/>
      <point x="131.1" y="81.53200000000001" type="curve"/>
      <point x="184.04999999999998" y="417.528" type="line"/>
      <point x="224.61199999999997" y="445.074"/>
      <point x="264.24600000000004" y="459.85200000000003"/>
    </contour>
  </outline>
</glyph>
<glyph name="c" format="2">
  <advance width="451.13999999999993"/>
  <unicode hex="0063"/>
  <note>
10
</note>
  <anchor x="231.976" y="0.0" name="bottom"/>
  <anchor x="310.2" y="538.6" name="top"/>
  <outline>
    <contour>
      <point x="230.61200000000002" y="-10.0" type="curve" smooth="yes"/>
      <point x="290.528" y="-10.0"/>
      <point x="349.00800000000004" y="-0.9440000000000003"/>
      <point x="394.58" y="15.327999999999998" type="curve"/>
      <point x="385.44800000000004" y="95.08000000000001" type="line"/>
      <point x="343.512" y="84.91199999999999"/>
      <point x="305.036" y="78.492"/>
      <point x="257.776" y="78.492" type="curve" smooth="yes"/>
      <point x="179.22" y="78.492"/>
      <point x="126.792" y="121.47999999999998"/>
      <point x="126.792" y="197.812" type="curve" smooth="yes"/>
      <point x="126.792" y="341.10799999999995"/>
      <point x="203.99200000000002" y="459.08000000000004"/>
      <point x="310.89200000000005" y="459.08000000000004" type="curve" smooth="yes"/>
      <point x="349.53599999999994" y="459.08000000000004"/>
      <point x="387.64799999999997" y="455.688"/>
      <point x="433.80800000000005" y="442.688" type="curve"/>
      <point x="462.252" y="528.74" type="line"/>
      <point x="417.42" y="541.74"/>
      <point x="365.492" y="548.6"/>
      <point x="314.752" y="548.6" type="curve" smooth="yes"/>
      <point x="132.65200000000002" y="548.6"/>
      <point x="25.316" y="396.80799999999994"/>
      <point x="25.316" y="179.52800000000002" type="curve" smooth="yes"/>
      <point x="25.316" y="59.87999999999999"/>
      <point x="95.64399999999999" y="-10.0"/>
    </contour>
  </outline>
</glyph>
<glyph name="d" format="2">
  <advance width="526.9"/>
  <unicode hex="0064"/>
  <note>
17
</note>
  <anchor x="224.776" y="0.0" name="bottom"/>
  <anchor x="265.576" y="307.05999999999995" name="center"/>
  <anchor x="327.36" y="740.0" name="top"/>
  <anchor x="593.7199999999999" y="740.0" name="topright"/>
  <outline>
    <contour>
      <point x="418.1840000000001" y="-10.0" type="curve" smooth="yes"/>
      <point x="439.53200000000004" y="-10.0"/>
      <point x="465.516" y="-4.476"/>
      <point x="483.872" y="4.132" type="curve"/>
      <point x="486.6120000000001" y="82.8" type="line"/>
      <point x="479.19200000000006" y="79.66000000000001"/>
      <point x="470.71600000000007" y="78.35199999999998"/>
      <point x="462.128" y="78.35199999999998" type="curve" smooth="yes"/>
      <point x="444.23199999999997" y="78.35199999999998"/>
      <point x="435.532" y="88.08"/>
      <point x="435.532" y="106.536" type="curve" smooth="yes"/>
      <point x="435.532" y="119.584"/>
      <point x="499.788" y="519.336"/>
      <point x="534.24" y="740.0" type="curve"/>
      <point x="431.82000000000005" y="740.0" type="line"/>
      <point x="399.512" y="533.5719999999999" type="line"/>
      <point x="371.064" y="542.4040000000001"/>
      <point x="338.008" y="548.6"/>
      <point x="296.33599999999996" y="548.6" type="curve" smooth="yes"/>
      <point x="141.85999999999999" y="548.6"/>
      <point x="24.064000000000004" y="401.408"/>
      <point x="24.064000000000004" y="172.172" type="curve" smooth="yes"/>
      <point x="24.064000000000004" y="49.384"/>
      <point x="87.196" y="-10.0"/>
      <point x="181.55200000000002" y="-10.0" type="curve" smooth="yes"/>
      <point x="237.3" y="-10.0"/>
      <point x="296.364" y="12.860000000000001"/>
      <point x="334.19599999999997" y="41.496" type="curve"/>
      <point x="347.57200000000006" y="8.720000000000002"/>
      <point x="377.64000000000004" y="-10.0"/>
    </contour>
    <contour>
      <point x="220.42" y="78.66" type="curve" smooth="yes"/>
      <point x="165.556" y="78.66"/>
      <point x="128.176" y="114.37600000000002"/>
      <point x="128.176" y="179.856" type="curve" smooth="yes"/>
      <point x="128.176" y="332.6959999999999"/>
      <point x="202.936" y="467.04400000000004"/>
      <point x="306.29200000000003" y="467.04400000000004" type="curve" smooth="yes"/>
      <point x="339.588" y="467.04400000000004"/>
      <point x="364.876" y="461.59600000000006"/>
      <point x="387.052" y="455.4" type="curve"/>
      <point x="332.36400000000003" y="110.096" type="line"/>
      <point x="301.51599999999996" y="91.556"/>
      <point x="259.05199999999996" y="78.66"/>
    </contour>
  </outline>
</glyph>
<glyph name="e" format="2">
  <advance width="488.3"/>
  <unicode hex="0065"/>
  <note>
14 points
</note>
  <anchor x="232.36800000000002" y="0.0" name="bottom"/>
  <anchor x="365.656" y="5.888" name="ogonek"/>
  <anchor x="308.264" y="539.6280000000002" name="top"/>
  <outline>
    <contour>
      <point x="110.844" y="294.93999999999994" type="curve"/>
      <point x="104.348" y="225.39600000000002" type="line"/>
      <point x="147.6" y="222.48"/>
      <point x="198.468" y="224.48000000000002"/>
      <point x="251.30000000000004" y="232.61999999999998" type="curve" smooth="yes"/>
      <point x="396.3" y="256.788"/>
      <point x="483.16" y="326.556"/>
      <point x="483.16" y="425.492" type="curve" smooth="yes"/>
      <point x="483.16" y="500.336"/>
      <point x="420.98" y="548.6"/>
      <point x="327.876" y="548.6" type="curve" smooth="yes"/>
      <point x="136.12" y="548.6"/>
      <point x="27.456000000000003" y="402.692"/>
      <point x="27.456000000000003" y="200.816" type="curve" smooth="yes"/>
      <point x="27.456000000000003" y="67.524"/>
      <point x="104.41199999999999" y="-10.0"/>
      <point x="238.68800000000002" y="-10.0" type="curve" smooth="yes"/>
      <point x="302.484" y="-10.0"/>
      <point x="370.41999999999996" y="2.1959999999999997"/>
      <point x="427.15999999999997" y="26.084" type="curve"/>
      <point x="412.56" y="108.332" type="line"/>
      <point x="354.14799999999997" y="86.10799999999999"/>
      <point x="299.484" y="75.91199999999999"/>
      <point x="256.02799999999996" y="75.91199999999999" type="curve" smooth="yes"/>
      <point x="170.928" y="75.91199999999999"/>
      <point x="128.072" y="120.14"/>
      <point x="128.072" y="211.22" type="curve" smooth="yes"/>
      <point x="128.072" y="365.192"/>
      <point x="202.60799999999998" y="468.70799999999997"/>
      <point x="308.64799999999997" y="468.70799999999997" type="curve" smooth="yes"/>
      <point x="360.568" y="468.70799999999997"/>
      <point x="383.404" y="449.916"/>
      <point x="383.404" y="411.228" type="curve" smooth="yes"/>
      <point x="383.404" y="351.3440000000001"/>
      <point x="324.0439999999999" y="317.59200000000004"/>
      <point x="225.836" y="301.5" type="curve" smooth="yes"/>
      <point x="186.736" y="295.08"/>
      <point x="146.552" y="291.968"/>
    </contour>
  </outline>
</glyph>
<glyph name="f" format="2">
  <advance width="333.776"/>
  <unicode hex="0066"/>
  <outline>
    <contour>
      <point x="-20.02799999999999" y="-220.0" type="curve" smooth="yes"/>
      <point x="72.212" y="-220.0"/>
      <point x="121.634" y="-155.088"/>
      <point x="143.352" y="-18.125999999999998" type="curve" smooth="yes"/>
      <point x="211.66199999999998" y="415.292" type="line"/>
      <point x="351.338" y="415.292" type="line"/>
      <point x="364.228" y="495.61" type="line"/>
      <point x="224.38" y="495.61" type="line"/>
      <point x="242.666" y="613.396"/>
      <point x="279.598" y="660.48"/>
      <point x="347.51800000000003" y="660.48" type="curve" smooth="yes"/>
      <point x="380.91999999999996" y="660.48"/>
      <point x="410.81000000000006" y="653.94"/>
      <point x="439.728" y="645.06" type="curve"/>
      <point x="466.538" y="725.8399999999999" type="line"/>
      <point x="425.88" y="741.218"/>
      <point x="384.82399999999996" y="750.0"/>
      <point x="339.18800000000005" y="750.0" type="curve" smooth="yes"/>
      <point x="220.86200000000002" y="750.0"/>
      <point x="149.436" y="671.0740000000001"/>
      <point x="122.85000000000001" y="495.61" type="curve"/>
      <point x="47.14" y="487.17199999999997" type="line"/>
      <point x="35.336" y="415.292" type="line"/>
      <point x="109.96000000000001" y="415.292" type="line"/>
      <point x="42.82600000000001" y="-11.756000000000007" type="line" smooth="yes"/>
      <point x="29.786" y="-93.648"/>
      <point x="8.399999999999999" y="-131.706"/>
      <point x="-38.138000000000005" y="-131.706" type="curve" smooth="yes"/>
      <point x="-50.216" y="-131.706"/>
      <point x="-62.386" y="-129.994"/>
      <point x="-77.52199999999999" y="-124.88200000000002" type="curve"/>
      <point x="-99.952" y="-206.038" type="line"/>
      <point x="-74.294" y="-215.708"/>
      <point x="-49.322" y="-220.0"/>
    </contour>
  </outline>
</glyph>
<glyph name="g" format="2">
  <advance width="519.292"/>
  <unicode hex="0067"/>
  <note>
16
</note>
  <anchor x="172.82" y="-214.86" name="bottom"/>
  <anchor x="307.63200000000006" y="538.6" name="top"/>
  <outline>
    <contour>
      <point x="-6.012" y="-185.65200000000002" type="line"/>
      <point x="47.168" y="-206.72799999999998"/>
      <point x="111.928" y="-220.0"/>
      <point x="177.68" y="-220.0" type="curve" smooth="yes"/>
      <point x="316.284" y="-220.0"/>
      <point x="393.98799999999994" y="-144.56799999999998"/>
      <point x="417.59599999999995" y="9.547999999999998" type="curve" smooth="yes"/>
      <point x="499.18399999999997" y="520.8519999999999" type="line"/>
      <point x="459.96799999999996" y="536.02"/>
      <point x="382.848" y="548.6"/>
      <point x="325.976" y="548.6" type="curve" smooth="yes"/>
      <point x="115.632" y="548.6"/>
      <point x="23.287999999999997" y="374.208"/>
      <point x="23.287999999999997" y="167.44000000000003" type="curve" smooth="yes"/>
      <point x="23.287999999999997" y="65.37599999999999"/>
      <point x="77.652" y="0.31999999999999984"/>
      <point x="177.7" y="0.31999999999999984" type="curve" smooth="yes"/>
      <point x="217.76399999999998" y="0.31999999999999984"/>
      <point x="277.51199999999994" y="15.796000000000001"/>
      <point x="319.904" y="37.196" type="curve"/>
      <point x="315.344" y="4.919999999999994" type="line" smooth="yes"/>
      <point x="300.56" y="-94.896"/>
      <point x="252.85200000000003" y="-134.144"/>
      <point x="170.464" y="-134.144" type="curve" smooth="yes"/>
      <point x="122.30399999999999" y="-134.144"/>
      <point x="65.676" y="-122.53600000000003"/>
      <point x="20.628" y="-105.70400000000001" type="curve"/>
    </contour>
    <contour>
      <point x="386.164" y="454.784" type="curve"/>
      <point x="332.47599999999994" y="118.47999999999999" type="line"/>
      <point x="303.74" y="99.80000000000001"/>
      <point x="257.37999999999994" y="83.736"/>
      <point x="224.504" y="83.736" type="curve" smooth="yes"/>
      <point x="165.444" y="83.736"/>
      <point x="127.484" y="119.432"/>
      <point x="127.484" y="195.66" type="curve" smooth="yes"/>
      <point x="127.484" y="327.236"/>
      <point x="200.71200000000002" y="468.70799999999997"/>
      <point x="310.132" y="468.70799999999997" type="curve" smooth="yes"/>
      <point x="344.8960000000001" y="468.70799999999997"/>
      <point x="366.184" y="461.316"/>
    </contour>
  </outline>
</glyph>
<glyph name="h" format="2">
  <advance width="526.7"/>
  <unicode hex="0068"/>
  <note>
16
</note>
  <anchor x="227.31199999999998" y="0.0" name="bottom"/>
  <anchor x="280.808" y="374.3" name="center"/>
  <anchor x="335.704" y="740.0" name="top"/>
  <outline>
    <contour>
      <point x="440.612" y="106.22800000000001" type="curve" smooth="yes"/>
      <point x="440.612" y="136.628"/>
      <point x="487.95599999999996" y="396.684"/>
      <point x="487.95599999999996" y="437.58" type="curve" smooth="yes"/>
      <point x="487.95599999999996" y="504.132"/>
      <point x="451.37600000000003" y="548.6"/>
      <point x="367.52400000000006" y="548.6" type="curve" smooth="yes"/>
      <point x="306.264" y="548.6"/>
      <point x="256.444" y="528.62"/>
      <point x="196.24799999999996" y="496.012" type="curve"/>
      <point x="235.472" y="740.0" type="line"/>
      <point x="133.05200000000002" y="740.0" type="line"/>
      <point x="15.191999999999997" y="0.0" type="line"/>
      <point x="117.612" y="0.0" type="line"/>
      <point x="183.70399999999998" y="419.86" type="line"/>
      <point x="228.78400000000005" y="443.512"/>
      <point x="270.66799999999995" y="460.884"/>
      <point x="313.364" y="460.884" type="curve" smooth="yes"/>
      <point x="362.976" y="460.884"/>
      <point x="380.236" y="435.148"/>
      <point x="380.236" y="399.5440000000001" type="curve" smooth="yes"/>
      <point x="380.236" y="361.192"/>
      <point x="333.116" y="107.64"/>
      <point x="333.116" y="67.96799999999999" type="curve" smooth="yes"/>
      <point x="333.116" y="19.152000000000005"/>
      <point x="369.84799999999996" y="-10.0"/>
      <point x="421.348" y="-10.0" type="curve" smooth="yes"/>
      <point x="443.55600000000004" y="-10.0"/>
      <point x="469.65199999999993" y="-5.504"/>
      <point x="488.92400000000004" y="3.2159999999999997" type="curve"/>
      <point x="492.664" y="83.744" type="line"/>
      <point x="483.18799999999993" y="80.464"/>
      <point x="474.712" y="78.49199999999999"/>
      <point x="467.292" y="78.49199999999999" type="curve" smooth="yes"/>
      <point x="449.284" y="78.49199999999999"/>
      <point x="440.612" y="88.108"/>
    </contour>
  </outline>
</glyph>
<glyph name="i" format="2">
  <advance width="221.208"/>
  <unicode hex="0069"/>
  <note>
Ajuster pts sur points
8
</note>
  <anchor x="66.524368" y="0.0" name="bottom"/>
  <anchor x="117.642" y="0.0" name="ogonek"/>
  <anchor x="152.06163200000003" y="538.6" name="top"/>
  <outline>
    <contour>
      <point x="16.338" y="0.0" type="line"/>
      <point x="117.642" y="0.0" type="line"/>
      <point x="202.76000000000002" y="538.6" type="line"/>
      <point x="101.458" y="538.6" type="line"/>
    </contour>
    <contour>
      <point x="185.12199999999999" y="744.4" type="curve" smooth="yes"/>
      <point x="134.886" y="744.4"/>
      <point x="115.084" y="717.8299999999999"/>
      <point x="113.83000000000001" y="671.1" type="curve" smooth="yes"/>
      <point x="113.488" y="643.1179999999999"/>
      <point x="131.014" y="630.162"/>
      <point x="165.25199999999998" y="630.162" type="curve" smooth="yes"/>
      <point x="212.07000000000002" y="630.162"/>
      <point x="235.346" y="654.84"/>
      <point x="236.82800000000003" y="704.1199999999999" type="curve" smooth="yes"/>
      <point x="237.17000000000002" y="731.702"/>
      <point x="220.07" y="744.4"/>
    </contour>
  </outline>
</glyph>
<glyph name="j" format="2">
  <advance width="230.616"/>
  <unicode hex="006A"/>
  <note>
idem /i
12
</note>
  <outline>
    <contour>
      <point x="194.702" y="744.4" type="curve" smooth="yes"/>
      <point x="144.294" y="744.4"/>
      <point x="125.12" y="717.8299999999999"/>
      <point x="123.866" y="671.1" type="curve" smooth="yes"/>
      <point x="123.524" y="643.1179999999999"/>
      <point x="141.02400000000003" y="630.162"/>
      <point x="175.262" y="630.162" type="curve" smooth="yes"/>
      <point x="221.138" y="630.162"/>
      <point x="244.47000000000003" y="654.84"/>
      <point x="245.952" y="704.1199999999999" type="curve" smooth="yes"/>
      <point x="246.294" y="731.702"/>
      <point x="229.64999999999998" y="744.4"/>
    </contour>
    <contour>
      <point x="212.76999999999998" y="538.6" type="line"/>
      <point x="111.03800000000001" y="538.6" type="line"/>
      <point x="21.424000000000003" y="-27.644" type="line" smooth="yes"/>
      <point x="10.947999999999999" y="-93.64000000000001"/>
      <point x="-8.691999999999993" y="-131.706"/>
      <point x="-53.53" y="-131.706" type="curve" smooth="yes"/>
      <point x="-65.52" y="-131.706"/>
      <point x="-79.286" y="-130.394"/>
      <point x="-95.416" y="-124.542" type="curve"/>
      <point x="-117.532" y="-208.62199999999999" type="line"/>
      <point x="-92.15799999999999" y="-216.91199999999998"/>
      <point x="-60.076" y="-220.0"/>
      <point x="-40.31999999999999" y="-220.0" type="curve" smooth="yes"/>
      <point x="59.162000000000006" y="-220.0"/>
      <point x="102.85600000000001" y="-153.956"/>
      <point x="123.01600000000002" y="-25.764" type="curve" smooth="yes"/>
    </contour>
  </outline>
</glyph>
<glyph name="k" format="2">
  <advance width="489.04"/>
  <unicode hex="006B"/>
  <anchor x="216.66" y="0.0" name="bottom"/>
  <anchor x="185.22" y="740.0" name="top"/>
  <outline>
    <contour>
      <point x="16.080000000000002" y="0.0" type="line"/>
      <point x="118.5" y="0.0" type="line"/>
      <point x="236.35999999999999" y="740.0" type="line"/>
      <point x="133.08" y="740.0" type="line"/>
    </contour>
    <contour>
      <point x="415.38000000000005" y="-10.0" type="curve" smooth="yes"/>
      <point x="426.82" y="-10.0"/>
      <point x="438.26" y="-8.0"/>
      <point x="449.56" y="-4.140000000000001" type="curve"/>
      <point x="460.03999999999996" y="89.97999999999999" type="line"/>
      <point x="453.17999999999995" y="88.83999999999999"/>
      <point x="446.32" y="88.69999999999999"/>
      <point x="440.46000000000004" y="88.69999999999999" type="curve" smooth="yes"/>
      <point x="406.15999999999997" y="88.7"/>
      <point x="368.86" y="115.24"/>
      <point x="292.32" y="216.16" type="curve" smooth="yes"/>
      <point x="166.64" y="381.36" type="line"/>
      <point x="143.88" y="272.92" type="line"/>
      <point x="257.08000000000004" y="116.78" type="line" smooth="yes"/>
      <point x="324.46000000000004" y="24.72"/>
      <point x="365.91999999999996" y="-10.0"/>
    </contour>
    <contour>
      <point x="256.86" y="250.42" type="line"/>
      <point x="367.12" y="322.88000000000005"/>
      <point x="461.82" y="431.62"/>
      <point x="507.5" y="537.74" type="curve"/>
      <point x="403.78" y="548.46" type="line"/>
      <point x="354.26" y="440.5"/>
      <point x="296.58000000000004" y="371.24"/>
      <point x="194.4" y="303.4" type="curve"/>
    </contour>
  </outline>
</glyph>
<glyph name="l" format="2">
  <advance width="257.796"/>
  <unicode hex="006C"/>
  <anchor x="123.94800000000001" y="0.0" name="bottom"/>
  <anchor x="136.943032" y="374.3" name="center"/>
  <anchor x="183.904" y="740.0" name="top"/>
  <anchor x="294.32" y="740.0" name="topright"/>
  <outline>
    <contour>
      <point x="133.22400000000002" y="740.0" type="line"/>
      <point x="36.098" y="127.42" type="line" smooth="yes"/>
      <point x="33.924" y="112.77600000000001"/>
      <point x="31.723999999999997" y="95.112"/>
      <point x="31.723999999999997" y="80.02199999999999" type="curve" smooth="yes"/>
      <point x="31.723999999999997" y="23.302"/>
      <point x="60.386" y="-10.0"/>
      <point x="125.46600000000001" y="-10.0" type="curve" smooth="yes"/>
      <point x="159.67800000000003" y="-10.0"/>
      <point x="195.17999999999998" y="-2.618"/>
      <point x="223.32600000000002" y="8.17" type="curve"/>
      <point x="226.49400000000003" y="89.52799999999999" type="line"/>
      <point x="207.03800000000004" y="84.416"/>
      <point x="191.95999999999998" y="81.504"/>
      <point x="176.88400000000001" y="81.504" type="curve" smooth="yes"/>
      <point x="147.01" y="81.504"/>
      <point x="137.9" y="97.564"/>
      <point x="137.9" y="117.466" type="curve" smooth="yes"/>
      <point x="137.9" y="129.762"/>
      <point x="140.096" y="142.85999999999999"/>
      <point x="142.522" y="157.558" type="curve" smooth="yes"/>
      <point x="234.926" y="740.0" type="line"/>
    </contour>
  </outline>
</glyph>
<glyph name="m" format="2">
  <advance width="783.412"/>
  <unicode hex="006D"/>
  <note>
24&gt;23 points
un point de trop dans la jointure avec 2e jambage
</note>
  <outline>
    <contour>
      <point x="677.888" y="-10.0" type="curve" smooth="yes"/>
      <point x="699.7520000000001" y="-10.0"/>
      <point x="726.708" y="-5.933999999999999"/>
      <point x="745.808" y="2.9579999999999997" type="curve"/>
      <point x="749.2040000000001" y="82.196" type="line"/>
      <point x="740.33" y="78.916"/>
      <point x="731.08" y="77.71799999999999"/>
      <point x="723.832" y="77.71799999999999" type="curve" smooth="yes"/>
      <point x="705.996" y="77.71799999999999"/>
      <point x="696.4360000000001" y="87.96600000000001"/>
      <point x="696.4360000000001" y="106.94600000000001" type="curve" smooth="yes"/>
      <point x="696.4360000000001" y="142.24800000000002"/>
      <point x="744.984" y="397.974"/>
      <point x="744.984" y="438.612" type="curve" smooth="yes"/>
      <point x="744.984" y="502.928"/>
      <point x="707.3139999999999" y="548.6"/>
      <point x="623.72" y="548.6" type="curve" smooth="yes"/>
      <point x="564.638" y="548.6"/>
      <point x="513.12" y="526.698"/>
      <point x="453.02799999999996" y="486.37" type="curve"/>
      <point x="439.312" y="523.9420000000001"/>
      <point x="406.54200000000003" y="548.6"/>
      <point x="348.98600000000005" y="548.6" type="curve" smooth="yes"/>
      <point x="296.37" y="548.6"/>
      <point x="244.232" y="527.9000000000001"/>
      <point x="186.30200000000002" y="492.084" type="curve"/>
      <point x="193.56" y="538.6" type="line"/>
      <point x="100.944" y="538.6" type="line"/>
      <point x="15.882000000000003" y="0.0" type="line"/>
      <point x="117.356" y="0.0" type="line"/>
      <point x="184.192" y="422.838" type="line"/>
      <point x="223.186" y="446.168"/>
      <point x="258.758" y="460.97"/>
      <point x="293.556" y="460.97" type="curve" smooth="yes"/>
      <point x="341.568" y="460.97"/>
      <point x="358.18" y="433.3"/>
      <point x="358.18" y="397.058" type="curve" smooth="yes"/>
      <point x="358.18" y="376.764"/>
      <point x="318.998" y="138.928"/>
      <point x="297.59200000000004" y="0.0" type="curve"/>
      <point x="398.462" y="0.0" type="line"/>
      <point x="417.54600000000005" y="124.398"/>
      <point x="450.622" y="331.53400000000005"/>
      <point x="458.534" y="394.372" type="curve" smooth="yes"/>
      <point x="458.964" y="401.712"/>
      <point x="459.59799999999996" y="414.04"/>
      <point x="459.23" y="420.436" type="curve"/>
      <point x="496.49000000000007" y="443.916"/>
      <point x="532.43" y="460.454"/>
      <point x="572.102" y="460.454" type="curve" smooth="yes"/>
      <point x="620.118" y="460.454"/>
      <point x="637.552" y="435.178"/>
      <point x="637.552" y="397.746" type="curve" smooth="yes"/>
      <point x="637.552" y="359.422"/>
      <point x="590.7459999999999" y="109.79"/>
      <point x="590.7459999999999" y="68.656" type="curve" smooth="yes"/>
      <point x="590.7459999999999" y="17.432000000000002"/>
      <point x="626.7320000000001" y="-10.0"/>
    </contour>
  </outline>
</glyph>
<glyph name="n" format="2">
  <advance width="526.016"/>
  <unicode hex="006E"/>
  <note>
16
</note>
  <anchor x="233.286" y="0.0" name="bottom"/>
  <anchor x="299.186" y="538.6" name="top"/>
  <outline>
    <contour>
      <point x="100.944" y="538.6" type="line"/>
      <point x="15.882000000000003" y="0.0" type="line"/>
      <point x="117.184" y="0.0" type="line"/>
      <point x="184.222" y="420.72" type="line"/>
      <point x="228.262" y="444.024"/>
      <point x="269.984" y="461.31199999999995"/>
      <point x="313.798" y="461.31199999999995" type="curve" smooth="yes"/>
      <point x="362.666" y="461.31199999999995"/>
      <point x="381.3" y="436.382"/>
      <point x="381.3" y="398.606" type="curve" smooth="yes"/>
      <point x="381.3" y="357.60999999999996"/>
      <point x="334.322" y="111.51"/>
      <point x="334.322" y="66.592" type="curve" smooth="yes"/>
      <point x="334.322" y="19.238"/>
      <point x="369.85200000000003" y="-10.0"/>
      <point x="421.008" y="-10.0" type="curve" smooth="yes"/>
      <point x="442.872" y="-10.0"/>
      <point x="469.312" y="-5.933999999999999"/>
      <point x="488.41200000000003" y="2.9579999999999997" type="curve"/>
      <point x="491.80799999999994" y="82.196" type="line"/>
      <point x="482.93399999999997" y="78.916"/>
      <point x="473.684" y="77.71799999999999"/>
      <point x="466.436" y="77.71799999999999" type="curve" smooth="yes"/>
      <point x="448.6" y="77.71799999999999"/>
      <point x="439.496" y="87.42"/>
      <point x="439.496" y="105.626" type="curve" smooth="yes"/>
      <point x="439.496" y="136.284"/>
      <point x="488.302" y="396.168"/>
      <point x="488.302" y="437.06399999999996" type="curve" smooth="yes"/>
      <point x="488.302" y="505.85200000000003"/>
      <point x="446.82199999999995" y="548.6"/>
      <point x="366.582" y="548.6" type="curve" smooth="yes"/>
      <point x="303.86" y="548.6"/>
      <point x="246.06" y="527.27"/>
      <point x="186.62" y="491.05800000000005" type="curve"/>
      <point x="194.07600000000002" y="538.6" type="line"/>
    </contour>
  </outline>
</glyph>
<glyph name="o" format="2">
  <advance width="507.8399999999999"/>
  <unicode hex="006F"/>
  <note>
8
</note>
  <anchor x="220.46" y="0.0" name="bottom"/>
  <anchor x="257.62" y="271.58" name="center"/>
  <anchor x="296.40000000000003" y="0.5600000000000003" name="ogonek"/>
  <anchor x="290.76" y="538.6" name="top"/>
  <anchor x="401.88" y="530.88" name="topright"/>
  <outline>
    <contour>
      <point x="232.84" y="-10.0" type="curve" smooth="yes"/>
      <point x="404.64" y="-10.0"/>
      <point x="476.3" y="163.74"/>
      <point x="476.3" y="353.4" type="curve" smooth="yes"/>
      <point x="476.3" y="485.73999999999995"/>
      <point x="402.68" y="549.46"/>
      <point x="275.3" y="549.46" type="curve" smooth="yes"/>
      <point x="98.75999999999999" y="549.46"/>
      <point x="28.400000000000002" y="362.84000000000003"/>
      <point x="28.400000000000002" y="184.06" type="curve" smooth="yes"/>
      <point x="28.400000000000002" y="53.160000000000004"/>
      <point x="98.16" y="-10.0"/>
    </contour>
    <contour>
      <point x="227.96" y="70.78" type="curve" smooth="yes"/>
      <point x="163.2" y="70.78"/>
      <point x="128.24" y="105.3"/>
      <point x="128.24" y="183.76" type="curve" smooth="yes"/>
      <point x="128.24" y="304.4"/>
      <point x="171.82" y="468.67999999999995"/>
      <point x="276.88" y="468.67999999999995" type="curve" smooth="yes"/>
      <point x="336.78" y="468.67999999999995"/>
      <point x="374.73999999999995" y="433.46"/>
      <point x="374.73999999999995" y="361.3" type="curve" smooth="yes"/>
      <point x="374.73999999999995" y="225.33999999999997"/>
      <point x="331.72" y="70.78"/>
    </contour>
  </outline>
</glyph>
<glyph name="p" format="2">
  <advance width="520.3100000000001"/>
  <unicode hex="0070"/>
  <note>
14 point
</note>
  <outline>
    <contour>
      <point x="-16.604" y="-210.0" type="line"/>
      <point x="84.184" y="-210.0" type="line"/>
      <point x="117.868" y="2.192" type="line"/>
      <point x="143.13799999999998" y="-3.9739999999999993"/>
      <point x="175.786" y="-9.57"/>
      <point x="214.94200000000004" y="-9.57" type="curve" smooth="yes"/>
      <point x="393.94000000000005" y="-9.57"/>
      <point x="495.99800000000005" y="160.13"/>
      <point x="495.99800000000005" y="365.68399999999997" type="curve" smooth="yes"/>
      <point x="495.99800000000005" y="485.668"/>
      <point x="446.796" y="548.6"/>
      <point x="349.144" y="548.6" type="curve" smooth="yes"/>
      <point x="286.574" y="548.6"/>
      <point x="239.35600000000002" y="524.004"/>
      <point x="189.2" y="491.04" type="curve"/>
      <point x="193.48" y="542.02" type="line"/>
      <point x="101.79999999999998" y="542.02" type="line"/>
    </contour>
    <contour>
      <point x="207.176" y="69.718" type="curve" smooth="yes"/>
      <point x="176.848" y="69.718"/>
      <point x="151.08" y="75.13799999999999"/>
      <point x="130.758" y="81.418" type="curve"/>
      <point x="183.822" y="417.29999999999995" type="line"/>
      <point x="222.56" y="443.592"/>
      <point x="264.422" y="459.85200000000003"/>
      <point x="303.004" y="459.85200000000003" type="curve" smooth="yes"/>
      <point x="363.25" y="459.85200000000003"/>
      <point x="393.148" y="421.99"/>
      <point x="393.148" y="341.81600000000003" type="curve" smooth="yes"/>
      <point x="393.148" y="204.95999999999998"/>
      <point x="322.89" y="69.718"/>
    </contour>
  </outline>
</glyph>
<glyph name="q" format="2">
  <advance width="518.434"/>
  <unicode hex="0071"/>
  <note>
12
</note>
  <outline>
    <contour>
      <point x="498.26599999999996" y="523.414" type="line"/>
      <point x="450.754" y="535.8179999999999"/>
      <point x="385.28000000000003" y="548.6"/>
      <point x="319.65000000000003" y="548.6" type="curve" smooth="yes"/>
      <point x="118.994" y="548.6"/>
      <point x="23.032" y="356.772"/>
      <point x="23.032" y="164.874" type="curve" smooth="yes"/>
      <point x="23.032" y="53.072"/>
      <point x="79.286" y="-10.0"/>
      <point x="176.844" y="-10.0" type="curve" smooth="yes"/>
      <point x="229.21800000000002" y="-10.0"/>
      <point x="273.54" y="8.762000000000002"/>
      <point x="320.32800000000003" y="42.006" type="curve"/>
      <point x="279.70599999999996" y="-210.0" type="line"/>
      <point x="381.09" y="-210.0" type="line"/>
    </contour>
    <contour>
      <point x="386.10600000000005" y="455.804" type="curve"/>
      <point x="332.358" y="117.932" type="line"/>
      <point x="292.304" y="89.84199999999998"/>
      <point x="254.836" y="77.458"/>
      <point x="217.45600000000002" y="77.458" type="curve" smooth="yes"/>
      <point x="161.61400000000003" y="77.458"/>
      <point x="124.996" y="115.84400000000001"/>
      <point x="124.996" y="187.182" type="curve" smooth="yes"/>
      <point x="124.996" y="318.45200000000006"/>
      <point x="188.02999999999997" y="467.934"/>
      <point x="305.978" y="467.934" type="curve" smooth="yes"/>
      <point x="337.86" y="467.934"/>
      <point x="365.39" y="461.7420000000001"/>
    </contour>
  </outline>
</glyph>
<glyph name="r" format="2">
  <advance width="367.68"/>
  <unicode hex="0072"/>
  <anchor x="64.872" y="0.0" name="bottom"/>
  <anchor x="254.43" y="538.6" name="top"/>
  <outline>
    <contour>
      <point x="192.472" y="538.6" type="line"/>
      <point x="101.28800000000001" y="538.6" type="line"/>
      <point x="15.710000000000003" y="0.0" type="line"/>
      <point x="116.354" y="0.0" type="line"/>
      <point x="178.90600000000003" y="391.80400000000003" type="line"/>
      <point x="230.484" y="434.048"/>
      <point x="272.92" y="449.61800000000005"/>
      <point x="312.42199999999997" y="449.61800000000005" type="curve" smooth="yes"/>
      <point x="332.98600000000005" y="449.61800000000005"/>
      <point x="356.75199999999995" y="446.048"/>
      <point x="378.098" y="439.81999999999994" type="curve"/>
      <point x="408.5199999999999" y="537.544" type="line"/>
      <point x="389.11400000000003" y="544.746"/>
      <point x="365.21" y="548.6"/>
      <point x="339.794" y="548.6" type="curve" smooth="yes"/>
      <point x="290.038" y="548.6"/>
      <point x="243.49800000000002" y="526.636"/>
      <point x="182.046" y="473.268" type="curve"/>
    </contour>
  </outline>
</glyph>
<glyph name="s" format="2">
  <advance width="436.5"/>
  <unicode hex="0073"/>
  <anchor x="182.78" y="0.0" name="bottom"/>
  <anchor x="268.17999999999995" y="538.6" name="top"/>
  <outline>
    <contour>
      <point x="-13.319999999999999" y="22.580000000000002" type="line"/>
      <point x="37.0" y="3.8599999999999994"/>
      <point x="96.72000000000001" y="-10.0"/>
      <point x="172.18" y="-10.0" type="curve" smooth="yes"/>
      <point x="312.48" y="-10.0"/>
      <point x="395.11999999999995" y="43.26"/>
      <point x="395.11999999999995" y="159.68" type="curve" smooth="yes"/>
      <point x="395.11999999999995" y="330.84"/>
      <point x="151.33999999999997" y="295.12"/>
      <point x="151.33999999999997" y="396.1" type="curve" smooth="yes"/>
      <point x="151.33999999999997" y="437.88"/>
      <point x="181.4" y="467.82"/>
      <point x="263.29999999999995" y="467.82" type="curve" smooth="yes"/>
      <point x="309.0" y="467.82"/>
      <point x="361.46" y="456.82"/>
      <point x="400.9" y="442.96000000000004" type="curve"/>
      <point x="425.96000000000004" y="522.02" type="line"/>
      <point x="386.79999999999995" y="537.74"/>
      <point x="331.22" y="548.6"/>
      <point x="273.32" y="548.6" type="curve" smooth="yes"/>
      <point x="123.4" y="548.6"/>
      <point x="53.36" y="484.44"/>
      <point x="53.36" y="385.78" type="curve" smooth="yes"/>
      <point x="53.36" y="212.04"/>
      <point x="297.0" y="251.04"/>
      <point x="297.0" y="143.92000000000002" type="curve" smooth="yes"/>
      <point x="297.0" y="100.85999999999999"/>
      <point x="263.66" y="70.78"/>
      <point x="178.9" y="70.78" type="curve" smooth="yes"/>
      <point x="121.64" y="70.78"/>
      <point x="55.18" y="86.5"/>
      <point x="12.74" y="103.5" type="curve"/>
    </contour>
  </outline>
</glyph>
<glyph name="t" format="2">
  <advance width="350.81600000000003"/>
  <unicode hex="0074"/>
  <anchor x="171.21" y="0.0" name="bottom"/>
  <anchor x="170.204" y="294.836" name="center"/>
  <anchor x="199.19" y="662.162" name="top"/>
  <anchor x="354.576" y="767.59" name="topright"/>
  <outline>
    <contour>
      <point x="306.226" y="94.65" type="line"/>
      <point x="276.118" y="86.144"/>
      <point x="249.66" y="80.122"/>
      <point x="225.08599999999998" y="80.122" type="curve" smooth="yes"/>
      <point x="178.656" y="80.122"/>
      <point x="161.61800000000002" y="102.524"/>
      <point x="161.61800000000002" y="140.592" type="curve" smooth="yes"/>
      <point x="161.61800000000002" y="150.78199999999998"/>
      <point x="162.788" y="161.79999999999998"/>
      <point x="164.586" y="174.274" type="curve" smooth="yes"/>
      <point x="210.25400000000002" y="458.738" type="line"/>
      <point x="362.772" y="458.738" type="line"/>
      <point x="376.522" y="538.6" type="line"/>
      <point x="223.488" y="538.6" type="line"/>
      <point x="243.082" y="662.162" type="line"/>
      <point x="156.494" y="662.162" type="line"/>
      <point x="123.13200000000002" y="538.6" type="line"/>
      <point x="41.634" y="530.192" type="line"/>
      <point x="29.0" y="458.996" type="line"/>
      <point x="108.866" y="458.996" type="line"/>
      <point x="62.596000000000004" y="167.308" type="line" smooth="yes"/>
      <point x="58.736000000000004" y="144.232"/>
      <point x="56.304" y="117.92"/>
      <point x="56.304" y="100.562" type="curve" smooth="yes"/>
      <point x="56.304" y="19.934"/>
      <point x="102.78" y="-10.0"/>
      <point x="173.87400000000002" y="-10.0" type="curve" smooth="yes"/>
      <point x="215.144" y="-10.0"/>
      <point x="257.78400000000005" y="-2.508"/>
      <point x="302.94" y="13.696000000000003" type="curve"/>
    </contour>
  </outline>
</glyph>
<glyph name="u" format="2">
  <advance width="520.26"/>
  <unicode hex="0075"/>
  <note>
15
</note>
  <anchor x="216.16600000000003" y="0.0" name="bottom"/>
  <anchor x="478.28999999999996" y="8.342" name="ogonek"/>
  <anchor x="295.511448" y="538.6" name="top"/>
  <anchor x="487.898" y="538.6" name="topright"/>
  <outline>
    <contour>
      <point x="154.396" y="-10.0" type="curve" smooth="yes"/>
      <point x="215.40599999999998" y="-10.0"/>
      <point x="268.77799999999996" y="10.83"/>
      <point x="329.272" y="50.696" type="curve"/>
      <point x="337.436" y="11.876"/>
      <point x="366.44" y="-10.0"/>
      <point x="407.90200000000004" y="-10.0" type="curve" smooth="yes"/>
      <point x="429.31800000000004" y="-10.0"/>
      <point x="458.60999999999996" y="-2.6159999999999997"/>
      <point x="478.28999999999996" y="10.234" type="curve"/>
      <point x="481.228" y="82.28" type="line"/>
      <point x="470.92199999999997" y="78.48400000000001"/>
      <point x="460.878" y="76.774"/>
      <point x="455.856" y="76.774" type="curve" smooth="yes"/>
      <point x="437.852" y="76.774"/>
      <point x="429.202" y="86.848"/>
      <point x="429.202" y="109.59599999999999" type="curve" smooth="yes"/>
      <point x="429.202" y="118.52799999999999"/>
      <point x="430.886" y="135.98999999999998"/>
      <point x="495.63800000000003" y="538.6" type="curve"/>
      <point x="394.538" y="538.6" type="line"/>
      <point x="328.38399999999996" y="115.70800000000001" type="line"/>
      <point x="284.63" y="90.808"/>
      <point x="246.01800000000003" y="76.428"/>
      <point x="202.514" y="76.428" type="curve" smooth="yes"/>
      <point x="159.716" y="76.428"/>
      <point x="137.744" y="99.45"/>
      <point x="138.26" y="136.04" type="curve" smooth="yes"/>
      <point x="142.904" y="178.76399999999998"/>
      <point x="150.44" y="227.964"/>
      <point x="200.07600000000002" y="538.6" type="curve"/>
      <point x="98.946" y="538.6" type="line"/>
      <point x="48.059999999999995" y="214.116"/>
      <point x="32.744" y="134.17600000000002"/>
      <point x="32.744" y="96.78" type="curve" smooth="yes"/>
      <point x="32.744" y="32.444"/>
      <point x="74.70400000000001" y="-10.0"/>
    </contour>
  </outline>
</glyph>
<glyph name="v" format="2">
  <advance width="459.824"/>
  <unicode hex="0076"/>
  <outline>
    <contour>
      <point x="238.058" y="-0.9680000000000003" type="line"/>
      <point x="402.604" y="293.968"/>
      <point x="472.426" y="401.9"/>
      <point x="480.392" y="538.6" type="curve"/>
      <point x="375.36" y="538.6" type="line"/>
      <point x="370.274" y="430.216"/>
      <point x="330.168" y="356.754"/>
      <point x="194.28199999999998" y="88.65" type="curve"/>
      <point x="147.636" y="540.88" type="line"/>
      <point x="41.314" y="539.0840000000001" type="line"/>
      <point x="117.47" y="-0.9680000000000003" type="line"/>
    </contour>
  </outline>
</glyph>
<glyph name="w" format="2">
  <advance width="690.502"/>
  <unicode hex="0077"/>
  <note>
15
</note>
  <anchor x="307.974" y="0.0" name="bottom"/>
  <anchor x="372.85400000000004" y="538.6" name="top"/>
  <outline>
    <contour>
      <point x="487.746" y="0.0" type="line"/>
      <point x="646.518" y="300.182"/>
      <point x="704.3499999999999" y="416.694"/>
      <point x="707.2859999999998" y="538.6" type="curve"/>
      <point x="612.316" y="538.6" type="line"/>
      <point x="606.1759999999999" y="433.722"/>
      <point x="577.7579999999999" y="357.15000000000003"/>
      <point x="443.21799999999996" y="89.78" type="curve"/>
      <point x="436.346" y="518.822" type="line"/>
      <point x="323.842" y="518.822" type="line"/>
      <point x="265.624" y="368.66999999999996"/>
      <point x="208.836" y="233.224"/>
      <point x="148.55400000000003" y="90.29599999999999" type="curve"/>
      <point x="141.67999999999998" y="540.88" type="line"/>
      <point x="43.098" y="539.2560000000001" type="line"/>
      <point x="69.57000000000001" y="0.0" type="line"/>
      <point x="191.448" y="0.0" type="line"/>
      <point x="247.94599999999997" y="127.91000000000001"/>
      <point x="307.02399999999994" y="265.19399999999996"/>
      <point x="359.394" y="389.664" type="curve"/>
      <point x="373.264" y="0.0" type="line"/>
    </contour>
  </outline>
</glyph>
<glyph name="x" format="2">
  <advance width="473.65999999999997"/>
  <unicode hex="0078"/>
  <outline>
    <contour>
      <point x="394.82" y="538.6" type="line"/>
      <point x="377.53999999999996" y="461.46000000000004"/>
      <point x="343.08000000000004" y="408.64"/>
      <point x="265.74" y="339.04" type="curve"/>
      <point x="176.54" y="544.74" type="line"/>
      <point x="65.8" y="537.7400000000001" type="line"/>
      <point x="190.54" y="290.62" type="line"/>
      <point x="61.86" y="194.18"/>
      <point x="4.300000000000001" y="104.74000000000001"/>
      <point x="-14.720000000000002" y="0.0" type="curve"/>
      <point x="89.28" y="0.0" type="line"/>
      <point x="105.26" y="85.8"/>
      <point x="147.54" y="143.92000000000002"/>
      <point x="226.92" y="211.98" type="curve"/>
      <point x="318.1" y="-2.5600000000000005" type="line"/>
      <point x="428.7" y="1.8599999999999999" type="line"/>
      <point x="299.4" y="265.7" type="line"/>
      <point x="424.9" y="362.12"/>
      <point x="479.66" y="461.88000000000005"/>
      <point x="497.82" y="538.6" type="curve"/>
    </contour>
  </outline>
</glyph>
<glyph name="y" format="2">
  <advance width="466.2"/>
  <unicode hex="0079"/>
  <anchor x="167.5" y="-210.0" name="bottom"/>
  <anchor x="262.38" y="538.6" name="top"/>
  <outline>
    <contour>
      <point x="384.8" y="542.02" type="line"/>
      <point x="367.38" y="397.9"/>
      <point x="291.46" y="229.44"/>
      <point x="212.23999999999998" y="78.5" type="curve"/>
      <point x="144.70000000000002" y="544.3" type="line"/>
      <point x="37.980000000000004" y="542.02" type="line"/>
      <point x="127.44000000000001" y="-2.2800000000000002" type="line"/>
      <point x="162.26" y="-2.2800000000000002" type="line"/>
      <point x="121.28" y="-74.68"/>
      <point x="75.14000000000001" y="-143.1"/>
      <point x="27.68" y="-208.86" type="curve"/>
      <point x="134.7" y="-215.7" type="line"/>
      <point x="287.48" y="15.599999999999998"/>
      <point x="465.5" y="333.54"/>
      <point x="487.93999999999994" y="540.88" type="curve"/>
    </contour>
  </outline>
</glyph>
<glyph name="z" format="2">
  <advance width="468.60200000000003"/>
  <unicode hex="007A"/>
  <anchor x="203.71599999999998" y="0.0" name="bottom"/>
  <anchor x="232.68200000000002" y="275.0" name="center"/>
  <anchor x="276.596" y="538.6" name="top"/>
  <outline>
    <contour>
      <point x="-4.020000000000001" y="0.0" type="line"/>
      <point x="407.78600000000006" y="0.0" type="line"/>
      <point x="420.848" y="81.21" type="line"/>
      <point x="133.038" y="81.21" type="line"/>
      <point x="458.884" y="461.432" type="line"/>
      <point x="473.322" y="538.6" type="line"/>
      <point x="88.388" y="538.6" type="line"/>
      <point x="74.896" y="456.87399999999997" type="line"/>
      <point x="337.038" y="456.87399999999997" type="line"/>
      <point x="6.924" y="73.04" type="line"/>
    </contour>
  </outline>
</glyph>
<glyph name="braceleft" format="2">
  <advance width="315.812"/>
  <unicode hex="007B"/>
  <outline>
    <contour>
      <point x="39.1" y="-99.52" type="curve" smooth="yes"/>
      <point x="39.1" y="-170.58"/>
      <point x="78.09599999999999" y="-210.0"/>
      <point x="148.078" y="-210.0" type="curve" smooth="yes"/>
      <point x="210.368" y="-210.0" type="line"/>
      <point x="223.086" y="-133.24" type="line"/>
      <point x="185.822" y="-133.24" type="line" smooth="yes"/>
      <point x="144.72600000000003" y="-133.24"/>
      <point x="129.624" y="-108.9"/>
      <point x="129.624" y="-74.44399999999999" type="curve" smooth="yes"/>
      <point x="129.624" y="16.323999999999998"/>
      <point x="195.34" y="94.258"/>
      <point x="195.34" y="187.884" type="curve" smooth="yes"/>
      <point x="195.34" y="220.44"/>
      <point x="185.64600000000002" y="249.824"/>
      <point x="154.196" y="267.85" type="curve"/>
      <point x="209.55599999999998" y="288.784"/>
      <point x="233.38000000000002" y="355.922"/>
      <point x="233.38000000000002" y="422.61" type="curve" smooth="yes"/>
      <point x="233.38000000000002" y="462.90000000000003"/>
      <point x="227.742" y="491.226"/>
      <point x="227.742" y="537.63" type="curve" smooth="yes"/>
      <point x="227.742" y="594.828"/>
      <point x="245.39000000000001" y="663.24"/>
      <point x="314.65000000000003" y="663.24" type="curve" smooth="yes"/>
      <point x="350.03000000000003" y="663.24" type="line"/>
      <point x="362.232" y="740.0" type="line"/>
      <point x="301.652" y="740.0" type="line" smooth="yes"/>
      <point x="182.57000000000002" y="740.0"/>
      <point x="140.43" y="636.198"/>
      <point x="140.43" y="532.488" type="curve" smooth="yes"/>
      <point x="140.43" y="486.528"/>
      <point x="146.67000000000002" y="453.226"/>
      <point x="146.67000000000002" y="417.606" type="curve" smooth="yes"/>
      <point x="146.67000000000002" y="364.28000000000003"/>
      <point x="134.272" y="307.432"/>
      <point x="89.07600000000001" y="307.432" type="curve" smooth="yes"/>
      <point x="74.162" y="307.432" type="line"/>
      <point x="61.702" y="229.26399999999998" type="line"/>
      <point x="76.16000000000001" y="229.26399999999998" type="line" smooth="yes"/>
      <point x="102.064" y="229.26399999999998"/>
      <point x="110.718" y="211.17200000000003"/>
      <point x="110.718" y="186.7" type="curve" smooth="yes"/>
      <point x="110.718" y="94.562"/>
      <point x="39.1" y="11.219999999999999"/>
    </contour>
  </outline>
</glyph>
<glyph name="bar" format="2">
  <advance width="206.072"/>
  <unicode hex="007C"/>
  <outline>
    <contour>
      <point x="226.62999999999997" y="790.2579999999999" type="line"/>
      <point x="143.7" y="790.2579999999999" type="line"/>
      <point x="-15.815999999999995" y="-210.0" type="line"/>
      <point x="67.2" y="-210.0" type="line"/>
    </contour>
  </outline>
</glyph>
<glyph name="braceright" format="2">
  <advance width="315.812"/>
  <unicode hex="007D"/>
  <outline>
    <contour>
      <point x="273.484" y="629.52" type="curve" smooth="yes"/>
      <point x="273.484" y="700.838"/>
      <point x="234.23" y="740.2579999999999"/>
      <point x="164.24800000000002" y="740.2579999999999" type="curve" smooth="yes"/>
      <point x="101.958" y="740.2579999999999" type="line"/>
      <point x="89.24" y="663.4979999999999" type="line"/>
      <point x="123.924" y="663.4979999999999" type="line" smooth="yes"/>
      <point x="165.27800000000002" y="663.4979999999999"/>
      <point x="180.638" y="638.9000000000001"/>
      <point x="180.638" y="604.444" type="curve" smooth="yes"/>
      <point x="180.638" y="513.16"/>
      <point x="114.92200000000001" y="443.464"/>
      <point x="114.92200000000001" y="344.42" type="curve" smooth="yes"/>
      <point x="114.92200000000001" y="312.638"/>
      <point x="124.358" y="283.254"/>
      <point x="156.324" y="265.486" type="curve"/>
      <point x="100.964" y="244.294"/>
      <point x="76.882" y="177.672"/>
      <point x="76.882" y="110.726" type="curve" smooth="yes"/>
      <point x="76.882" y="70.436"/>
      <point x="82.52000000000001" y="39.032"/>
      <point x="82.52000000000001" y="-6.856" type="curve" smooth="yes"/>
      <point x="82.52000000000001" y="-64.05399999999999"/>
      <point x="65.13" y="-132.982"/>
      <point x="-4.129999999999999" y="-132.982" type="curve" smooth="yes"/>
      <point x="-37.446" y="-132.982" type="line"/>
      <point x="-49.647999999999996" y="-210.0" type="line"/>
      <point x="10.674000000000001" y="-210.0" type="line" smooth="yes"/>
      <point x="129.756" y="-210.0"/>
      <point x="171.89600000000002" y="-102.844"/>
      <point x="171.89600000000002" y="-7.390000000000001" type="curve" smooth="yes"/>
      <point x="171.89600000000002" y="45.536"/>
      <point x="165.656" y="82.948"/>
      <point x="165.656" y="116.762" type="curve" smooth="yes"/>
      <point x="165.656" y="169.572"/>
      <point x="178.57" y="225.90400000000002"/>
      <point x="223.25" y="225.90400000000002" type="curve" smooth="yes"/>
      <point x="238.16400000000002" y="225.90400000000002" type="line"/>
      <point x="250.624" y="303.81399999999996" type="line"/>
      <point x="236.16599999999997" y="303.81399999999996" type="line" smooth="yes"/>
      <point x="210.26200000000003" y="303.81399999999996"/>
      <point x="201.608" y="321.906"/>
      <point x="201.608" y="346.378" type="curve" smooth="yes"/>
      <point x="201.608" y="438.77400000000006"/>
      <point x="273.484" y="515.168"/>
    </contour>
  </outline>
</glyph>
<glyph name="asciitilde" format="2">
  <advance width="464.084"/>
  <unicode hex="007E"/>
  <outline>
    <contour>
      <point x="400.088" y="246.27" type="curve"/>
      <point x="413.72" y="335.972" type="line"/>
      <point x="388.13599999999997" y="311.34000000000003"/>
      <point x="362.63199999999995" y="297.46599999999995"/>
      <point x="331.38800000000003" y="297.46599999999995" type="curve" smooth="yes"/>
      <point x="254.22000000000003" y="297.46599999999995"/>
      <point x="225.212" y="392.72"/>
      <point x="155.0" y="392.72" type="curve" smooth="yes"/>
      <point x="118.19" y="392.72"/>
      <point x="88.964" y="373.188"/>
      <point x="73.58200000000001" y="357.97999999999996" type="curve"/>
      <point x="59.089999999999996" y="268.05" type="line"/>
      <point x="79.688" y="286.58"/>
      <point x="105.82199999999999" y="304.95200000000006"/>
      <point x="140.85" y="304.95200000000006" type="curve" smooth="yes"/>
      <point x="213.61200000000002" y="304.95200000000006"/>
      <point x="241.702" y="209.698"/>
      <point x="320.676" y="209.698" type="curve" smooth="yes"/>
      <point x="350.078" y="209.698"/>
      <point x="376.848" y="223.352"/>
    </contour>
  </outline>
</glyph>
<glyph name="cent" format="2">
  <advance width="610.212"/>
  <unicode hex="00A2"/>
  <outline>
    <contour>
      <point x="233.54399999999998" y="-105.08600000000001" type="line"/>
      <point x="313.378" y="-105.08600000000001" type="line"/>
      <point x="328.808" y="-7.5360000000000005" type="line"/>
      <point x="385.158" y="-4.678000000000001"/>
      <point x="433.864" y="4.002000000000001"/>
      <point x="466.456" y="14.124" type="curve"/>
      <point x="464.29" y="100.29599999999999" type="line"/>
      <point x="423.88000000000005" y="91.494"/>
      <point x="374.98400000000004" y="82.706"/>
      <point x="335.92" y="82.706" type="curve" smooth="yes"/>
      <point x="252.048" y="82.706"/>
      <point x="213.11399999999998" y="124.72"/>
      <point x="213.11399999999998" y="198.11" type="curve" smooth="yes"/>
      <point x="213.11399999999998" y="341.086"/>
      <point x="284.89200000000005" y="454.092"/>
      <point x="393.51800000000003" y="454.092" type="curve" smooth="yes"/>
      <point x="437.23799999999994" y="454.092"/>
      <point x="471.072" y="446.958"/>
      <point x="510.41399999999993" y="436.412" type="curve"/>
      <point x="539.288" y="527.366" type="line"/>
      <point x="502.4" y="537.794"/>
      <point x="466.694" y="545.5079999999999"/>
      <point x="418.978" y="546.968" type="curve"/>
      <point x="434.922" y="643.342" type="line"/>
      <point x="355.0880000000001" y="643.342" type="line"/>
      <point x="338.112" y="539.86" type="line"/>
      <point x="191.47400000000002" y="511.044"/>
      <point x="107.08200000000001" y="352.86400000000003"/>
      <point x="107.08200000000001" y="168.99" type="curve" smooth="yes"/>
      <point x="107.08200000000001" y="58.346000000000004"/>
      <point x="163.558" y="8.617999999999999"/>
      <point x="249.006" y="-3.3240000000000003" type="curve"/>
    </contour>
  </outline>
</glyph>
<glyph name="sterling" format="2">
  <advance width="611.2439999999999"/>
  <unicode hex="00A3"/>
  <outline>
    <contour>
      <point x="55.364000000000004" y="0.0" type="line"/>
      <point x="490.67999999999995" y="0.0" type="line"/>
      <point x="504.00000000000006" y="86.21999999999998" type="line"/>
      <point x="190.088" y="86.21999999999998" type="line"/>
      <point x="253.00799999999995" y="146.97200000000004"/>
      <point x="289.23999999999995" y="203.184"/>
      <point x="289.23999999999995" y="286.712" type="curve" smooth="yes"/>
      <point x="289.23999999999995" y="340.84"/>
      <point x="261.456" y="398.336"/>
      <point x="261.456" y="454.988" type="curve" smooth="yes"/>
      <point x="261.456" y="568.184"/>
      <point x="333.85200000000003" y="617.872"/>
      <point x="419.624" y="617.872" type="curve" smooth="yes"/>
      <point x="467.93199999999996" y="617.872"/>
      <point x="511.21999999999997" y="611.732"/>
      <point x="559.256" y="594.536" type="curve"/>
      <point x="588.812" y="677.8399999999999" type="line"/>
      <point x="534.12" y="700.364"/>
      <point x="477.42" y="710.0"/>
      <point x="418.884" y="710.0" type="curve" smooth="yes"/>
      <point x="279.76" y="710.0"/>
      <point x="162.56" y="623.5959999999999"/>
      <point x="162.56" y="470.74800000000005" type="curve" smooth="yes"/>
      <point x="162.56" y="393.96400000000006"/>
      <point x="192.84" y="344.7559999999999"/>
      <point x="192.84" y="279.21599999999995" type="curve" smooth="yes"/>
      <point x="192.84" y="191.10799999999998"/>
      <point x="139.80400000000003" y="131.708"/>
      <point x="64.992" y="69.88" type="curve"/>
    </contour>
    <contour>
      <point x="89.14" y="316.064" type="line"/>
      <point x="470.752" y="316.176" type="line"/>
      <point x="482.352" y="393.544" type="line"/>
      <point x="100.74" y="393.544" type="line"/>
    </contour>
  </outline>
</glyph>
<glyph name="currency" format="2">
  <advance width="421.928"/>
  <unicode hex="00A4"/>
  <outline>
    <contour>
      <point x="64.75" y="103.282" type="line"/>
      <point x="138.618" y="173.036" type="line"/>
      <point x="152.492" y="160.776"/>
      <point x="171.072" y="154.334"/>
      <point x="192.988" y="154.334" type="curve" smooth="yes"/>
      <point x="214.504" y="154.334"/>
      <point x="235.506" y="161.00400000000002"/>
      <point x="253.658" y="172.95" type="curve"/>
      <point x="306.304" y="103.282" type="line"/>
      <point x="366.912" y="160.368" type="line"/>
      <point x="318.71000000000004" y="224.446" type="line"/>
      <point x="337.82800000000003" y="249.062"/>
      <point x="350.49600000000004" y="280.57800000000003"/>
      <point x="351.01200000000006" y="314.948" type="curve" smooth="yes"/>
      <point x="351.528" y="333.044"/>
      <point x="347.93600000000004" y="350.144"/>
      <point x="341.236" y="364.90599999999995" type="curve"/>
      <point x="409.398" y="428.98400000000004" type="line"/>
      <point x="367.15000000000003" y="486.07" type="line"/>
      <point x="293.226" y="417.176" type="line"/>
      <point x="278.894" y="429.35"/>
      <point x="259.686" y="436.62"/>
      <point x="237.74" y="436.62" type="curve" smooth="yes"/>
      <point x="215.566" y="436.62"/>
      <point x="194.448" y="429.092"/>
      <point x="176.124" y="417.09000000000003" type="curve"/>
      <point x="125.424" y="486.07" type="line"/>
      <point x="64.98400000000001" y="428.98400000000004" type="line"/>
      <point x="111.84599999999999" y="364.81800000000004" type="line"/>
      <point x="92.67200000000001" y="340.862"/>
      <point x="80.83200000000001" y="310.118"/>
      <point x="80.316" y="276.75" type="curve" smooth="yes"/>
      <point x="79.8" y="257.34"/>
      <point x="83.134" y="239.382"/>
      <point x="90.006" y="224.306" type="curve"/>
      <point x="22.326" y="160.368" type="line"/>
    </contour>
    <contour>
      <point x="203.60999999999999" y="217.76399999999998" type="curve" smooth="yes"/>
      <point x="167.97199999999998" y="217.76399999999998"/>
      <point x="143.952" y="245.03599999999997"/>
      <point x="144.726" y="282.786" type="curve" smooth="yes"/>
      <point x="145.49999999999997" y="331.94"/>
      <point x="185.406" y="372.932"/>
      <point x="227.77400000000003" y="372.932" type="curve" smooth="yes"/>
      <point x="263.926" y="372.932"/>
      <point x="287.34600000000006" y="344.77"/>
      <point x="286.572" y="307.594" type="curve" smooth="yes"/>
      <point x="285.798" y="257.75"/>
      <point x="246.432" y="217.76399999999998"/>
    </contour>
  </outline>
</glyph>
<glyph name="yen" format="2">
  <advance width="611.3000000000001"/>
  <unicode hex="00A5"/>
  <outline>
    <contour>
      <point x="109.96000000000001" y="322.86" type="line"/>
      <point x="260.9" y="322.86" type="line"/>
      <point x="248.94000000000003" y="250.26" type="line"/>
      <point x="99.0" y="250.26" type="line"/>
      <point x="88.98" y="186.54000000000002" type="line"/>
      <point x="239.05999999999997" y="186.54000000000002" type="line"/>
      <point x="209.78" y="0.0" type="line"/>
      <point x="316.35999999999996" y="0.0" type="line"/>
      <point x="346.5" y="186.54000000000002" type="line"/>
      <point x="500.44" y="186.54000000000002" type="line"/>
      <point x="509.46" y="250.26" type="line"/>
      <point x="355.52" y="250.26" type="line"/>
      <point x="367.47999999999996" y="322.86" type="line"/>
      <point x="521.2800000000001" y="322.86" type="line"/>
      <point x="531.3000000000001" y="385.0" type="line"/>
      <point x="378.36" y="385.0" type="line"/>
      <point x="606.62" y="698.72" type="line"/>
      <point x="498.02" y="704.56" type="line"/>
      <point x="335.24" y="452.88" type="line"/>
      <point x="248.56" y="702.28" type="line"/>
      <point x="138.68" y="698.72" type="line"/>
      <point x="270.78000000000003" y="385.0" type="line"/>
      <point x="120.84" y="385.0" type="line"/>
    </contour>
  </outline>
</glyph>
<glyph name="brokenbar" format="2">
  <advance width="207.704"/>
  <unicode hex="00A6"/>
  <outline>
    <contour>
      <point x="163.49" y="391.0" type="line"/>
      <point x="228.178" y="790.2579999999999" type="line"/>
      <point x="145.24800000000002" y="790.2579999999999" type="line"/>
      <point x="80.56000000000002" y="391.0" type="line"/>
    </contour>
    <contour>
      <point x="48.614000000000004" y="190.258" type="line"/>
      <point x="-15.473999999999993" y="-210.0" type="line"/>
      <point x="67.284" y="-210.0" type="line"/>
      <point x="131.63" y="190.258" type="line"/>
    </contour>
  </outline>
</glyph>
<glyph name="section" format="2">
  <advance width="485.88399999999996"/>
  <unicode hex="00A7"/>
  <outline>
    <contour>
      <point x="11.288" y="-80.328" type="curve"/>
      <point x="-27.448" y="-172.868" type="line"/>
      <point x="18.336" y="-203.322"/>
      <point x="71.988" y="-220.0"/>
      <point x="125.57" y="-220.0" type="curve" smooth="yes"/>
      <point x="296.40999999999997" y="-220.0"/>
      <point x="428.968" y="-62.726"/>
      <point x="428.968" y="138.694" type="curve" smooth="yes"/>
      <point x="428.968" y="302.39799999999997"/>
      <point x="322.986" y="414.21999999999997"/>
      <point x="322.986" y="542.486" type="curve" smooth="yes"/>
      <point x="322.986" y="603.264"/>
      <point x="352.826" y="646.762"/>
      <point x="403.06600000000003" y="646.762" type="curve" smooth="yes"/>
      <point x="422.132" y="646.762"/>
      <point x="437.14399999999995" y="641.1379999999999"/>
      <point x="454.962" y="633.17" type="curve"/>
      <point x="487.87" y="729.624" type="line"/>
      <point x="455.03200000000004" y="742.7420000000001"/>
      <point x="407.196" y="749.2579999999999"/>
      <point x="368.64799999999997" y="749.2579999999999" type="curve" smooth="yes"/>
      <point x="187.50799999999998" y="749.2579999999999"/>
      <point x="61.562000000000005" y="597.424"/>
      <point x="61.562000000000005" y="394.83" type="curve" smooth="yes"/>
      <point x="61.562000000000005" y="215.6"/>
      <point x="166.382" y="89.306"/>
      <point x="166.382" y="-25.796" type="curve" smooth="yes"/>
      <point x="166.382" y="-78.748"/>
      <point x="135.26" y="-117.25600000000001"/>
      <point x="93.946" y="-117.25600000000001" type="curve" smooth="yes"/>
      <point x="64.794" y="-117.25600000000001"/>
      <point x="35.664" y="-101.91"/>
    </contour>
    <contour>
      <point x="324.826" y="684.366" type="curve"/>
      <point x="270.592" y="652.218"/>
      <point x="248.882" y="591.424"/>
      <point x="248.882" y="531.8439999999999" type="curve" smooth="yes"/>
      <point x="248.882" y="387.148"/>
      <point x="350.166" y="264.18"/>
      <point x="350.166" y="116.93400000000001" type="curve" smooth="yes"/>
      <point x="350.166" y="-24.427999999999997"/>
      <point x="266.826" y="-161.322"/>
      <point x="142.654" y="-163.988" type="curve"/>
      <point x="209.12199999999999" y="-139.01"/>
      <point x="241.744" y="-68.734"/>
      <point x="241.744" y="-2.7580000000000076" type="curve" smooth="yes"/>
      <point x="241.744" y="125.816"/>
      <point x="142.396" y="255.12"/>
      <point x="142.396" y="403.15999999999997" type="curve" smooth="yes"/>
      <point x="142.396" y="543.912"/>
      <point x="206.692" y="663.55"/>
    </contour>
  </outline>
</glyph>
<glyph name="copyright" format="2">
  <advance width="693.4539999999998"/>
  <unicode hex="00A9"/>
  <outline>
    <contour>
      <point x="326.40799999999996" y="-10.344000000000001" type="curve" smooth="yes"/>
      <point x="557.144" y="-11.032"/>
      <point x="657.1419999999999" y="169.22400000000002"/>
      <point x="657.1419999999999" y="401.19399999999996" type="curve" smooth="yes"/>
      <point x="657.1419999999999" y="585.1680000000001"/>
      <point x="576.208" y="708.8820000000001"/>
      <point x="392.938" y="709.57" type="curve" smooth="yes"/>
      <point x="164.524" y="710.258"/>
      <point x="60.05399999999999" y="533.442"/>
      <point x="60.05399999999999" y="298.376" type="curve" smooth="yes"/>
      <point x="60.05399999999999" y="115.434"/>
      <point x="140.29999999999998" y="-9.656"/>
    </contour>
    <contour>
      <point x="349.78600000000006" y="154.90800000000002" type="curve" smooth="yes"/>
      <point x="388.26800000000003" y="154.90800000000002"/>
      <point x="427.33" y="163.316"/>
      <point x="455.57599999999996" y="174.358" type="curve"/>
      <point x="451.168" y="232.08999999999997" type="line"/>
      <point x="425.95399999999995" y="224.23"/>
      <point x="395.80400000000003" y="219.058"/>
      <point x="368.416" y="219.058" type="curve" smooth="yes"/>
      <point x="319.694" y="219.058"/>
      <point x="290.66" y="248.60799999999998"/>
      <point x="290.66" y="297.2" type="curve" smooth="yes"/>
      <point x="290.66" y="391.646"/>
      <point x="335.556" y="473.318"/>
      <point x="404.15" y="473.318" type="curve" smooth="yes"/>
      <point x="432.01" y="473.318"/>
      <point x="454.49399999999997" y="470.49"/>
      <point x="480.612" y="463.35" type="curve"/>
      <point x="498.652" y="527.586" type="line"/>
      <point x="473.47999999999996" y="535.9300000000001"/>
      <point x="442.66400000000004" y="540.822"/>
      <point x="406.064" y="540.822" type="curve" smooth="yes"/>
      <point x="299.67" y="540.822"/>
      <point x="217.79199999999997" y="441.31600000000003"/>
      <point x="217.79199999999997" y="295.10400000000004" type="curve" smooth="yes"/>
      <point x="217.79199999999997" y="203.62600000000003"/>
      <point x="266.682" y="154.90800000000002"/>
    </contour>
    <contour>
      <point x="331.762" y="33.596" type="curve" smooth="yes"/>
      <point x="172.61800000000002" y="33.596"/>
      <point x="107.60600000000001" y="135.872"/>
      <point x="107.60600000000001" y="301.54800000000006" type="curve" smooth="yes"/>
      <point x="107.60600000000001" y="502.21999999999997"/>
      <point x="183.5" y="665.974"/>
      <point x="387.8419999999999" y="665.974" type="curve" smooth="yes"/>
      <point x="543.5459999999999" y="665.974"/>
      <point x="609.5899999999999" y="563.3539999999999"/>
      <point x="609.5899999999999" y="398.36600000000004" type="curve" smooth="yes"/>
      <point x="609.5899999999999" y="198.38200000000003"/>
      <point x="535.4159999999999" y="33.596"/>
    </contour>
  </outline>
</glyph>
<glyph name="ordfeminine" format="2">
  <advance width="361.44800000000004"/>
  <unicode hex="00AA"/>
  <outline>
    <contour>
      <point x="36.304" y="257.402" type="line"/>
      <point x="316.57000000000005" y="257.402" type="line"/>
      <point x="325.24600000000004" y="312.386" type="line"/>
      <point x="44.980000000000004" y="312.386" type="line"/>
    </contour>
    <component base="a.superior" xOffset="10.964"/>
  </outline>
</glyph>
<glyph name="logicalnot" format="2">
  <advance width="460.2"/>
  <unicode hex="00AC"/>
  <outline>
    <contour>
      <point x="60.861999999999995" y="344.522" type="line"/>
      <point x="337.28" y="344.522" type="line"/>
      <point x="310.872" y="173.216" type="line"/>
      <point x="393.88599999999997" y="173.216" type="line"/>
      <point x="434.302" y="428.742" type="line"/>
      <point x="74.87" y="428.742" type="line"/>
    </contour>
  </outline>
</glyph>
<glyph name="registered" format="2">
  <advance width="604.7600000000001"/>
  <unicode hex="00AE"/>
  <outline>
    <contour>
      <point x="298.74600000000004" y="209.312" type="curve" smooth="yes"/>
      <point x="491.87" y="209.312"/>
      <point x="606.0500000000001" y="390.90999999999997"/>
      <point x="606.0500000000001" y="641.6980000000001" type="curve" smooth="yes"/>
      <point x="606.0500000000001" y="796.188"/>
      <point x="532.01" y="893.172"/>
      <point x="391.75600000000003" y="893.172" type="curve" smooth="yes"/>
      <point x="198.63199999999998" y="893.172"/>
      <point x="86.79599999999999" y="710.5740000000001"/>
      <point x="86.79599999999999" y="460.78599999999994" type="curve" smooth="yes"/>
      <point x="86.79599999999999" y="306.64"/>
      <point x="158.148" y="209.312"/>
    </contour>
    <contour>
      <point x="302.53000000000003" y="249.994" type="curve" smooth="yes"/>
      <point x="186.606" y="249.994"/>
      <point x="130.166" y="334.12"/>
      <point x="130.166" y="460.84" type="curve" smooth="yes"/>
      <point x="130.166" y="688.458"/>
      <point x="223.64999999999998" y="851.8340000000001"/>
      <point x="388.316" y="851.8340000000001" type="curve" smooth="yes"/>
      <point x="504.24000000000007" y="851.8340000000001"/>
      <point x="562.68" y="768.364"/>
      <point x="562.68" y="640.644" type="curve" smooth="yes"/>
      <point x="562.68" y="413.02599999999995"/>
      <point x="466.85200000000003" y="249.994"/>
    </contour>
    <contour>
      <point x="210.34400000000002" y="384.542" type="line"/>
      <point x="274.128" y="384.542" type="line"/>
      <point x="293.892" y="508.072" type="line"/>
      <point x="309.50800000000004" y="506.932"/>
      <point x="324.348" y="505.44800000000004"/>
      <point x="346.008" y="506.19" type="curve"/>
      <point x="378.68999999999994" y="517.736" type="line"/>
      <point x="443.818" y="524.318"/>
      <point x="485.91" y="566.532"/>
      <point x="485.91" y="641.86" type="curve" smooth="yes"/>
      <point x="485.91" y="703.45"/>
      <point x="451.062" y="729.824"/>
      <point x="369.862" y="729.824" type="curve" smooth="yes"/>
      <point x="339.60400000000004" y="729.824"/>
      <point x="307.672" y="728.566"/>
      <point x="264.762" y="724.222" type="curve"/>
    </contour>
    <contour>
      <point x="343.00399999999996" y="554.322" type="curve" smooth="yes"/>
      <point x="329.722" y="554.322"/>
      <point x="319.032" y="555.064"/>
      <point x="301.794" y="555.7199999999999" type="curve"/>
      <point x="319.698" y="673.564" type="line"/>
      <point x="341.946" y="675.618"/>
      <point x="348.71000000000004" y="676.618"/>
      <point x="368.00199999999995" y="676.618" type="curve" smooth="yes"/>
      <point x="407.436" y="676.618"/>
      <point x="422.094" y="664.456"/>
      <point x="422.094" y="635.8399999999999" type="curve" smooth="yes"/>
      <point x="422.094" y="584.644"/>
      <point x="400.94200000000006" y="554.322"/>
    </contour>
    <contour>
      <point x="449.648" y="381.08000000000004" type="curve" smooth="yes"/>
      <point x="451.93800000000005" y="381.08000000000004"/>
      <point x="459.06600000000003" y="381.59599999999995"/>
      <point x="463.9579999999999" y="383.37" type="curve"/>
      <point x="472.23599999999993" y="444.262" type="line"/>
      <point x="469.5479999999999" y="443.778"/>
      <point x="467.54799999999994" y="443.778"/>
      <point x="465.94599999999997" y="443.778" type="curve" smooth="yes"/>
      <point x="446.386" y="443.778"/>
      <point x="419.90200000000004" y="473.254"/>
      <point x="399.062" y="534.562" type="curve"/>
      <point x="334.76200000000006" y="517.888" type="line"/>
      <point x="375.19000000000005" y="411.5"/>
      <point x="408.576" y="381.08000000000004"/>
    </contour>
  </outline>
</glyph>
<glyph name="degree" format="2">
  <advance width="283.40999999999997"/>
  <unicode hex="00B0"/>
  <outline>
    <contour>
      <point x="170.3" y="445.696" type="curve" smooth="yes"/>
      <point x="252.336" y="445.696"/>
      <point x="304.592" y="527.6379999999999"/>
      <point x="304.592" y="614.0939999999999" type="curve" smooth="yes"/>
      <point x="304.592" y="672.476"/>
      <point x="275.92" y="719.9159999999999"/>
      <point x="210.46800000000002" y="719.9159999999999" type="curve" smooth="yes"/>
      <point x="128.406" y="719.9159999999999"/>
      <point x="76.262" y="636.496"/>
      <point x="76.262" y="550.496" type="curve" smooth="yes"/>
      <point x="76.262" y="492.166"/>
      <point x="105.538" y="445.696"/>
    </contour>
    <contour>
      <point x="180.18" y="517.1240000000001" type="curve" smooth="yes"/>
      <point x="155.034" y="517.1240000000001"/>
      <point x="142.13400000000001" y="536.8159999999999"/>
      <point x="142.13400000000001" y="564.304" type="curve" smooth="yes"/>
      <point x="142.13400000000001" y="607.43"/>
      <point x="165.474" y="647.456"/>
      <point x="200.416" y="647.456" type="curve" smooth="yes"/>
      <point x="226.332" y="647.456"/>
      <point x="238.776" y="627.024"/>
      <point x="238.776" y="599.394" type="curve" smooth="yes"/>
      <point x="238.776" y="557.04"/>
      <point x="214.77800000000002" y="517.1240000000001"/>
    </contour>
  </outline>
</glyph>
<glyph name="plusminus" format="2">
  <advance width="461.228"/>
  <unicode hex="00B1"/>
  <outline>
    <contour>
      <point x="374.69399999999996" y="42.008" type="line"/>
      <point x="388.702" y="129.15" type="line"/>
      <point x="250.93200000000002" y="129.15" type="line"/>
      <point x="275.79200000000003" y="285.75600000000003" type="line"/>
      <point x="413.22" y="285.75600000000003" type="line"/>
      <point x="427.22799999999995" y="372.898" type="line"/>
      <point x="289.8" y="372.898" type="line"/>
      <point x="315.66200000000003" y="527.97" type="line"/>
      <point x="228.52" y="527.97" type="line"/>
      <point x="202.656" y="372.898" type="line"/>
      <point x="65.06" y="372.898" type="line"/>
      <point x="51.05200000000001" y="285.75600000000003" type="line"/>
      <point x="188.65" y="285.75600000000003" type="line"/>
      <point x="163.44600000000003" y="129.15" type="line"/>
      <point x="26.534000000000002" y="129.15" type="line"/>
      <point x="12.526" y="42.008" type="line"/>
    </contour>
  </outline>
</glyph>
<glyph name="uni00B2" format="2">
  <advance width="354.9"/>
  <unicode hex="00B2"/>
  <outline>
    <contour>
      <point x="50.82" y="368.774" type="line"/>
      <point x="332.338" y="368.774" type="line"/>
      <point x="340.30400000000003" y="419.314" type="line"/>
      <point x="157.628" y="419.314" type="line"/>
      <point x="255.804" y="503.416"/>
      <point x="344.658" y="584.968"/>
      <point x="344.658" y="682.766" type="curve" smooth="yes"/>
      <point x="344.658" y="742.194"/>
      <point x="300.662" y="772.774"/>
      <point x="238.804" y="772.774" type="curve" smooth="yes"/>
      <point x="195.29" y="772.774"/>
      <point x="144.132" y="757.8820000000001"/>
      <point x="107.80000000000001" y="734.936" type="curve"/>
      <point x="122.93799999999999" y="680.8280000000001" type="line"/>
      <point x="154.508" y="699.904"/>
      <point x="183.788" y="709.474"/>
      <point x="212.95000000000002" y="709.474" type="curve" smooth="yes"/>
      <point x="247.264" y="709.474"/>
      <point x="266.652" y="690.548"/>
      <point x="266.652" y="657.524" type="curve" smooth="yes"/>
      <point x="265.90999999999997" y="583.39"/>
      <point x="176.768" y="499.85"/>
      <point x="56.668" y="411.32599999999996" type="curve"/>
    </contour>
  </outline>
</glyph>
<glyph name="uni00B3" format="2">
  <advance width="359.11"/>
  <unicode hex="00B3"/>
  <outline>
    <contour>
      <point x="39.72" y="398.7" type="line"/>
      <point x="75.45" y="374.71000000000004"/>
      <point x="123.89" y="364.0"/>
      <point x="172.06" y="364.0" type="curve" smooth="yes"/>
      <point x="275.04999999999995" y="364.0"/>
      <point x="355.27" y="406.68"/>
      <point x="355.27" y="491.58000000000004" type="curve" smooth="yes"/>
      <point x="355.27" y="535.0"/>
      <point x="332.27" y="565.27"/>
      <point x="299.27" y="575.42" type="curve"/>
      <point x="339.99999999999994" y="592.43"/>
      <point x="370.72" y="622.29"/>
      <point x="370.72" y="674.15" type="curve" smooth="yes"/>
      <point x="370.72" y="731.29"/>
      <point x="321.83" y="773.29"/>
      <point x="237.07" y="773.29" type="curve" smooth="yes"/>
      <point x="190.18" y="773.29"/>
      <point x="144.42" y="764.28"/>
      <point x="109.28" y="747.85" type="curve"/>
      <point x="117.57" y="699.02" type="line"/>
      <point x="148.57" y="710.4399999999999"/>
      <point x="184.87" y="716.01"/>
      <point x="218.44" y="716.01" type="curve" smooth="yes"/>
      <point x="269.56" y="716.01"/>
      <point x="299.97" y="694.47"/>
      <point x="299.97" y="656.96" type="curve" smooth="yes"/>
      <point x="299.97" y="616.59"/>
      <point x="265.57000000000005" y="597.61"/>
      <point x="217.14" y="597.61" type="curve" smooth="yes"/>
      <point x="150.02" y="597.61" type="line"/>
      <point x="142.0" y="552.0799999999999" type="line"/>
      <point x="205.26000000000002" y="552.0799999999999" type="line" smooth="yes"/>
      <point x="262.84" y="552.0799999999999"/>
      <point x="288.1" y="533.2399999999999"/>
      <point x="288.1" y="492.45" type="curve" smooth="yes"/>
      <point x="288.1" y="446.65999999999997"/>
      <point x="244.28" y="418.7"/>
      <point x="169.63" y="418.7" type="curve" smooth="yes"/>
      <point x="130.49" y="418.7"/>
      <point x="95.33999999999999" y="428.54999999999995"/>
      <point x="67.19999999999999" y="446.53" type="curve"/>
    </contour>
  </outline>
</glyph>
<glyph name="uni00B5" format="2">
  <advance width="522.516"/>
  <unicode hex="00B5"/>
  <outline>
    <contour>
      <point x="-16.464" y="-210.0" type="line"/>
      <point x="83.98" y="-210.0" type="line"/>
      <point x="120.94" y="23.062000000000005" type="line"/>
      <point x="129.872" y="1.8000000000000007"/>
      <point x="150.45999999999998" y="-10.0"/>
      <point x="182.02200000000002" y="-10.0" type="curve" smooth="yes"/>
      <point x="233.31400000000002" y="-10.0"/>
      <point x="281.01000000000005" y="9.024000000000001"/>
      <point x="333.85" y="47.6" type="curve"/>
      <point x="342.014" y="11.36"/>
      <point x="369.98600000000005" y="-10.0"/>
      <point x="410.158" y="-10.0" type="curve" smooth="yes"/>
      <point x="431.574" y="-10.0"/>
      <point x="460.866" y="-2.6159999999999997"/>
      <point x="480.54600000000005" y="10.234" type="curve"/>
      <point x="483.4839999999999" y="82.28" type="line"/>
      <point x="473.178" y="78.48400000000001"/>
      <point x="463.13400000000007" y="76.774"/>
      <point x="458.112" y="76.774" type="curve" smooth="yes"/>
      <point x="440.108" y="76.774"/>
      <point x="431.458" y="86.848"/>
      <point x="431.458" y="109.59599999999999" type="curve" smooth="yes"/>
      <point x="431.458" y="118.52799999999999"/>
      <point x="433.14200000000005" y="135.98999999999998"/>
      <point x="497.89400000000006" y="538.6" type="curve"/>
      <point x="396.79400000000004" y="538.6" type="line"/>
      <point x="330.64" y="115.70800000000001" type="line"/>
      <point x="286.886" y="90.808"/>
      <point x="245.538" y="76.428"/>
      <point x="204.086" y="76.428" type="curve" smooth="yes"/>
      <point x="161.288" y="76.428"/>
      <point x="139.658" y="97.74"/>
      <point x="140.174" y="134.33" type="curve" smooth="yes"/>
      <point x="146.108" y="178.422"/>
      <point x="159.87800000000001" y="274.476"/>
      <point x="202.33200000000002" y="538.6" type="curve"/>
      <point x="101.202" y="538.6" type="line"/>
    </contour>
  </outline>
</glyph>
<glyph name="paragraph" format="2">
  <advance width="564.898"/>
  <unicode hex="00B6"/>
  <outline>
    <contour>
      <point x="346.692" y="-210.0" type="line"/>
      <point x="424.548" y="-210.0" type="line"/>
      <point x="575.494" y="740.0" type="line"/>
      <point x="497.6379999999999" y="740.0" type="line"/>
    </contour>
    <contour>
      <point x="229.95" y="268.432" type="line"/>
      <point x="179.78199999999998" y="277.736"/>
      <point x="147.032" y="324.764"/>
      <point x="147.032" y="396.854" type="curve" smooth="yes"/>
      <point x="147.032" y="524.7719999999999"/>
      <point x="206.03199999999998" y="650.116"/>
      <point x="329.15599999999995" y="653.368" type="curve"/>
      <point x="192.562" y="-210.0" type="line"/>
      <point x="270.418" y="-210.0" type="line"/>
      <point x="421.364" y="740.0" type="line"/>
      <point x="368.144" y="740.0" type="line" smooth="yes"/>
      <point x="170.85000000000002" y="740.0"/>
      <point x="61.152" y="591.778"/>
      <point x="61.152" y="392.906" type="curve" smooth="yes"/>
      <point x="61.152" y="288.394"/>
      <point x="112.922" y="218.712"/>
      <point x="209.9" y="202.534" type="curve"/>
    </contour>
  </outline>
</glyph>
<glyph name="periodcentered" format="2">
  <advance width="195.89999999999998"/>
  <unicode hex="00B7"/>
  <outline>
    <contour>
      <point x="43.184" y="287.46799999999996" type="curve" smooth="yes"/>
      <point x="42.1" y="256.548"/>
      <point x="56.168" y="242.48"/>
      <point x="92.136" y="242.48" type="curve" smooth="yes"/>
      <point x="140.592" y="242.48"/>
      <point x="159.652" y="275.3"/>
      <point x="160.84799999999998" y="318.35200000000003" type="curve" smooth="yes"/>
      <point x="161.932" y="349.188"/>
      <point x="147.08800000000002" y="363.34000000000003"/>
      <point x="111.98" y="363.34000000000003" type="curve" smooth="yes"/>
      <point x="65.244" y="363.34000000000003"/>
      <point x="44.38" y="329.66"/>
    </contour>
  </outline>
</glyph>
<glyph name="uni00B9" format="2">
  <advance width="338.55400000000003"/>
  <unicode hex="00B9"/>
  <outline>
    <contour>
      <point x="46.382" y="370.0" type="line"/>
      <point x="331.556" y="370.0" type="line"/>
      <point x="340.52200000000005" y="422.72" type="line"/>
      <point x="242.274" y="422.72" type="line"/>
      <point x="299.03" y="767.996" type="line"/>
      <point x="259.534" y="767.996" type="line"/>
      <point x="92.40199999999999" y="694.618" type="line"/>
      <point x="99.37799999999999" y="636.904" type="line"/>
      <point x="213.988" y="689.796" type="line"/>
      <point x="169.718" y="422.72" type="line"/>
      <point x="54.946" y="422.72" type="line"/>
    </contour>
  </outline>
</glyph>
<glyph name="ordmasculine" format="2">
  <advance width="340.52599999999995"/>
  <unicode hex="00BA"/>
  <outline>
    <contour>
      <point x="34.254" y="257.402" type="line"/>
      <point x="298.478" y="257.402" type="line"/>
      <point x="306.812" y="312.386" type="line"/>
      <point x="42.58800000000001" y="312.386" type="line"/>
    </contour>
    <component base="o.superior" xOffset="11.42"/>
  </outline>
</glyph>
<glyph name="AE" format="2">
  <advance width="858.1159999999999"/>
  <unicode hex="00C6"/>
  <anchor x="397.64886399999995" y="0.0" name="bottom"/>
  <anchor x="527.656" y="700.0" name="top"/>
  <outline>
    <contour>
      <point x="346.684" y="0.0" type="line"/>
      <point x="786.6679999999999" y="0.0" type="line"/>
      <point x="800.8479999999998" y="91.24" type="line"/>
      <point x="459.84399999999994" y="91.24" type="line"/>
      <point x="494.39200000000005" y="307.208" type="line"/>
      <point x="791.004" y="307.208" type="line"/>
      <point x="806.0440000000001" y="398.44800000000004" type="line"/>
      <point x="509.432" y="398.44800000000004" type="line"/>
      <point x="542.4000000000001" y="608.76" type="line"/>
      <point x="867.376" y="608.76" type="line"/>
      <point x="882.5" y="700.0" type="line"/>
      <point x="390.728" y="700.0" type="line"/>
      <point x="-40.467999999999996" y="0.0" type="line"/>
      <point x="79.768" y="0.0" type="line"/>
      <point x="223.936" y="242.70799999999997" type="line"/>
      <point x="384.232" y="242.70799999999997" type="line"/>
    </contour>
    <contour>
      <point x="272.168" y="326.208" type="line"/>
      <point x="441.616" y="611.088" type="line"/>
      <point x="397.552" y="326.208" type="line"/>
    </contour>
  </outline>
</glyph>
<glyph name="multiply" format="2">
  <advance width="430.568"/>
  <unicode hex="00D7"/>
  <outline>
    <contour>
      <point x="79.952" y="100.22" type="line"/>
      <point x="213.48000000000002" y="245.752" type="line"/>
      <point x="295.216" y="100.556" type="line"/>
      <point x="360.23600000000005" y="164.016" type="line"/>
      <point x="278.08" y="306.004" type="line"/>
      <point x="410.92400000000004" y="453.65599999999995" type="line"/>
      <point x="361.66400000000004" y="515.452" type="line"/>
      <point x="231.296" y="370.612" type="line"/>
      <point x="145.83999999999997" y="515.452" type="line"/>
      <point x="80.82" y="453.712" type="line"/>
      <point x="165.752" y="308.72400000000005" type="line"/>
      <point x="30.692" y="161.156" type="line"/>
    </contour>
  </outline>
</glyph>
<glyph name="Oslash" format="2">
  <advance width="654.0799999999999"/>
  <unicode hex="00D8"/>
  <anchor x="381.32" y="700.0" name="top"/>
  <outline>
    <contour>
      <point x="685.66" y="710.0" type="line"/>
      <point x="594.4399999999999" y="710.0" type="line"/>
      <point x="513.18" y="611.44" type="line"/>
      <point x="510.4599999999999" y="612.3000000000001" type="line"/>
      <point x="121.62" y="150.27999999999997" type="line"/>
      <point x="118.9" y="151.14000000000001" type="line"/>
      <point x="-12.620000000000001" y="-5.7" type="line"/>
      <point x="79.32" y="-5.7" type="line"/>
      <point x="158.28" y="89.7" type="line"/>
      <point x="161.0" y="88.84" type="line"/>
      <point x="551.84" y="553.72" type="line"/>
      <point x="554.5600000000001" y="552.8599999999999" type="line"/>
    </contour>
    <contour>
      <point x="299.46" y="-8.28" type="curve" smooth="yes"/>
      <point x="506.5199999999999" y="-8.28"/>
      <point x="626.0999999999999" y="170.04"/>
      <point x="626.0999999999999" y="418.1" type="curve" smooth="yes"/>
      <point x="626.0999999999999" y="602.5400000000001"/>
      <point x="538.36" y="708.28"/>
      <point x="374.3" y="708.28" type="curve" smooth="yes"/>
      <point x="167.23999999999998" y="708.28"/>
      <point x="47.660000000000004" y="530.8199999999999"/>
      <point x="47.660000000000004" y="281.04" type="curve" smooth="yes"/>
      <point x="47.660000000000004" y="96.6"/>
      <point x="135.4" y="-8.28"/>
    </contour>
    <contour>
      <point x="307.92" y="80.24000000000001" type="curve" smooth="yes"/>
      <point x="218.2" y="80.24000000000001"/>
      <point x="154.38" y="138.54000000000002"/>
      <point x="154.38" y="269.42" type="curve" smooth="yes"/>
      <point x="154.38" y="486.86"/>
      <point x="235.42" y="619.76"/>
      <point x="369.28" y="619.76" type="curve" smooth="yes"/>
      <point x="456.42" y="619.76"/>
      <point x="519.38" y="561.46"/>
      <point x="519.38" y="430.58" type="curve" smooth="yes"/>
      <point x="519.38" y="230.34000000000003"/>
      <point x="440.06" y="80.24000000000001"/>
    </contour>
  </outline>
</glyph>
<glyph name="Thorn" format="2">
  <advance width="596.0500000000001"/>
  <unicode hex="00DE"/>
  <outline>
    <contour>
      <point x="20.229999999999997" y="0.0" type="line"/>
      <point x="124.37" y="0.0" type="line"/>
      <point x="146.92" y="138.72" type="line"/>
      <point x="204.48" y="135.85999999999999"/>
      <point x="236.15" y="135.43"/>
      <point x="283.66999999999996" y="135.43" type="curve" smooth="yes"/>
      <point x="482.2" y="135.43"/>
      <point x="586.79" y="230.04999999999998"/>
      <point x="586.79" y="425.38" type="curve" smooth="yes"/>
      <point x="586.79" y="548.5799999999999"/>
      <point x="517.35" y="621.5999999999999"/>
      <point x="337.4" y="621.5999999999999" type="curve" smooth="yes"/>
      <point x="313.71" y="621.5999999999999"/>
      <point x="281.45" y="620.6"/>
      <point x="222.81" y="617.75" type="curve"/>
      <point x="236.09" y="700.0" type="line"/>
      <point x="131.95" y="700.0" type="line"/>
    </contour>
    <contour>
      <point x="277.8" y="221.36999999999998" type="curve" smooth="yes"/>
      <point x="232.45" y="221.36999999999998"/>
      <point x="207.20000000000002" y="221.94"/>
      <point x="161.1" y="224.94" type="curve"/>
      <point x="209.20000000000002" y="530.38" type="line"/>
      <point x="275.29" y="534.52"/>
      <point x="299.39" y="535.52"/>
      <point x="331.39000000000004" y="535.52" type="curve" smooth="yes"/>
      <point x="439.99" y="535.52"/>
      <point x="481.36" y="485.83000000000004"/>
      <point x="481.36" y="411.35" type="curve" smooth="yes"/>
      <point x="481.36" y="281.46"/>
      <point x="415.41999999999996" y="221.36999999999998"/>
    </contour>
  </outline>
</glyph>
<glyph name="germandbls" format="2">
  <advance width="616.48"/>
  <unicode hex="00DF"/>
  <outline>
    <contour>
      <point x="38.120000000000005" y="-29.020000000000003" type="line" smooth="yes"/>
      <point x="27.560000000000002" y="-93.24"/>
      <point x="8.0" y="-130.9"/>
      <point x="-34.66" y="-130.9" type="curve" smooth="yes"/>
      <point x="-47.07999999999999" y="-130.9"/>
      <point x="-60.5" y="-128.89999999999998"/>
      <point x="-77.05999999999999" y="-123.61999999999999" type="curve"/>
      <point x="-99.98" y="-204.98000000000002" type="line"/>
      <point x="-75.38" y="-215.42000000000002"/>
      <point x="-45.36" y="-220.0"/>
      <point x="-16.46" y="-220.0" type="curve" smooth="yes"/>
      <point x="71.9" y="-220.0"/>
      <point x="118.52" y="-157.54"/>
      <point x="136.96" y="-40.04" type="curve" smooth="yes"/>
      <point x="224.08" y="507.65999999999997" type="line" smooth="yes"/>
      <point x="241.05999999999997" y="613.98"/>
      <point x="293.91999999999996" y="665.78"/>
      <point x="392.58" y="665.78" type="curve" smooth="yes"/>
      <point x="451.82" y="665.78"/>
      <point x="482.08" y="646.82"/>
      <point x="482.08" y="611.02" type="curve" smooth="yes"/>
      <point x="482.08" y="576.2199999999999"/>
      <point x="460.09999999999997" y="554.24"/>
      <point x="392.86" y="527.5600000000001" type="curve" smooth="yes"/>
      <point x="305.86" y="492.71999999999997"/>
      <point x="262.11999999999995" y="452.98"/>
      <point x="262.11999999999995" y="372.94" type="curve" smooth="yes"/>
      <point x="262.11999999999995" y="301.03999999999996"/>
      <point x="306.28000000000003" y="262.88000000000005"/>
      <point x="397.42" y="231.06" type="curve" smooth="yes"/>
      <point x="471.54" y="205.10000000000002"/>
      <point x="498.2399999999999" y="185.11999999999998"/>
      <point x="498.2399999999999" y="150.06" type="curve" smooth="yes"/>
      <point x="498.2399999999999" y="102.7"/>
      <point x="446.58000000000004" y="70.06"/>
      <point x="373.53999999999996" y="70.06" type="curve" smooth="yes"/>
      <point x="324.67999999999995" y="70.06"/>
      <point x="263.24" y="81.34"/>
      <point x="218.24" y="97.61999999999998" type="curve"/>
      <point x="194.62" y="22.0" type="line"/>
      <point x="244.06" y="2.86"/>
      <point x="306.92" y="-10.0"/>
      <point x="368.09999999999997" y="-10.0" type="curve" smooth="yes"/>
      <point x="516.6200000000001" y="-10.0"/>
      <point x="595.64" y="50.13999999999999"/>
      <point x="595.64" y="160.08" type="curve" smooth="yes"/>
      <point x="595.64" y="228.1"/>
      <point x="557.0600000000001" y="271.56"/>
      <point x="470.21999999999997" y="302.52000000000004" type="curve" smooth="yes"/>
      <point x="385.08" y="333.06"/>
      <point x="356.79999999999995" y="349.02"/>
      <point x="356.79999999999995" y="383.82" type="curve" smooth="yes"/>
      <point x="356.79999999999995" y="420.9"/>
      <point x="384.35999999999996" y="437.44"/>
      <point x="464.21999999999997" y="469.41999999999996" type="curve" smooth="yes"/>
      <point x="546.04" y="502.37999999999994"/>
      <point x="577.62" y="540.98"/>
      <point x="577.62" y="616.74" type="curve" smooth="yes"/>
      <point x="577.62" y="701.96"/>
      <point x="510.25999999999993" y="750.0"/>
      <point x="399.17999999999995" y="750.0" type="curve" smooth="yes"/>
      <point x="230.73999999999998" y="750.0"/>
      <point x="151.96" y="676.5600000000001"/>
      <point x="126.10000000000001" y="522.7" type="curve" smooth="yes"/>
      <point x="121.82000000000001" y="496.04" type="line"/>
      <point x="42.44" y="486.46000000000004" type="line"/>
      <point x="29.119999999999997" y="414.12" type="line"/>
      <point x="108.21999999999998" y="414.12" type="line"/>
    </contour>
  </outline>
</glyph>
<glyph name="ae" format="2">
  <advance width="811.9599999999999"/>
  <unicode hex="00E6"/>
  <anchor x="368.76" y="0.0" name="bottom"/>
  <anchor x="446.64" y="538.6" name="top"/>
  <outline>
    <contour>
      <point x="177.84" y="-10.0" type="curve" smooth="yes"/>
      <point x="229.95999999999998" y="-10.0"/>
      <point x="279.94" y="8.56"/>
      <point x="319.52000000000004" y="36.14" type="curve"/>
      <point x="312.52" y="-3.28" type="line"/>
      <point x="405.34" y="-3.28" type="line"/>
      <point x="419.74" y="83.82000000000001" type="line"/>
      <point x="442.91999999999996" y="28.38"/>
      <point x="496.76000000000005" y="-9.14"/>
      <point x="579.42" y="-9.14" type="curve" smooth="yes"/>
      <point x="636.6999999999999" y="-9.14"/>
      <point x="700.96" y="3.28"/>
      <point x="750.8199999999999" y="26.14" type="curve"/>
      <point x="738.66" y="106.64" type="line"/>
      <point x="688.82" y="87.22"/>
      <point x="645.4599999999999" y="75.08"/>
      <point x="592.6" y="75.08" type="curve" smooth="yes"/>
      <point x="499.34" y="75.08"/>
      <point x="444.91999999999996" y="127.04"/>
      <point x="444.91999999999996" y="207.8" type="curve" smooth="yes"/>
      <point x="444.91999999999996" y="351.76"/>
      <point x="516.5400000000001" y="468.68"/>
      <point x="622.4000000000001" y="468.68" type="curve" smooth="yes"/>
      <point x="675.74" y="468.68"/>
      <point x="701.9799999999999" y="449.72"/>
      <point x="701.9799999999999" y="411.34000000000003" type="curve" smooth="yes"/>
      <point x="701.9799999999999" y="355.26"/>
      <point x="644.48" y="321.92"/>
      <point x="546.3" y="301.64" type="curve" smooth="yes"/>
      <point x="505.92" y="293.22"/>
      <point x="464.12" y="291.21999999999997"/>
      <point x="425.3" y="293.36" type="curve"/>
      <point x="419.86" y="225.48000000000002" type="line"/>
      <point x="464.28000000000003" y="221.48000000000002"/>
      <point x="518.54" y="223.48000000000002"/>
      <point x="572.54" y="233.62" type="curve" smooth="yes"/>
      <point x="718.4000000000001" y="256.76"/>
      <point x="803.4" y="327.78"/>
      <point x="803.4" y="425.38" type="curve" smooth="yes"/>
      <point x="803.4" y="501.28000000000003"/>
      <point x="749.9599999999999" y="548.6"/>
      <point x="657.94" y="548.6" type="curve" smooth="yes"/>
      <point x="581.44" y="548.6"/>
      <point x="514.78" y="516.8199999999999"/>
      <point x="477.65999999999997" y="457.38" type="curve"/>
      <point x="491.2" y="544.6" type="line"/>
      <point x="399.24" y="544.6" type="line"/>
      <point x="395.24" y="517.6" type="line"/>
      <point x="366.53999999999996" y="538.46"/>
      <point x="330.56" y="548.6"/>
      <point x="290.7" y="548.6" type="curve" smooth="yes"/>
      <point x="136.1" y="548.6"/>
      <point x="24.259999999999998" y="395.72"/>
      <point x="24.259999999999998" y="172.02" type="curve" smooth="yes"/>
      <point x="24.259999999999998" y="53.72"/>
      <point x="81.84" y="-10.0"/>
    </contour>
    <contour>
      <point x="223.70000000000002" y="70.78" type="curve" smooth="yes"/>
      <point x="167.22" y="70.78"/>
      <point x="129.26" y="108.30000000000001"/>
      <point x="129.26" y="186.78" type="curve" smooth="yes"/>
      <point x="129.26" y="348.3"/>
      <point x="216.73999999999998" y="468.82"/>
      <point x="306.76" y="468.82" type="curve" smooth="yes"/>
      <point x="336.58" y="468.82"/>
      <point x="360.96000000000004" y="463.98"/>
      <point x="384.5" y="446.86" type="curve"/>
      <point x="330.26" y="104.58" type="line"/>
      <point x="299.44" y="84.03999999999999"/>
      <point x="259.35999999999996" y="70.78"/>
    </contour>
  </outline>
</glyph>
<glyph name="eth" format="2">
  <advance width="534.52"/>
  <unicode hex="00F0"/>
  <outline>
    <contour>
      <point x="431.02000000000004" y="412.3" type="curve"/>
      <point x="445.34000000000003" y="486.34" type="line"/>
      <point x="405.48" y="518.74"/>
      <point x="348.91999999999996" y="532.28"/>
      <point x="298.26" y="532.28" type="curve" smooth="yes"/>
      <point x="126.33999999999999" y="532.28"/>
      <point x="28.1" y="376.84000000000003"/>
      <point x="28.1" y="194.78" type="curve" smooth="yes"/>
      <point x="28.1" y="49.53999999999999"/>
      <point x="113.18" y="-9.14"/>
      <point x="222.34" y="-9.14" type="curve" smooth="yes"/>
      <point x="370.96000000000004" y="-9.14"/>
      <point x="465.86" y="80.25999999999999"/>
      <point x="505.29999999999995" y="308.34000000000003" type="curve" smooth="yes"/>
      <point x="514.86" y="365.44"/>
      <point x="519.86" y="412.14000000000004"/>
      <point x="519.86" y="456.26" type="curve" smooth="yes"/>
      <point x="519.86" y="644.8"/>
      <point x="403.2" y="731.5"/>
      <point x="219.24" y="731.5" type="curve" smooth="yes"/>
      <point x="173.5" y="731.5"/>
      <point x="133.20000000000002" y="724.06"/>
      <point x="92.22" y="715.92" type="curve"/>
      <point x="91.78" y="648.04" type="line"/>
      <point x="127.3" y="653.74"/>
      <point x="154.44" y="660.1800000000001"/>
      <point x="204.48" y="660.1800000000001" type="curve" smooth="yes"/>
      <point x="351.06" y="660.1800000000001"/>
      <point x="417.3" y="598.68"/>
      <point x="417.3" y="474.04" type="curve" smooth="yes"/>
      <point x="417.3" y="430.8"/>
      <point x="413.16" y="383.68"/>
      <point x="402.88" y="325.53999999999996" type="curve" smooth="yes"/>
      <point x="367.6" y="129.1"/>
      <point x="314.24" y="68.19999999999999"/>
      <point x="229.35999999999999" y="68.19999999999999" type="curve" smooth="yes"/>
      <point x="164.60000000000002" y="68.19999999999999"/>
      <point x="127.94" y="110.0"/>
      <point x="127.94" y="187.76" type="curve" smooth="yes"/>
      <point x="127.94" y="338.46"/>
      <point x="203.55999999999997" y="456.8"/>
      <point x="313.6" y="456.8" type="curve" smooth="yes"/>
      <point x="355.52000000000004" y="456.8"/>
      <point x="396.76" y="443.40000000000003"/>
    </contour>
    <contour>
      <point x="218.20000000000002" y="555.7800000000001" type="line"/>
      <point x="394.32" y="647.9799999999999" type="line"/>
      <point x="390.46000000000004" y="650.5600000000001" type="line"/>
      <point x="555.6400000000001" y="736.92" type="line"/>
      <point x="444.84" y="736.92" type="line"/>
      <point x="337.32" y="680.76" type="line"/>
      <point x="341.04" y="678.18" type="line"/>
      <point x="111.7" y="555.7800000000001" type="line"/>
    </contour>
  </outline>
</glyph>
<glyph name="divide" format="2">
  <advance width="462.348"/>
  <unicode hex="00F7"/>
  <outline>
    <contour>
      <point x="155.504" y="109.46399999999998" type="curve" smooth="yes"/>
      <point x="154.504" y="85.928"/>
      <point x="167.712" y="75.38399999999999"/>
      <point x="198.436" y="75.38399999999999" type="curve" smooth="yes"/>
      <point x="236.90799999999996" y="75.38399999999999"/>
      <point x="256.74399999999997" y="91.00399999999999"/>
      <point x="258.88399999999996" y="137.224" type="curve" smooth="yes"/>
      <point x="259.88399999999996" y="160.84400000000002"/>
      <point x="245.648" y="171.30399999999997"/>
      <point x="215.868" y="171.30399999999997" type="curve" smooth="yes"/>
      <point x="176.70399999999998" y="171.30399999999997"/>
      <point x="157.644" y="151.384"/>
    </contour>
    <contour>
      <point x="214.4" y="472.59599999999995" type="curve" smooth="yes"/>
      <point x="213.4" y="449.92"/>
      <point x="225.748" y="438.51599999999996"/>
      <point x="257.332" y="438.51599999999996" type="curve" smooth="yes"/>
      <point x="295.804" y="438.51599999999996"/>
      <point x="314.78" y="454.996"/>
      <point x="316.91999999999996" y="500.35599999999994" type="curve" smooth="yes"/>
      <point x="317.91999999999996" y="524.836"/>
      <point x="304.544" y="535.296"/>
      <point x="273.904" y="535.296" type="curve" smooth="yes"/>
      <point x="233.88" y="535.296"/>
      <point x="216.54" y="513.656"/>
    </contour>
    <contour>
      <point x="47.364" y="260.93999999999994" type="line"/>
      <point x="410.04799999999994" y="260.93999999999994" type="line"/>
      <point x="425.14400000000006" y="349.74" type="line"/>
      <point x="61.6" y="349.74" type="line"/>
    </contour>
  </outline>
</glyph>
<glyph name="oslash" format="2">
  <advance width="507.8399999999999"/>
  <unicode hex="00F8"/>
  <anchor x="291.06" y="538.6" name="top"/>
  <outline>
    <contour>
      <point x="446.55999999999995" y="549.46" type="line"/>
      <point x="389.26000000000005" y="476.71999999999997" type="line"/>
      <point x="386.54" y="478.44" type="line"/>
      <point x="96.38" y="114.86" type="line"/>
      <point x="92.8" y="117.44" type="line"/>
      <point x="-9.32" y="-10.0" type="line"/>
      <point x="67.86" y="-10.0" type="line"/>
      <point x="134.62" y="73.92000000000002" type="line"/>
      <point x="138.2" y="72.19999999999999" type="line"/>
      <point x="422.34000000000003" y="428.90000000000003" type="line"/>
      <point x="425.06" y="426.32" type="line"/>
      <point x="523.74" y="549.46" type="line"/>
    </contour>
    <contour>
      <point x="237.7" y="-10.0" type="curve" smooth="yes"/>
      <point x="409.5" y="-10.0"/>
      <point x="481.16" y="163.74"/>
      <point x="481.16" y="353.4" type="curve" smooth="yes"/>
      <point x="481.16" y="485.73999999999995"/>
      <point x="407.54" y="549.46"/>
      <point x="280.15999999999997" y="549.46" type="curve" smooth="yes"/>
      <point x="103.61999999999998" y="549.46"/>
      <point x="33.260000000000005" y="362.84000000000003"/>
      <point x="33.260000000000005" y="184.06" type="curve" smooth="yes"/>
      <point x="33.260000000000005" y="53.160000000000004"/>
      <point x="103.02" y="-10.0"/>
    </contour>
    <contour>
      <point x="235.39999999999998" y="70.78" type="curve" smooth="yes"/>
      <point x="171.5" y="69.92"/>
      <point x="133.96" y="101.85999999999999"/>
      <point x="133.10000000000002" y="176.02" type="curve" smooth="yes"/>
      <point x="131.38" y="295.79999999999995"/>
      <point x="173.23999999999998" y="466.96000000000004"/>
      <point x="279.16" y="468.68" type="curve" smooth="yes"/>
      <point x="340.78" y="469.54"/>
      <point x="378.73999999999995" y="434.32"/>
      <point x="379.59999999999997" y="361.3" type="curve" smooth="yes"/>
      <point x="381.31999999999994" y="226.2"/>
      <point x="337.44" y="72.5"/>
    </contour>
  </outline>
</glyph>
<glyph name="thorn" format="2">
  <advance width="520.3100000000001"/>
  <unicode hex="00FE"/>
  <outline>
    <contour>
      <point x="-16.604" y="-210.0" type="line"/>
      <point x="84.18400000000001" y="-210.0" type="line"/>
      <point x="117.868" y="2.192" type="line"/>
      <point x="143.138" y="-3.9739999999999993"/>
      <point x="175.786" y="-9.57"/>
      <point x="214.94200000000004" y="-9.57" type="curve" smooth="yes"/>
      <point x="393.94" y="-9.57"/>
      <point x="495.998" y="160.13"/>
      <point x="495.998" y="365.68399999999997" type="curve" smooth="yes"/>
      <point x="495.998" y="485.66799999999995"/>
      <point x="446.796" y="548.6"/>
      <point x="353.444" y="548.6" type="curve" smooth="yes"/>
      <point x="288.72400000000005" y="548.6"/>
      <point x="241.936" y="523.5740000000001"/>
      <point x="194.79" y="491.04" type="curve"/>
      <point x="234.096" y="740.0" type="line"/>
      <point x="133.39600000000002" y="740.0" type="line"/>
    </contour>
    <contour>
      <point x="207.176" y="71.00800000000001" type="curve" smooth="yes"/>
      <point x="176.848" y="71.00800000000001"/>
      <point x="151.07999999999998" y="76.428"/>
      <point x="130.758" y="82.70800000000001" type="curve"/>
      <point x="183.82199999999997" y="416.01" type="line"/>
      <point x="222.56" y="442.302"/>
      <point x="264.422" y="458.562"/>
      <point x="303.004" y="458.562" type="curve" smooth="yes"/>
      <point x="363.25000000000006" y="458.562"/>
      <point x="393.148" y="420.7"/>
      <point x="393.148" y="340.526" type="curve" smooth="yes"/>
      <point x="393.148" y="203.67"/>
      <point x="322.89" y="71.00800000000001"/>
    </contour>
  </outline>
</glyph>
<glyph name="Dcroat" format="2">
  <advance width="644.3919999999999"/>
  <unicode hex="0110"/>
  <outline>
    <contour>
      <point x="17.008000000000003" y="315.10400000000004" type="line"/>
      <point x="314.34" y="315.10400000000004" type="line"/>
      <point x="329.38000000000005" y="399.24" type="line"/>
      <point x="32.16" y="399.24" type="line"/>
    </contour>
    <component base="D" xOffset="7.468"/>
  </outline>
</glyph>
<glyph name="dcroat" format="2">
  <advance width="530.452"/>
  <unicode hex="0111"/>
  <outline>
    <contour>
      <point x="271.392" y="609.6519999999999" type="line"/>
      <point x="582.16" y="609.6519999999999" type="line"/>
      <point x="592.0400000000001" y="666.1000000000001" type="line"/>
      <point x="281.272" y="666.1000000000001" type="line"/>
    </contour>
    <component base="d"/>
  </outline>
</glyph>
<glyph name="Hbar" format="2">
  <advance width="648.396"/>
  <unicode hex="0126"/>
  <outline>
    <contour>
      <point x="49.72599999999999" y="498.964" type="line"/>
      <point x="670.498" y="498.964" type="line"/>
      <point x="682.702" y="575.9920000000001" type="line"/>
      <point x="61.93" y="575.9920000000001" type="line"/>
    </contour>
    <component base="H" xOffset="2.0319999999999996"/>
  </outline>
</glyph>
<glyph name="hbar" format="2">
  <advance width="527.56"/>
  <unicode hex="0127"/>
  <outline>
    <contour>
      <point x="48.924" y="609.6519999999999" type="line"/>
      <point x="345.476" y="609.6519999999999" type="line"/>
      <point x="354.49600000000004" y="666.1000000000001" type="line"/>
      <point x="57.943999999999996" y="666.1000000000001" type="line"/>
    </contour>
    <component base="h" xOffset="0.8599999999999999"/>
  </outline>
</glyph>
<glyph name="Idotaccent" format="2">
  <advance width="233.944"/>
  <unicode hex="0130"/>
  <outline>
    <contour>
      <point x="215.19199999999998" y="890.4100000000001" type="curve" smooth="yes"/>
      <point x="164.956" y="890.4100000000001"/>
      <point x="145.154" y="863.8399999999999"/>
      <point x="143.9" y="817.11" type="curve" smooth="yes"/>
      <point x="143.558" y="789.128"/>
      <point x="161.084" y="776.1719999999999"/>
      <point x="195.322" y="776.1719999999999" type="curve" smooth="yes"/>
      <point x="242.14000000000001" y="776.1719999999999"/>
      <point x="265.416" y="800.85"/>
      <point x="266.89799999999997" y="850.13" type="curve" smooth="yes"/>
      <point x="267.24" y="877.7120000000001"/>
      <point x="250.14000000000001" y="890.4100000000001"/>
    </contour>
    <component base="I"/>
  </outline>
</glyph>
<glyph name="dotlessi" format="2">
  <advance width="220.524"/>
  <unicode hex="0131"/>
  <anchor x="66.182368" y="0.0" name="bottom"/>
  <anchor x="117.3" y="0.0" name="ogonek"/>
  <anchor x="151.71963200000002" y="538.6" name="top"/>
  <outline>
    <contour>
      <point x="117.3" y="0.0" type="line"/>
      <point x="202.41800000000003" y="538.6" type="line"/>
      <point x="101.116" y="538.6" type="line"/>
      <point x="15.996000000000002" y="0.17200000000000001" type="line"/>
    </contour>
  </outline>
</glyph>
<glyph name="Ldot" format="2">
  <advance width="488.67800000000005"/>
  <unicode hex="013F"/>
  <outline>
    <contour>
      <point x="329.85748399999994" y="375.674196" type="curve" smooth="yes"/>
      <point x="328.945484" y="349.399916"/>
      <point x="341.37879599999997" y="337.826862"/>
      <point x="372.18499" y="337.826862" type="curve" smooth="yes"/>
      <point x="412.38223800000003" y="337.826862"/>
      <point x="428.947464" y="361.785422"/>
      <point x="430.31546399999996" y="399.15927200000004" type="curve" smooth="yes"/>
      <point x="431.22746400000005" y="425.091638"/>
      <point x="419.13615200000004" y="437.006692"/>
      <point x="388.673786" y="437.006692" type="curve" smooth="yes"/>
      <point x="348.820624" y="437.006692"/>
      <point x="331.22548400000005" y="412.360046"/>
    </contour>
    <component base="L"/>
  </outline>
</glyph>
<glyph name="ldot" format="2">
  <advance width="310.516"/>
  <unicode hex="0140"/>
  <outline>
    <contour>
      <point x="244.29878999999997" y="363.36544999999995" type="curve" smooth="yes"/>
      <point x="243.38679" y="340.601604"/>
      <point x="252.573258" y="331.031404"/>
      <point x="276.491712" y="331.031404" type="curve" smooth="yes"/>
      <point x="308.935286" y="331.031404"/>
      <point x="320.33389000000005" y="352.492352"/>
      <point x="321.70189" y="384.71402800000004" type="curve" smooth="yes"/>
      <point x="322.61389" y="407.02966399999997"/>
      <point x="313.76942199999996" y="416.941864"/>
      <point x="290.11774" y="416.941864" type="curve" smooth="yes"/>
      <point x="257.94050799999997" y="416.941864"/>
      <point x="245.66679" y="395.121522"/>
    </contour>
    <component base="l"/>
  </outline>
</glyph>
<glyph name="Lslash" format="2">
  <advance width="494.85799999999995"/>
  <unicode hex="0141"/>
  <outline>
    <contour>
      <point x="25.84" y="0.0" type="line"/>
      <point x="436.158" y="0.0" type="line"/>
      <point x="451.198" y="90.294" type="line"/>
      <point x="144.50400000000002" y="90.294" type="line"/>
      <point x="175.708" y="287.39799999999997" type="line"/>
      <point x="374.036" y="403.796" type="line"/>
      <point x="390.16200000000003" y="500.78" type="line"/>
      <point x="191.31799999999998" y="384.124" type="line"/>
      <point x="241.75400000000002" y="700.0" type="line"/>
      <point x="137.786" y="700.0" type="line"/>
      <point x="78.55799999999999" y="329.48400000000004" type="line"/>
      <point x="18.544" y="293.28400000000005" type="line"/>
      <point x="3.194000000000001" y="196.81799999999998" type="line"/>
      <point x="62.605999999999995" y="232.84600000000003" type="line"/>
    </contour>
  </outline>
</glyph>
<glyph name="lslash" format="2">
  <advance width="268.46000000000004"/>
  <unicode hex="0142"/>
  <outline>
    <contour>
      <point x="1.0060000000000002" y="189.12800000000001" type="line"/>
      <point x="264.08" y="383.752" type="line"/>
      <point x="277.71200000000005" y="470.404" type="line"/>
      <point x="14.207999999999998" y="275.78" type="line"/>
    </contour>
    <component base="l" xOffset="5.159999999999999"/>
  </outline>
</glyph>
<glyph name="Eng" format="2">
  <advance width="634.48"/>
  <unicode hex="014A"/>
  <outline>
    <contour>
      <point x="19.799999999999997" y="0.0" type="line"/>
      <point x="121.5" y="0.0" type="line"/>
      <point x="199.84" y="493.84000000000003" type="line"/>
      <point x="432.7200000000001" y="-1.0000000000000007" type="line"/>
      <point x="419.32000000000005" y="-69.14"/>
      <point x="376.7" y="-91.82000000000001"/>
      <point x="318.78" y="-91.82000000000001" type="curve" smooth="yes"/>
      <point x="295.38" y="-93.54"/>
      <point x="270.12" y="-92.69999999999999"/>
      <point x="238.54" y="-85.7" type="curve"/>
      <point x="220.64" y="-177.94" type="line"/>
      <point x="251.64000000000001" y="-185.8"/>
      <point x="287.21999999999997" y="-189.08"/>
      <point x="312.47999999999996" y="-189.08" type="curve" smooth="yes"/>
      <point x="434.78000000000003" y="-189.08"/>
      <point x="504.66" y="-129.52"/>
      <point x="525.38" y="2.8200000000000007" type="curve" smooth="yes"/>
      <point x="637.8200000000002" y="700.0" type="line"/>
      <point x="536.26" y="700.0" type="line"/>
      <point x="456.2" y="193.7" type="line"/>
      <point x="228.20000000000002" y="702.28" type="line"/>
      <point x="131.66" y="702.28" type="line"/>
    </contour>
  </outline>
</glyph>
<glyph name="eng" format="2">
  <advance width="522.064"/>
  <unicode hex="014B"/>
  <outline>
    <contour>
      <point x="413.434" y="-24.035999999999994" type="curve" smooth="yes"/>
      <point x="443.622" y="169.92000000000002"/>
      <point x="487.61400000000003" y="426.37"/>
      <point x="487.61400000000003" y="444.262" type="curve" smooth="yes"/>
      <point x="487.61400000000003" y="507.55999999999995"/>
      <point x="446.142" y="548.6"/>
      <point x="366.752" y="548.6" type="curve" smooth="yes"/>
      <point x="304.03000000000003" y="548.6"/>
      <point x="251.048" y="527.786"/>
      <point x="185.072" y="491.05800000000005" type="curve"/>
      <point x="192.52800000000002" y="538.6" type="line"/>
      <point x="100.944" y="538.6" type="line"/>
      <point x="15.882000000000003" y="0.0" type="line"/>
      <point x="115.982" y="0.0" type="line"/>
      <point x="183.70600000000002" y="421.58" type="line"/>
      <point x="229.81" y="445.056"/>
      <point x="269.466" y="461.484"/>
      <point x="313.10799999999995" y="461.484" type="curve" smooth="yes"/>
      <point x="360.43800000000005" y="461.484"/>
      <point x="382.15799999999996" y="439.802"/>
      <point x="380.782" y="400.132" type="curve" smooth="yes"/>
      <point x="378.71799999999996" y="376.68399999999997"/>
      <point x="360.17799999999994" y="266.356"/>
      <point x="314.422" y="-21.53" type="curve" smooth="yes"/>
      <point x="303.946" y="-86.92399999999999"/>
      <point x="282.586" y="-125.07600000000001"/>
      <point x="236.286" y="-125.07600000000001" type="curve" smooth="yes"/>
      <point x="228.32800000000003" y="-125.07600000000001"/>
      <point x="219.02599999999998" y="-124.278"/>
      <point x="208.044" y="-120.57000000000001" type="curve"/>
      <point x="187.47799999999998" y="-214.71200000000002" type="line"/>
      <point x="203.916" y="-219.052"/>
      <point x="231.276" y="-221.368"/>
      <point x="252.76400000000004" y="-221.368" type="curve" smooth="yes"/>
      <point x="339.69" y="-221.368"/>
      <point x="393.10200000000003" y="-162.72"/>
    </contour>
  </outline>
</glyph>
<glyph name="OE" format="2">
  <advance width="937.36"/>
  <unicode hex="0152"/>
  <outline>
    <contour>
      <point x="865.912" y="0.0" type="line"/>
      <point x="880.9519999999999" y="91.24" type="line"/>
      <point x="539.1440000000001" y="91.24" type="line"/>
      <point x="573.392" y="313.84000000000003" type="line"/>
      <point x="876.592" y="313.84000000000003" type="line"/>
      <point x="892.492" y="405.08" type="line"/>
      <point x="588.432" y="405.08" type="line"/>
      <point x="621.6999999999999" y="608.7600000000001" type="line"/>
      <point x="946.62" y="608.7600000000001" type="line"/>
      <point x="961.744" y="700.0" type="line"/>
      <point x="633.74" y="700.0" type="line"/>
      <point x="567.944" y="704.0840000000001"/>
      <point x="495.92400000000004" y="710.0"/>
      <point x="418.48800000000006" y="710.0" type="curve" smooth="yes"/>
      <point x="198.936" y="710.0"/>
      <point x="42.708" y="523.1479999999999"/>
      <point x="42.708" y="239.088" type="curve" smooth="yes"/>
      <point x="42.708" y="70.676"/>
      <point x="123.932" y="-10.0"/>
      <point x="317.852" y="-10.0" type="curve" smooth="yes"/>
      <point x="383.9960000000001" y="-10.0"/>
      <point x="445.512" y="-5.196000000000001"/>
      <point x="519.5519999999999" y="0.0" type="curve"/>
    </contour>
    <contour>
      <point x="433.2" y="81.41600000000001" type="line"/>
      <point x="395.56800000000004" y="78.02399999999999"/>
      <point x="361.364" y="75.996"/>
      <point x="320.15999999999997" y="75.996" type="curve" smooth="yes"/>
      <point x="201.48" y="75.996"/>
      <point x="146.904" y="135.62"/>
      <point x="146.904" y="248.444" type="curve" smooth="yes"/>
      <point x="146.904" y="454.1000000000001"/>
      <point x="249.02799999999996" y="622.3680000000002"/>
      <point x="405.092" y="622.3680000000002" type="curve" smooth="yes"/>
      <point x="433.1200000000001" y="622.3680000000002"/>
      <point x="495.748" y="619.1439999999999"/>
      <point x="518.504" y="616.976" type="curve"/>
    </contour>
  </outline>
</glyph>
<glyph name="oe" format="2">
  <advance width="832.5"/>
  <unicode hex="0153"/>
  <outline>
    <contour>
      <point x="229.8" y="-10.0" type="curve" smooth="yes"/>
      <point x="308.5" y="-10.0"/>
      <point x="367.17999999999995" y="39.52"/>
      <point x="397.58" y="94.32000000000001" type="curve"/>
      <point x="425.66" y="30.64"/>
      <point x="483.93999999999994" y="-10.0"/>
      <point x="575.88" y="-10.0" type="curve" smooth="yes"/>
      <point x="640.9" y="-10.0"/>
      <point x="714.62" y="3.28"/>
      <point x="771.36" y="26.14" type="curve"/>
      <point x="756.6199999999999" y="108.36" type="line"/>
      <point x="698.18" y="87.22"/>
      <point x="635.9" y="75.94"/>
      <point x="593.36" y="75.94" type="curve" smooth="yes"/>
      <point x="507.11999999999995" y="75.94"/>
      <point x="466.32" y="116.58"/>
      <point x="466.32" y="206.79999999999998" type="curve" smooth="yes"/>
      <point x="466.32" y="362.08"/>
      <point x="545.2399999999999" y="468.68"/>
      <point x="642.94" y="468.68" type="curve" smooth="yes"/>
      <point x="695.14" y="468.68"/>
      <point x="722.52" y="449.86"/>
      <point x="722.52" y="411.20000000000005" type="curve" smooth="yes"/>
      <point x="722.52" y="355.26"/>
      <point x="664.88" y="321.91999999999996"/>
      <point x="566.8399999999999" y="303.22" type="curve" smooth="yes"/>
      <point x="528.02" y="295.94"/>
      <point x="485.36" y="292.94"/>
      <point x="449.12" y="295.08" type="curve"/>
      <point x="442.68" y="225.34" type="line"/>
      <point x="488.35999999999996" y="222.48"/>
      <point x="541.48" y="224.62"/>
      <point x="592.22" y="232.62" type="curve" smooth="yes"/>
      <point x="738.0799999999999" y="256.76000000000005"/>
      <point x="823.9399999999999" y="327.91999999999996"/>
      <point x="823.9399999999999" y="425.38" type="curve" smooth="yes"/>
      <point x="823.9399999999999" y="501.28000000000003"/>
      <point x="761.9000000000001" y="548.6"/>
      <point x="654.4000000000001" y="548.6" type="curve" smooth="yes"/>
      <point x="562.3" y="548.6"/>
      <point x="491.78000000000003" y="505.23999999999995"/>
      <point x="446.92" y="443.4" type="curve"/>
      <point x="428.71999999999997" y="509.1"/>
      <point x="366.28000000000003" y="549.46"/>
      <point x="275.48" y="549.46" type="curve" smooth="yes"/>
      <point x="102.01999999999998" y="549.46"/>
      <point x="28.26" y="361.98"/>
      <point x="28.26" y="188.35999999999999" type="curve" smooth="yes"/>
      <point x="28.26" y="58.32"/>
      <point x="93.72" y="-10.0"/>
    </contour>
    <contour>
      <point x="233.52" y="70.78" type="curve" smooth="yes"/>
      <point x="162.2" y="70.78"/>
      <point x="128.96" y="106.16"/>
      <point x="128.1" y="180.32" type="curve" smooth="yes"/>
      <point x="126.38000000000001" y="306.98"/>
      <point x="175.94" y="467.82"/>
      <point x="271.04" y="468.67999999999995" type="curve" smooth="yes"/>
      <point x="340.08" y="468.67999999999995"/>
      <point x="374.59999999999997" y="430.02"/>
      <point x="375.46" y="357.0" type="curve" smooth="yes"/>
      <point x="377.17999999999995" y="228.77999999999997"/>
      <point x="324.74" y="71.64"/>
    </contour>
  </outline>
</glyph>
<glyph name="uni0162" format="2">
  <advance width="513.1560000000001"/>
  <unicode hex="0162"/>
  <anchor x="212.704162" y="0.0" name="_bottom"/>
  <anchor x="156.55200000000002" y="-220.0" name="bottom"/>
  <outline>
    <contour>
      <point x="82.02600000000001" y="-202.558" type="line"/>
      <point x="106.77400000000002" y="-214.85999999999999"/>
      <point x="130.09" y="-220.0"/>
      <point x="158.604" y="-220.0" type="curve" smooth="yes"/>
      <point x="231.96600000000004" y="-220.0"/>
      <point x="281.46" y="-165.024"/>
      <point x="281.46" y="-87.134" type="curve" smooth="yes"/>
      <point x="281.46" y="-51.132000000000005"/>
      <point x="269.396" y="-18.723999999999997"/>
      <point x="250.424" y="4.9239999999999995" type="curve"/>
      <point x="177.952" y="3.526" type="line"/>
      <point x="197.406" y="-21.104000000000003"/>
      <point x="207.19" y="-44.756"/>
      <point x="207.19" y="-75.638" type="curve" smooth="yes"/>
      <point x="207.19" y="-125.06199999999998"/>
      <point x="181.424" y="-150.226"/>
      <point x="144.59" y="-150.226" type="curve" smooth="yes"/>
      <point x="127.328" y="-150.226"/>
      <point x="112.2" y="-145.57799999999997"/>
      <point x="97.134" y="-137.222" type="curve"/>
    </contour>
    <component base="T"/>
  </outline>
</glyph>
<glyph name="Tbar" format="2">
  <advance width="517.9639999999999"/>
  <unicode hex="0166"/>
  <outline>
    <contour>
      <point x="560.628" y="613.834" type="line"/>
      <point x="575.4960000000001" y="700.0" type="line"/>
      <point x="77.93" y="700.0" type="line"/>
      <point x="62.89" y="613.834" type="line"/>
      <point x="260.148" y="613.834" type="line"/>
      <point x="224.212" y="390.43" type="line"/>
      <point x="92.666" y="390.43" type="line"/>
      <point x="78.31400000000001" y="306.208" type="line"/>
      <point x="211.14800000000002" y="306.208" type="line"/>
      <point x="162.64" y="0.0" type="line"/>
      <point x="266.35" y="0.0" type="line"/>
      <point x="314.858" y="306.208" type="line"/>
      <point x="449.77" y="306.208" type="line"/>
      <point x="464.122" y="390.43" type="line"/>
      <point x="328.264" y="390.43" type="line"/>
      <point x="363.68600000000004" y="613.834" type="line"/>
    </contour>
  </outline>
</glyph>
